<?xml version="1.0" encoding="UTF-8" standalone="no"?>
<!-- Created with Inkscape (http://www.inkscape.org/) -->

<svg
   xmlns:dc="http://purl.org/dc/elements/1.1/"
   xmlns:cc="http://creativecommons.org/ns#"
   xmlns:rdf="http://www.w3.org/1999/02/22-rdf-syntax-ns#"
   xmlns:svg="http://www.w3.org/2000/svg"
   xmlns="http://www.w3.org/2000/svg"
   xmlns:sodipodi="http://sodipodi.sourceforge.net/DTD/sodipodi-0.dtd"
   xmlns:inkscape="http://www.inkscape.org/namespaces/inkscape"
   width="324.043mm"
   height="225.77777mm"
   viewBox="0 0 1148.1839 799.99997"
   id="svg5249"
   version="1.1"
   inkscape:version="0.91 r13725"
   sodipodi:docname="chromebook.svg">
  <defs
     id="defs5251" />
  <sodipodi:namedview
     id="base"
     pagecolor="#ffffff"
     bordercolor="#666666"
     borderopacity="1.0"
     inkscape:pageopacity="0.0"
     inkscape:pageshadow="2"
     inkscape:zoom="0.35"
     inkscape:cx="-151.35692"
     inkscape:cy="300.5272"
     inkscape:document-units="px"
     inkscape:current-layer="layer1"
     showgrid="false"
     fit-margin-top="0"
     fit-margin-left="0"
     fit-margin-right="0"
     fit-margin-bottom="0"
     inkscape:window-width="1920"
     inkscape:window-height="1017"
     inkscape:window-x="-8"
     inkscape:window-y="-8"
     inkscape:window-maximized="1" />
  <metadata
     id="metadata5254">
    <rdf:RDF>
      <cc:Work
         rdf:about="">
        <dc:format>image/svg+xml</dc:format>
        <dc:type
           rdf:resource="http://purl.org/dc/dcmitype/StillImage" />
        <dc:title></dc:title>
      </cc:Work>
    </rdf:RDF>
  </metadata>
  <g
     inkscape:label="Layer 1"
     inkscape:groupmode="layer"
     id="layer1"
     transform="translate(132.2145,-32.889404)">
    <g
       transform="matrix(7.548149,0,0,-7.548149,-474.931,2219.5221)"
       id="g5200">
      <g
         transform="matrix(-1.0875662,0,0,1.0875662,246.89857,9.4349549)"
         id="g6917">
        <path
           sodipodi:nodetypes="ssssssscssscssssssssss"
           inkscape:connector-curvature="0"
           id="path6851"
           d="m 168.50702,193.94776 c -2.51303,0.0723 -7.57422,0.21801 -11.24708,0.32388 -3.6729,0.10586 -8.69455,0.27691 -11.15925,0.38011 -5.09067,0.21315 -10.05088,0.33662 -17.04638,0.42434 -2.65798,0.0333 -8.19368,0.14488 -12.30151,0.24789 -4.10782,0.10301 -9.80164,0.2284 -12.65296,0.27866 -14.419786,0.25414 -23.377702,0.45547 -24.207637,0.54406 l -0.922613,0.0985 -0.02381,4.16109 c -0.01318,2.28859 -0.04681,6.73121 -0.07491,9.87249 -0.0281,3.14128 -0.09975,13.39177 -0.159239,22.77888 l -0.108165,17.06745 2.599441,0.11266 c 2.604713,0.11288 13.271353,0.30376 35.286293,0.63145 6.47587,0.0964 13.90949,0.21794 16.51917,0.27011 2.60968,0.0522 11.1109,0.17001 18.89161,0.26186 7.7807,0.0918 16.48226,0.21744 19.33681,0.27909 4.42812,0.0956 5.22126,0.0745 5.40267,-0.14409 0.21697,-0.26143 0.17446,-4.68299 -0.30783,-32.03127 -0.0972,-5.50932 -0.22496,-13.49652 -0.28398,-17.74933 -0.0767,-5.52655 -0.16495,-7.76921 -0.30928,-7.86149 -0.22085,-0.14122 -0.53478,-0.13888 -7.23135,0.0537 z"
           style="fill:#71b197;fill-opacity:1" />
        <path
           sodipodi:nodetypes="cssssssssssscsscsssssscssscsssssssccsscsssssscccccssssssssscssscssssssssss"
           inkscape:connector-curvature="0"
           id="path6849"
           d="m 175.88792,160.31216 c -0.67658,0.0271 -3.44442,0.13234 -6.15075,0.23386 -4.67871,0.1755 -18.29064,0.74892 -31.28099,1.31775 -68.417949,2.99592 -79.581152,3.49401 -84.792556,3.78332 -5.318756,0.29527 -7.380906,0.65904 -7.380906,1.30201 0,0.14893 0.437736,0.56141 0.97272,0.91662 0.535005,0.35522 0.906972,0.7116 0.826617,0.79196 -0.08035,0.0804 -0.616943,0.23278 -1.19239,0.33873 -0.575447,0.10594 -1.145139,0.27408 -1.265957,0.37364 -0.133362,0.1099 -0.21967,0.61632 -0.21967,1.28903 0,0.95567 0.05689,1.15204 0.413682,1.4283 0.227512,0.17616 6.876501,3.52308 14.775543,7.4376 l 14.361904,7.1173 -0.119456,19.41881 c -0.0657,10.68035 -0.17422,25.70577 -0.24111,33.38982 -0.06691,7.68405 -0.06873,14.27174 -0.004,14.63931 0.126179,0.71711 0.673464,1.41672 1.406832,1.79839 0.489798,0.25491 7.560245,0.41713 34.077467,0.78183 7.29743,0.10037 17.26165,0.25963 22.14272,0.35391 4.88106,0.0943 17.38019,0.3021 27.77582,0.46181 18.03222,0.27704 18.93117,0.27615 19.55407,-0.0194 0.35911,-0.1704 0.82929,-0.55709 1.04486,-0.8593 l 0.39195,-0.54948 -0.0309,-7.90811 c -0.0169,-4.34946 -0.11713,-14.39277 -0.22257,-22.31846 -0.10546,-7.92568 -0.27063,-20.66482 -0.36705,-28.30918 l -0.17531,-13.89884 0.45089,-1.56592 c 0.24798,-0.86125 0.75894,-2.47534 1.13543,-3.58687 0.37651,-1.11153 1.29986,-3.998 2.0519,-6.41436 1.27219,-4.08765 1.37148,-4.51968 1.42679,-6.20789 0.0485,-1.4816 0.005,-1.89808 -0.23915,-2.27019 -0.18967,-0.28947 -0.30608,-0.84449 -0.31911,-1.52147 -0.0187,-0.97249 -0.0616,-1.08552 -0.4903,-1.29158 -1.0008,-0.48107 -3.80414,-0.63373 -8.31702,-0.45292 z M 123.03536,191.071 c -0.23995,0.0611 -0.30754,0.26602 -0.30754,0.93231 0,1.00786 0.36639,1.24701 1.2416,0.81041 0.42493,-0.212 0.62779,-0.22568 0.9783,-0.066 0.33715,0.15362 0.52354,0.15067 0.78468,-0.0124 0.25627,-0.16003 0.43475,-0.16453 0.70881,-0.0179 0.40037,0.21428 0.61275,0.083 0.7069,-0.43703 0.0978,-0.54015 0.46899,-0.52691 0.53158,0.0189 0.0607,0.52933 0.46378,0.66793 0.66915,0.23009 0.068,-0.14498 0.21502,-0.44046 0.3267,-0.65662 0.44246,-0.85643 0.31195,-0.9616 -1.07105,-0.86305 -0.70074,0.0499 -1.37293,0.0927 -1.49375,0.095 -0.83244,0.0158 -1.15544,0.0279 -1.58163,0.0591 -0.2658,0.0195 -0.64143,-0.0111 -0.83474,-0.0679 -0.19331,-0.0568 -0.48986,-0.0681 -0.65901,-0.025 z m 52.70301,2.82311 c 0.14433,0.0923 0.23254,2.33494 0.30928,7.86149 0.059,4.25281 0.18682,12.24001 0.28398,17.74933 0.48229,27.34828 0.5248,31.76984 0.30783,32.03127 -0.18141,0.21858 -0.97455,0.23973 -5.40267,0.14409 -2.85455,-0.0617 -11.55611,-0.18724 -19.33681,-0.27909 -7.78071,-0.0918 -16.28193,-0.20969 -18.89161,-0.26186 -2.60968,-0.0522 -10.0433,-0.17372 -16.51917,-0.27011 -22.01494,-0.32769 -32.68158,-0.51857 -35.286293,-0.63145 l -2.599441,-0.11266 0.108165,-17.06745 c 0.05949,-9.38711 0.131143,-19.6376 0.159239,-22.77888 0.0281,-3.14128 0.06179,-7.5839 0.07491,-9.87249 l 0.02381,-4.16109 0.922613,-0.0985 c 0.829935,-0.0886 9.787851,-0.28992 24.207637,-0.54406 2.85132,-0.0503 8.54514,-0.17565 12.65296,-0.27866 4.10783,-0.10301 9.64353,-0.21456 12.30151,-0.24789 6.9955,-0.0877 11.95571,-0.21119 17.04638,-0.42434 2.46472,-0.1032 7.48637,-0.27425 11.15925,-0.38011 19.77745,-0.57006 18.22695,-0.53837 18.47843,-0.37757 z"
           style="fill:#4f4f4f;fill-opacity:1" />
        <path
           inkscape:connector-curvature="0"
           id="path6847"
           d="m 170.61585,161.35077 c -0.19331,0.03 -2.76345,0.14129 -5.71142,0.24742 -2.94797,0.10612 -7.93008,0.30738 -11.07136,0.44723 -3.14128,0.13986 -8.5188,0.37262 -11.95002,0.51725 -3.43126,0.14463 -7.93889,0.34124 -10.01696,0.43692 -2.07806,0.0957 -5.79487,0.25565 -8.25959,0.35548 -2.46469,0.0998 -7.01186,0.29925 -10.10481,0.44316 -3.09295,0.1439 -8.43093,0.38083 -11.86217,0.52649 -35.425982,1.50396 -47.519356,2.08236 -49.543921,2.36956 -1.89105,0.26827 -2.211812,0.65418 -1.230261,1.48011 0.514423,0.43286 0.64036,0.45488 2.592104,0.45329 1.12829,-8.8e-4 3.751653,-0.0774 5.82973,-0.16987 3.778958,-0.16823 5.246946,-0.22913 21.351909,-0.88577 18.930487,-0.77186 65.032269,-2.68576 80.399159,-3.33777 19.94251,-0.84614 20.77424,-0.90352 20.87764,-1.44039 0.10404,-0.54031 -0.47114,-1.14692 -1.28087,-1.35081 -0.68618,-0.17279 -9.00521,-0.24942 -10.01916,-0.0923 z m -2.46031,13.41793 c -1.35316,0.0546 -2.55915,0.16325 -2.67997,0.24145 -0.27472,0.1778 -0.28462,0.68911 -0.0185,0.95523 0.15107,0.15105 0.0879,0.22959 -0.25361,0.3153 -0.5803,0.14565 -0.82622,-0.01 -0.82622,-0.52288 0,-0.80074 -0.3067,-0.86463 -3.52386,-0.73404 -1.64139,0.0666 -3.10988,0.16932 -3.2633,0.22819 -0.21526,0.0826 -0.2546,0.25919 -0.17235,0.77354 0.0603,0.37717 0.0301,0.71375 -0.0695,0.77534 -0.0969,0.0599 -0.17613,0.30189 -0.17613,0.53782 0,0.23593 -0.0791,0.42897 -0.17574,0.42897 -0.0966,0 -0.17573,-0.13217 -0.17573,-0.2937 0,-0.16154 -0.1384,-0.44691 -0.30754,-0.63417 -0.16915,-0.18725 -0.30754,-0.58888 -0.30754,-0.89251 l 0,-0.55206 -3.30168,0 c -2.73008,0 -3.32956,0.0452 -3.4627,0.26089 -0.11201,0.18151 -0.0555,0.37317 0.18569,0.62991 0.28787,0.30644 0.32175,0.48573 0.19972,1.05713 l -0.14696,0.68811 -0.29567,-0.56241 c -0.16263,-0.30933 -0.2957,-0.79391 -0.2957,-1.07684 0,-0.92226 -0.2238,-0.97361 -3.65206,-0.83787 -3.43948,0.13618 -3.83587,0.25664 -3.31088,1.00618 0.15675,0.22377 0.28498,0.64411 0.28498,0.93407 0,0.49712 -0.0136,0.50743 -0.23859,0.18057 -0.13123,-0.19066 -0.33471,-0.64209 -0.45217,-1.00321 -0.11745,-0.3611 -0.29954,-0.7097 -0.40463,-0.77465 -0.35797,-0.22124 -6.16451,-0.0583 -6.65874,0.18688 -0.3239,0.16067 -0.55522,0.17605 -0.77741,0.0517 -0.32008,-0.17913 -3.73852,-0.0958 -20.02554,0.4882 -13.06252,0.46838 -15.578857,0.59531 -15.823284,0.79817 -0.171386,0.14223 -0.336226,0.1396 -0.615449,-0.01 -0.288778,-0.15455 -1.710283,-0.15638 -5.854443,-0.008 -3.010201,0.1081 -5.947582,0.22962 -6.527511,0.27006 -0.579928,0.0404 -2.517416,0.11607 -4.305529,0.16807 -1.788112,0.052 -4.43733,0.17338 -5.887151,0.26971 -1.449821,0.0963 -3.321518,0.17678 -4.159339,0.17877 -1.562358,0.004 -2.079285,0.0971 -2.079285,0.37584 0,0.0929 1.332979,0.11376 3.20718,0.0503 2.657741,-0.09 3.264469,-0.0648 3.541583,0.14713 0.395845,0.30269 0.257102,0.61133 -0.384466,0.85526 l -0.455288,0.17309 0.598073,0.36372 0.598095,0.36371 -0.402742,0.32612 c -0.462383,0.37441 -0.362104,0.68741 0.220219,0.68741 0.626959,0 0.683876,0.21063 0.168069,0.62192 l -0.474882,0.37866 1.145578,0.93763 1.1456,0.93763 -0.717705,0.36337 c -0.394725,0.19986 -0.896275,0.63209 -1.114517,0.96051 -0.366827,0.552 -0.39668,0.79105 -0.394879,3.16324 0,1.41137 -0.08736,16.6123 -0.196494,33.77986 -0.214969,33.81281 -0.259584,31.80315 0.721747,32.51317 0.474838,0.34356 0.478726,0.34371 15.289021,0.59133 3.237933,0.0541 9.722589,0.17533 14.410339,0.26932 4.68776,0.094 13.78209,0.25187 20.20963,0.35085 6.42754,0.099 16.27314,0.25538 21.87911,0.34758 5.60598,0.0922 14.9448,0.22152 20.75292,0.28738 l 10.56023,0.11977 0.68686,-0.66375 c 0.63436,-0.613 0.64025,-0.62694 0.077,-0.1824 l -0.60985,0.48134 -4.48649,-0.11333 c -4.835,-0.12212 -20.21648,-0.38401 -31.98916,-0.54464 -6.54559,-0.0893 -18.37279,-0.26215 -35.85012,-0.5239 -3.33458,-0.0499 -8.791184,-0.13065 -12.125772,-0.17936 -14.579333,-0.21296 -18.015409,-0.29884 -18.312271,-0.45771 -0.870441,-0.46586 -0.880612,-0.55877 -0.858052,-7.84186 0.04769,-15.38896 0.402215,-28.89271 0.756565,-28.8165 0.190761,0.041 0.310767,-0.1493 0.801641,-1.27129 0.326341,-0.74597 0.350659,-0.76352 0.547681,-0.3954 0.248468,0.46429 0.466688,0.492 0.625026,0.0794 0.06456,-0.16821 0.189971,-4.88321 0.278739,-10.47777 0.103355,-6.51536 0.226744,-10.25074 0.343279,-10.39115 0.199284,-0.24011 2.724652,-0.31997 19.771449,-0.62523 9.227625,-0.16524 21.425765,-0.40375 31.280985,-0.61164 4.48801,-0.0947 11.08456,-0.26982 22.7578,-0.60424 3.23793,-0.0928 9.2481,-0.25197 13.35592,-0.35379 4.10783,-0.10182 7.95324,-0.21938 8.54538,-0.26126 0.70395,-0.0498 1.18228,10e-4 1.38199,0.1472 0.3449,0.25219 0.319,-0.39115 0.62122,15.43435 0.0954,4.99669 0.22534,9.93209 0.28869,10.96757 0.11394,1.86221 0.11871,1.87836 0.43824,1.48375 0.17769,-0.21943 0.32305,-0.30645 0.32305,-0.19338 0,0.11307 0.0791,0.1567 0.17574,0.097 0.0967,-0.0597 0.17573,-0.34052 0.17573,-0.62396 0,-0.32503 0.1298,-0.59641 0.35147,-0.73485 0.23797,-0.1486 0.35148,-0.40982 0.35148,-0.80875 0,-0.43598 0.0889,-0.61251 0.34193,-0.67867 0.2416,-0.0632 0.36187,-0.27755 0.40982,-0.73043 0.0373,-0.35255 0.0813,0.38705 0.0978,1.64356 0.0165,1.25651 0.11721,3.35216 0.22386,4.657 0.10665,1.30484 0.25754,3.51911 0.33531,4.92061 0.0778,1.40149 0.10441,-8.24641 0.0592,-21.43978 -0.0777,-22.64672 -0.0997,-24.01251 -0.3952,-24.42729 -0.42981,-0.60336 -1.37309,-1.04361 -2.21498,-1.03374 -0.38662,0.005 -1.53329,-0.0479 -2.54817,-0.11657 -2.25192,-0.15231 -2.4603,-0.28701 -2.4603,-1.59046 0,-0.51092 -0.0791,-0.97781 -0.17574,-1.03755 -0.0967,-0.0597 -0.17813,-0.005 -0.18107,0.12143 -0.003,0.1449 -0.0704,0.1185 -0.18101,-0.0713 -0.18026,-0.30925 -0.12047,-2.24403 0.0794,-2.56733 0.0613,-0.0992 0.0178,-0.38614 -0.0969,-0.63764 -0.15937,-0.34978 -0.1599,-0.50573 -0.002,-0.66339 0.52551,-0.52553 0.0138,-1.061 -0.93617,-0.97958 -0.19331,0.0166 -1.45861,0.0748 -2.81178,0.1294 z m -22.23058,2.12024 c 0,0.0967 -0.15817,0.17573 -0.35147,0.17573 -0.19331,0 -0.35148,-0.0791 -0.35148,-0.17573 0,-0.0967 0.15817,-0.17574 0.35148,-0.17574 0.1933,0 0.35147,0.0791 0.35147,0.17574 z m 0.70294,0 c 0,0.0967 -0.0744,0.17573 -0.16535,0.17573 -0.091,0 -0.21424,-0.0791 -0.27399,-0.17573 -0.0597,-0.0967 0.0147,-0.17574 0.16537,-0.17574 0.15069,0 0.27397,0.0791 0.27397,0.17574 z m -7.95205,0.21967 c -0.0403,0.12082 -0.16548,0.21176 -0.27823,0.20209 -0.11278,-0.01 -0.42249,-0.0388 -0.68829,-0.0647 l -0.4833,-0.0472 0.52721,-0.13416 c 0.8059,-0.20506 1.00251,-0.1957 0.92261,0.0439 z m -3.74915,0.42026 c 0.0925,0.24119 0.0668,0.25206 -0.15693,0.0663 -0.30494,-0.25308 -0.33669,-0.35481 -0.11069,-0.35481 0.0863,0 0.20673,0.12981 0.26762,0.28846 z m 35.68166,-0.12487 c 0.15282,0.24729 -0.21128,0.40153 -0.63237,0.26788 -0.2933,-0.0931 -0.32115,-0.15133 -0.13022,-0.27226 0.31808,-0.20146 0.6365,-0.19963 0.76259,0.004 z m -16.95102,0.88045 c 0,0.091 -0.0791,0.21424 -0.17574,0.27398 -0.0967,0.0597 -0.17571,-0.0147 -0.17571,-0.16537 0,-0.15068 0.079,-0.27397 0.17571,-0.27397 0.0967,0 0.17574,0.0744 0.17574,0.16536 z m -66.164538,0.53758 c 0.06665,0.10784 -0.183952,0.1677 -0.648642,0.15495 -0.706194,-0.0194 -0.721703,-0.0298 -0.230038,-0.15495 0.757971,-0.19287 0.759465,-0.19287 0.87868,0 z m 44.549048,0 c 0,0.0967 -0.0791,0.17574 -0.17574,0.17574 -0.0967,0 -0.17576,-0.0791 -0.17576,-0.17574 0,-0.0967 0.0791,-0.17573 0.17576,-0.17573 0.0966,0 0.17574,0.0791 0.17574,0.17573 z m -14.49824,0.52721 c -0.0597,0.0966 -0.22254,0.17574 -0.36184,0.17574 -0.13927,0 -0.25321,-0.0791 -0.25321,-0.17574 0,-0.0967 0.16282,-0.17574 0.36184,-0.17574 0.199,0 0.31296,0.0791 0.25321,0.17574 z m 18.27653,0.70294 c -0.0597,0.0967 -0.183,0.17574 -0.27397,0.17574 -0.0909,0 -0.16537,-0.0791 -0.16537,-0.17574 0,-0.0966 0.12331,-0.17573 0.274,-0.17573 0.15067,0 0.22509,0.0791 0.16534,0.17573 z m -45.954926,0.17574 c 0,0.0966 -0.03486,0.17573 -0.07748,0.17573 -0.04264,0 -0.126376,-0.0791 -0.186104,-0.17573 -0.05975,-0.0967 -0.02487,-0.17574 0.07748,-0.17574 0.102366,0 0.186104,0.0791 0.186104,0.17574 z m 39.189096,0 c 0,0.0966 -0.0791,0.17573 -0.17573,0.17573 -0.0967,0 -0.17572,-0.0791 -0.17572,-0.17573 0,-0.0967 0.0791,-0.17574 0.17572,-0.17574 0.0967,0 0.17573,0.0791 0.17573,0.17574 z m -40.642564,1.33633 c -0.05841,0.0584 -0.20996,0.0646 -0.336841,0.0139 -0.140172,-0.0561 -0.09854,-0.0978 0.106188,-0.10618 0.185248,-0.008 0.289042,0.0339 0.230653,0.0923 z m 75.614004,1.10517 c 0,0.19753 -0.45711,0.38179 -0.59787,0.24101 -0.21157,-0.21155 -0.0961,-0.39794 0.2464,-0.39794 0.19331,0 0.35147,0.0706 0.35147,0.15693 z m -7.99521,0.19578 c 0.0602,0.0973 -0.0176,0.22573 -0.17295,0.28531 -0.33647,0.12912 -0.52398,-0.0132 -0.36226,-0.27486 0.14595,-0.23612 0.39277,-0.24094 0.53521,-0.0105 z m -7.99673,0.35023 c 0,0.0967 -0.11864,0.17573 -0.26363,0.17573 -0.14498,0 -0.2636,-0.0791 -0.2636,-0.17573 0,-0.0967 0.11862,-0.17574 0.2636,-0.17574 0.14501,0 0.26363,0.0791 0.26363,0.17574 z m -7.996,0.17573 c 0.0597,0.0967 -0.0193,0.17574 -0.17574,0.17574 -0.15638,0 -0.23546,-0.0791 -0.17571,-0.17574 0.0597,-0.0967 0.1388,-0.17573 0.17571,-0.17573 0.0369,0 0.11601,0.0791 0.17574,0.17573 z m -7.64452,0.25324 c 0,0.18548 -0.33723,0.26341 -0.43756,0.1011 -0.0607,-0.0982 0.013,-0.1786 0.16359,-0.1786 0.1507,0 0.27397,0.0349 0.27397,0.0775 z m -11.38766,0.48486 c -0.16403,0.16401 -0.25776,0.16401 -0.42179,0 -0.164,-0.16402 -0.11715,-0.21089 0.21091,-0.21089 0.32803,0 0.37489,0.0469 0.21088,0.21089 z m 3.52351,7.03458 c 0.42616,-0.0312 0.74916,-0.0433 1.5816,-0.0591 0.12084,-0.002 0.79301,-0.045 1.49377,-0.095 1.38298,-0.0985 1.51349,0.007 1.07103,0.86305 -0.11168,0.21616 -0.25869,0.51164 -0.3267,0.65662 -0.20537,0.43784 -0.60846,0.29924 -0.66915,-0.23009 -0.0626,-0.54586 -0.43381,-0.55909 -0.53158,-0.019 -0.0941,0.52001 -0.30653,0.65132 -0.7069,0.43704 -0.27406,-0.14667 -0.45254,-0.14217 -0.70881,0.0179 -0.26112,0.16309 -0.44753,0.16604 -0.78468,0.0124 -0.35051,-0.1597 -0.55335,-0.14602 -0.9783,0.066 -0.87521,0.43659 -1.2416,0.19745 -1.2416,-0.81042 0,-0.90976 0.22855,-1.12428 0.96655,-0.90733 0.19331,0.0568 0.56894,0.0874 0.83477,0.0679 z m 0.77055,62.18296 c -1.22654,0.9648 0.15087,2.71911 1.43096,1.8225 0.57155,-0.40032 0.53397,-1.34549 -0.0725,-1.8225 -0.25469,-0.20033 -0.56034,-0.36423 -0.67926,-0.36423 -0.11891,0 -0.42456,0.1639 -0.67925,0.36423 z"
           style="fill:#333333;fill-opacity:1"
           sodipodi:nodetypes="sssssssssscssscsscscssscccssssscsccccssscscscscsccssssssscscccsssccccscssssssscsscsssscsccccssssssscsscssscsccsscscssssccscccccssssssscssccscscccscccsccsscssccscssssscsssccssscssssssscsscccccsccsccsccssssscscscsccscccccccccccccccsccccccsccsc" />
      </g>
      <g
         transform="matrix(0.23890549,0,0,0.23890549,473.26808,122.73404)"
         id="g6864">
        <g
           transform="matrix(0.66097559,0,0,0.66097559,-978.9878,234.43848)"
           id="g6878">
          <circle
             r="104.81933"
             style="fill:#ffffff;fill-opacity:1;stroke:none;stroke-width:12.23999977;stroke-linecap:round;stroke-miterlimit:4;stroke-dasharray:none;stroke-opacity:1"
             id="path6876"
             transform="scale(1,-1)"
             cx="-826.92212"
             cy="-479.74438" />
          <path
             sodipodi:nodetypes="sssssssss"
             style="fill:#4687f0"
             d="m -838.87638,441.20141 c -17.26434,5.6782 -27.86356,20.45296 -27.82129,38.78141 0.0415,17.99057 10.49347,32.21663 28.01367,38.12906 6.9086,2.3314 19.58064,1.9829 26.54928,-0.73015 9.88121,-3.847 19.14445,-13.08986 23.15428,-23.10336 1.56986,-3.92034 1.83394,-6.0198 1.83394,-14.57982 0,-8.56002 -0.26408,-10.65948 -1.83394,-14.57982 -4.0089,-10.01118 -13.26647,-19.24978 -23.15428,-23.10682 -6.47768,-2.52682 -20.25377,-2.94435 -26.74166,-0.8105 z"
             id="path6872"
             inkscape:connector-curvature="0" />
          <g
             transform="translate(0.15364987,0)"
             id="g6885">
            <path
               inkscape:connector-curvature="0"
               id="path6874"
               d="m -830.1668,373.0595 c -0.26571,0.42993 7.82777,15.14959 17.98552,32.71037 10.15775,17.56078 19.71604,34.24576 21.24067,37.07774 1.52462,2.832 3.62031,6.26121 4.65708,7.62048 3.01241,3.94948 6.70107,12.51216 7.96969,18.50051 4.19611,19.80704 -4.06183,40.23161 -20.78979,51.41995 -3.465,2.31753 -8.55724,4.84644 -11.85321,5.88653 l -5.77843,1.82347 42.79708,0 42.79707,0 1.7764,-3.6 c 3.32304,-6.73438 7.33731,-20.40718 8.69527,-29.61654 6.58141,-44.63357 -16.62855,-89.53976 -56.94488,-110.1759 -9.1244,-4.67038 -19.72412,-8.38136 -28.92521,-10.12678 -8.48026,-1.60868 -22.9953,-2.54236 -23.62726,-1.51983 z m -45.99178,103.03905 c 0.0163,1.32 0.1956,1.76315 0.39843,0.98478 0.20284,-0.77838 0.1895,-1.85838 -0.0296,-2.4 -0.21914,-0.54163 -0.38509,0.0952 -0.36879,1.41522 z m -0.0296,7.6 c 0,1.1 0.18158,1.55 0.40351,1 0.22193,-0.55 0.22193,-1.45 0,-2 -0.22193,-0.55 -0.40351,-0.1 -0.40351,1 z m 43.72368,45.34649 c 0.5775,0.2311 1.2675,0.20268 1.53334,-0.0632 0.26583,-0.26583 -0.20668,-0.45491 -1.05,-0.42017 -0.93196,0.0384 -1.12152,0.22795 -0.48334,0.48333 z m 10.76522,0.008 c 0.77838,0.20284 1.85838,0.1895 2.4,-0.0296 0.54163,-0.21914 -0.0952,-0.38509 -1.41522,-0.36879 -1.32,0.0163 -1.76315,0.1956 -0.98478,0.39843 z"
               style="fill:#fac83e" />
            <path
               sodipodi:nodetypes="ssssscssssssscs"
               inkscape:connector-curvature="0"
               id="path6870"
               d="m -771.9287,528.16135 c -22.43221,0.0345 -44.92584,0.3417 -49.98584,0.68261 -11.24674,0.75773 -18.09638,-0.48012 -27.09207,-4.89601 -8.46085,-4.15334 -17.81021,-13.48964 -21.87993,-21.84937 -5.04847,-10.37022 -6.5103,-21.55984 -4.22559,-32.34482 0.64604,-3.04964 1.06351,-5.65592 0.9277,-5.79173 -0.1358,-0.13581 -9.32068,15.49936 -20.41083,34.74481 -11.09016,19.24546 -20.76178,35.95623 -21.4925,37.13506 -1.29708,2.09249 -1.25659,2.25174 1.7078,6.71644 4.28975,6.46082 15.66157,18.01949 23.66542,24.05427 11.84674,8.93225 28.17781,16.10085 43.85422,19.25001 9.58456,1.92539 30.707,1.92539 40.29156,0 20.92967,-4.20446 38.74853,-13.44643 53.95618,-27.98505 9.22858,-8.82258 19.14842,-24.19274 21.5556,-29.73672 -0.52773,-0.37105 -40.87172,0.0205 -40.87172,0.0205 z"
               style="fill:#d64a3a" />
            <path
               inkscape:connector-curvature="0"
               id="path6868"
               d="m -837.91454,372.58384 c -24.37914,2.75367 -46.88649,13.38758 -64.00325,30.23922 -35.15277,34.60829 -42.76596,87.26765 -18.80985,130.10517 2.86695,5.12658 3.00735,5.249 4.14974,3.61801 2.209,-3.15379 42.01955,-72.41324 45.29023,-78.79261 3.85225,-7.51367 11.91823,-16.38723 18.50419,-20.35682 18.38571,-11.08176 42.3976,-9.27138 57.90697,4.36588 2.33091,2.04956 4.43566,3.52884 4.6772,3.2873 0.24155,-0.24155 -6.49469,-12.43443 -14.96943,-27.09531 -8.47473,-14.66087 -17.68947,-30.60676 -20.4772,-35.43531 -2.78773,-4.82854 -5.0686,-9.23854 -5.0686,-9.8 0,-0.56145 -0.27,-0.97412 -0.6,-0.91703 -0.33,0.057 -3.3,0.40875 -6.6,0.7815 z"
               style="fill:#109c59" />
          </g>
        </g>
      </g>
    </g>
  </g>
</svg>
