<?xml version="1.0" encoding="UTF-8" standalone="no"?>
<!-- Created with Inkscape (http://www.inkscape.org/) -->

<svg
   xmlns:dc="http://purl.org/dc/elements/1.1/"
   xmlns:cc="http://creativecommons.org/ns#"
   xmlns:rdf="http://www.w3.org/1999/02/22-rdf-syntax-ns#"
   xmlns:svg="http://www.w3.org/2000/svg"
   xmlns="http://www.w3.org/2000/svg"
   xmlns:sodipodi="http://sodipodi.sourceforge.net/DTD/sodipodi-0.dtd"
   xmlns:inkscape="http://www.inkscape.org/namespaces/inkscape"
   width="1066.7999mm"
   height="1066.8mm"
   viewBox="0 0 1066.7999 1066.8"
   version="1.1"
   id="svg8"
   inkscape:version="0.92.4 (5da689c313, 2019-01-14)"
   sodipodi:docname="electrobird sticker.svg">
  <defs
     id="defs2" />
  <sodipodi:namedview
     id="base"
     pagecolor="#ffffff"
     bordercolor="#666666"
     borderopacity="1.0"
     inkscape:pageopacity="0.0"
     inkscape:pageshadow="2"
     inkscape:zoom="0.49511191"
     inkscape:cx="1685.5166"
     inkscape:cy="1836.7932"
     inkscape:document-units="mm"
     inkscape:current-layer="layer1"
     showgrid="false"
     inkscape:window-width="2560"
     inkscape:window-height="1377"
     inkscape:window-x="-8"
     inkscape:window-y="-8"
     inkscape:window-maximized="1"
     inkscape:snap-others="false"
     fit-margin-top="0"
     fit-margin-left="0"
     fit-margin-right="0"
     fit-margin-bottom="0" />
  <metadata
     id="metadata5">
    <rdf:RDF>
      <cc:Work
         rdf:about="">
        <dc:format>image/svg+xml</dc:format>
        <dc:type
           rdf:resource="http://purl.org/dc/dcmitype/StillImage" />
        <dc:title></dc:title>
      </cc:Work>
    </rdf:RDF>
  </metadata>
  <g
     inkscape:label="Layer 1"
     inkscape:groupmode="layer"
     id="layer1"
     transform="translate(1536.2317,413.30035)">
    <path
       inkscape:connector-curvature="0"
       style="opacity:1;fill:#ff7f2a;fill-opacity:1;stroke:none;stroke-width:0.86575121;stroke-linecap:butt;stroke-linejoin:bevel;stroke-miterlimit:4;stroke-dasharray:none;stroke-opacity:1;paint-order:fill markers stroke"
       d="m -1006.8199,-300.22732 c 110.41942,2e-4 216.31628,43.86423 294.3946,121.94254 78.07832,78.07832 121.94236,183.9751842 121.94256,294.3946 2.5e-4,110.41971 -43.86359,216.31701 -121.94196,294.3957 -78.07837,78.07868 -183.97549,121.94294 -294.3952,121.94314 -110.42,2.4e-4 -216.3175,-43.86383 -294.3963,-121.94256 -78.0787,-78.07874 -121.9427,-183.97629 -121.9425,-294.39628 2e-4,-110.4196999 43.8645,-216.31681 121.9431,-294.39518 78.0787,-78.07836 183.976,-121.9422 294.3957,-121.94196 z"
       id="rect1582"
       sodipodi:nodetypes="sssssssss" />
    <path
       style="color:#000000;font-style:normal;font-variant:normal;font-weight:normal;font-stretch:normal;font-size:medium;line-height:normal;font-family:sans-serif;font-variant-ligatures:normal;font-variant-position:normal;font-variant-caps:normal;font-variant-numeric:normal;font-variant-alternates:normal;font-feature-settings:normal;text-indent:0;text-align:start;text-decoration:none;text-decoration-line:none;text-decoration-style:solid;text-decoration-color:#000000;letter-spacing:normal;word-spacing:normal;text-transform:none;writing-mode:lr-tb;direction:ltr;text-orientation:mixed;dominant-baseline:auto;baseline-shift:baseline;text-anchor:start;white-space:normal;shape-padding:0;clip-rule:nonzero;display:inline;overflow:visible;visibility:visible;opacity:1;isolation:auto;mix-blend-mode:normal;color-interpolation:sRGB;color-interpolation-filters:linearRGB;solid-color:#000000;solid-opacity:1;vector-effect:none;fill:#ffffff;fill-opacity:1;fill-rule:nonzero;stroke:none;stroke-width:35.02110672;stroke-linecap:butt;stroke-linejoin:miter;stroke-miterlimit:4;stroke-dasharray:none;stroke-dashoffset:0;stroke-opacity:1;color-rendering:auto;image-rendering:auto;shape-rendering:auto;text-rendering:auto;enable-background:accumulate"
       d="M 1978.2539 928.66211 C 1976.2613 928.65077 1974.2742 928.6545 1972.293 928.66406 C 1582.3996 930.88869 1418.2657 1351.0263 1409.6816 1366.9688 C 1400.7483 1383.5588 1224.637 1581.3654 1134.0293 1552.0137 C 1043.4212 1522.6618 1007.6895 1552.0137 1007.6895 1552.0137 C 1033.7021 1594.146 1052.5417 1617.9098 1068.709 1630.1328 C 918.40812 1655.0883 858.99805 1709.0176 858.99805 1709.0176 C 891.66791 1709.0176 915.00195 1730.0195 915.00195 1730.0195 C 842.66142 1781.3579 777.32227 1779.0254 777.32227 1779.0254 C 772.6553 1790.6932 809.99219 1811.6953 809.99219 1811.6953 C 829.40951 1836.5774 795.81108 1851.7457 779.65625 1846.6973 C 805.32529 1923.7048 1069.0176 1893.3691 1069.0176 1893.3691 C 1084.4388 1872.9103 1067.5901 1852.3633 1062.0762 1852.3633 C 938.1734 1866.0994 853.0436 1859.104 849.73047 1830.0117 C 868.8443 1827.6191 890.71039 1815.5629 888.14258 1815.1777 C 877.6234 1819.0966 860.56055 1802.0352 860.56055 1802.0352 C 945.33308 1758.308 1045.1641 1775.8398 1045.1641 1775.8398 C 1041.2451 1790.2781 1056.0957 1805.541 1056.0957 1805.541 C 1061.0461 1791.9277 1071.9766 1791.3105 1071.9766 1791.3105 C 1075.2765 1797.0858 1080.6855 1807.0273 1080.6855 1807.0273 C 1139.0244 1734.687 1010.6777 1718.3516 1010.6777 1718.3516 C 1174.027 1664.6796 1185.6953 1695.0156 1185.6953 1695.0156 C 1217.8035 1675.751 1168.7987 1629.1854 1160.3828 1621.5293 C 1188.1642 1612.002 1225.1865 1604.145 1280.7891 1611.9922 C 1251.4373 1577.5358 1282.0645 1566.0508 1282.0645 1566.0508 C 1468.385 1497.1377 1468.2177 1335.4065 1556.4395 1216.3809 C 1911.108 737.87198 2231.8109 1066.6815 2234.084 1130.877 C 2236.3571 1195.0721 2272.0619 1266.6922 2292.7891 1284.0176 C 2280.4654 1238.7059 2309.2266 1247.6522 2311.9316 1255.9414 C 2317.3482 1272.5399 2273.6465 1350.3789 2273.6465 1350.3789 C 2278.8926 1352.1965 2296.6172 1352.9316 2296.6172 1352.9316 C 2300.6071 1372.8992 2306.8262 1381.0059 2306.8262 1381.0059 C 2328.4573 1261.996 2408.8989 1251.9815 2333.625 1156.4004 C 2322.1396 1137.2579 2331.3606 1092.9888 2364.2539 1073.4512 C 2308.9432 1072.1247 2294.3056 1080.985 2277.4746 1107.9062 C 2246.8467 973.90901 2020.9648 930.51953 2020.9648 930.51953 C 2006.4401 929.34183 1992.2038 928.73475 1978.2539 928.66211 z M 2437.0879 1237.3906 C 2406.7626 1237.0337 2371.1939 1253.3629 2348.418 1296.7168 C 2355.6759 1294.4295 2362.6765 1294.1956 2368.9844 1294.9375 C 2355 1329.5805 2344.7276 1383.0931 2342.5605 1464.5977 C 2342.5605 1464.5977 2334.2659 1481.1875 2325.9707 1481.1875 C 2325.9707 1481.1875 2352.1314 1553.9287 2410.1973 1485.0156 C 2410.1973 1485.0156 2338.0939 1425.0359 2477.834 1250.2012 C 2467.4175 1242.3422 2452.9726 1237.5776 2437.0879 1237.3906 z M 1888.9258 1406.7461 C 1870.7791 1406.779 1852.9448 1413.0485 1837.0156 1427.8672 C 1807.3233 1465.1582 1907.8579 1616.8448 1995.3555 1581.6445 C 2071.0874 1551.1778 1976.3599 1406.585 1888.9258 1406.7461 z M 2286.0312 1515.8105 C 2261.0659 1516.0329 2235.408 1521.4704 2210.0566 1531.7969 C 2210.0566 1531.7969 2193.7651 1557.8611 2217.2227 1583.2734 C 2218.1734 1572.3339 2463.8054 1445.5193 2444.6309 1901.2539 C 2444.6309 1901.2539 2212.0113 1639.9614 2146.8516 1732.4883 C 2282.2057 1759.8933 2311.6694 1852.367 2385.3359 1949.4707 C 2384.0707 1954.9185 2251.6393 2030.6065 2163.1406 1856.9453 C 2163.3013 1854.8221 2105.1525 1826.9838 2108.4062 1883.6602 C 2113.1356 1885.9176 2125.8147 1907.6733 2150.873 1932.6211 C 2149.6699 1932.5271 2148.4519 1932.4765 2147.2188 1932.4785 C 2132.6995 1932.5023 2116.2517 1939.3435 2101.5117 1956.6367 C 1987.5362 2090.3563 2049.5156 2124.5918 2049.5156 2124.5918 C 2028.5358 2090.854 2057.8088 2043.2885 2078.1875 2016.8184 C 2045.0346 2075.1841 2077.5798 2193.5684 2202.2031 2184.8398 C 2143.6045 2382.094 1941.8125 2424.5996 1941.8125 2424.5996 C 1915.8146 2543.0344 2129.5762 2473.291 2129.5762 2473.291 C 1995.8723 2547.9833 2029.709 2592.1406 2029.709 2592.1406 C 2005.6005 2594.5515 1993.8145 2617.7832 1993.8145 2617.7832 C 2027.3491 2646.3581 2000.5433 2706.8257 1955.4297 2702.7344 C 1969.0477 2757.2061 2069.3281 2727.084 2069.3281 2727.084 C 2041.6796 2770.0011 2003.3078 2768.9192 1996.3047 2761.916 C 1989.3016 2754.9129 1919.8537 2708.8116 1954.8691 2833.7012 C 1989.8827 2958.5826 1872.5975 3152.9005 1872.582 3152.9258 C 1919.2686 3065.3868 1913.4375 2953.9219 1913.4375 2953.9219 C 1922.1913 2773.0071 1846.3242 2878.6348 1846.3242 2878.6348 C 1889.5102 2940.496 1791.4609 3020.4473 1791.4609 3020.4473 C 1802.5497 2995.3526 1796.7129 2960.9219 1796.7129 2960.9219 C 1741.4596 3055.195 1588.2167 3225.153 1487.4727 3222.0312 C 1528.0973 3310.4932 1602.9801 3268.3368 1667.8496 3201.7324 C 1693.3928 3228.9683 1740.4792 3286.596 1737.8887 3339.0566 C 1737.8887 3339.0566 1742.0077 3325.336 1746.8047 3306.0977 C 1756.7146 3344.0241 1762.6131 3394.5367 1731.4434 3413.0449 C 1720.676 3419.438 1708.8387 3432.646 1696.873 3449.8555 C 1574.4142 3441.3334 1433.3411 3424.5431 1267.4277 3391.9531 A 1573.5606 1573.5606 0 0 0 1383.4727 3448.0098 C 1491.6411 3465.6709 1588.5647 3476.5957 1676.127 3483.2676 C 1667.23 3499.0448 1658.5778 3516.1827 1650.5625 3533.4805 A 1573.5606 1573.5606 0 0 0 1749.9121 3552.4297 C 1757.4543 3529.8538 1768.7041 3507.819 1785.3848 3489.7754 C 1791.4809 3490.0401 1797.5741 3490.302 1803.5723 3490.5312 C 1802.9585 3506.5419 1802.2403 3532.0111 1802.416 3560.3633 A 1573.5606 1573.5606 0 0 0 1864.291 3567.6465 C 1861.4244 3546.3769 1862.4059 3521.4042 1869.8613 3492.4551 C 1894.9318 3492.9681 1919.1573 3493.241 1942.5195 3493.3457 C 1947.9391 3493.37 1953.2723 3493.3815 1958.6035 3493.3926 C 1973.6946 3509.6921 1984.6772 3534.8575 1984.0371 3573.6387 A 1573.5606 1573.5606 0 0 0 2000.9258 3574.4844 A 1573.5606 1573.5606 0 0 0 2056.7656 3572.5078 C 2057.7443 3548.5661 2055.9625 3520.2567 2046.9883 3493.2188 C 2187.0746 3492.681 2296.0122 3492.8889 2398.5449 3522.373 A 1573.5606 1573.5606 0 0 0 2458.4688 3504.9746 C 2330.4751 3455.2832 2201.0088 3457.2446 2030.2305 3458.1758 C 2009.7525 3427.0778 1974.8034 3402.0082 1916.6094 3394.2012 C 1916.6094 3394.2012 1853.599 3375.6872 1837.7949 3274.8086 C 1841.7498 3277.6676 1845.6793 3280.2145 1849.5352 3282.3477 C 1849.5352 3282.3477 1841.847 3241.6019 1854.2695 3195.959 C 1889.7155 3189.1802 1938.3926 3114.1816 1938.3926 3114.1816 C 2018.7684 3189.3908 2092.2539 3438.5586 2092.2539 3438.5586 C 2131.2937 3401.2412 2121.9316 3311.6113 2121.9316 3311.6113 C 2142.3663 3281.6605 2172.325 3293.2562 2207.9512 3290.5039 C 2147.3231 3172.9759 2148.6872 3047.1567 2156.4395 3030.6895 C 2294.3052 3130.7269 2384.9941 3073.3125 2384.9941 3073.3125 C 2270.1076 3058.6979 2222.6074 2999.0215 2222.6074 2999.0215 C 2460.906 3055.044 2454.4102 2996.5898 2454.4102 2996.5898 C 2378.014 2994.7428 2376.9996 2944.0434 2320.2344 2913.8418 C 2264.3382 2887.9869 2194.2268 2801.9578 2175.9258 2785.4863 C 2161.3331 2772.3524 2151.9727 2760.7227 2151.9727 2760.7227 C 2117.6179 2716.6988 2244.3563 2736.4737 2214.2422 2641.5859 C 2178.4919 2685.3723 2140.0137 2660.9733 2140.0137 2658.6113 C 2190.3775 2631.2932 2290.5202 2549.7192 2229.5625 2512.2031 C 2198.5091 2544.7658 2177.7112 2546.1707 2144.7812 2530.248 C 2230.6224 2475.1971 2264.5408 2388.6689 2238.4961 2346.166 C 2171.1469 2451.0645 2074.3809 2427.1895 2074.3809 2427.1895 C 2134.8135 2404.7089 2322.0146 2208.2535 2247.457 2126.6543 C 2169.6052 2171.1984 2086.4834 2073.6954 2159.9805 2005.3535 C 2181.8849 1992.5907 2189.031 1976.6075 2186.9121 1962.8633 C 2233.3213 1995.3237 2303.7739 2022.2092 2408.1426 2007.4629 C 2408.1426 2007.4629 2455.056 2002.2512 2473.3008 2037.4375 C 2473.3008 2037.4375 2488.9403 2029.6178 2481.1211 1961.8516 C 2522.433 1648.9464 2413.237 1514.6779 2286.0312 1515.8105 z M 2113.3848 1535.8691 C 2104.7561 1535.5007 2098.3008 1542.139 2095.7129 1559.877 C 2092.9484 1607.7949 2206.5151 1620.1909 2208.5977 1621.1562 C 2192.9638 1613.0498 2141.5716 1537.0727 2113.3848 1535.8691 z M 2058.6074 1605.3672 C 2058.1191 1605.3502 2057.6332 1605.3531 2057.1484 1605.377 C 2049.2395 1605.7704 2041.819 1611.7133 2035.3555 1625.7637 C 2004.7372 1692.3208 2108.977 1677.6517 2144.5527 1702.709 C 2127.004 1687.9486 2089.3747 1606.4382 2058.6074 1605.3672 z M 2039.9766 1752.7285 C 2026.4174 1752.5884 2014.4294 1757.5323 2007.7109 1765.3711 C 2000.9142 1821.8404 2091.324 1804.5687 2109.0742 1824.3477 C 2097.4716 1771.7929 2065.862 1752.9959 2039.9766 1752.7285 z M 793.93945 1898.5645 C 772.89996 1921.5166 766.41502 1969.1183 765.5 2013.582 C 763.90806 2007.0444 762.40334 2001.1394 760.98828 1996.0449 C 752.60227 1965.8545 739.99615 1956.1586 727.28711 1956.125 C 704.63149 1956.0649 681.64648 1986.7109 681.64648 1986.7109 C 700.31508 1996.0452 697.98047 2024.0488 697.98047 2024.0488 C 604.63823 2094.0557 744.65234 2427.7539 744.65234 2427.7539 C 742.31886 2451.0895 686.31445 2434.7559 686.31445 2434.7559 C 697.92063 2560.0587 831.70725 2733.4821 983.54297 2891.6172 C 975.0961 2908.7163 975.40738 2928.7532 1009.1465 2935.8301 C 994.90823 2944.9346 998.57363 2967.1277 1011.8965 2970.1504 C 950.68136 3069.1371 953.05137 3139.6915 992.51758 3181.4844 C 989.19439 3188.1244 986.08578 3194.5108 983.13086 3200.6504 A 1573.5606 1573.5606 0 0 0 1043.8652 3247.5195 C 1049.6287 3237.0647 1056.0997 3226.7376 1062.8496 3216.832 C 1136.7806 3223.1255 1221.6851 3152.3937 1241.209 3135.1309 C 1341.0346 3221.6569 1419.4966 3281.5569 1437.6875 3291.1113 C 1477.5623 3074.4171 1030.1051 3005.651 796.4668 2582.9277 C 873.06875 2658.4382 929.00391 2623.7734 929.00391 2623.7734 C 755.23219 2559.9944 721.31641 2119.7246 721.31641 2119.7246 C 721.31641 2119.7246 770.32265 2318.0778 856.66406 2381.084 C 943.00624 2444.0902 924.33594 2353.0801 924.33594 2353.0801 C 853.69317 2370.7408 809.81572 2205.3943 782.52148 2087.4629 C 797.05868 2042.495 803.01563 1964.5684 803.01562 1964.5684 C 897.895 2186.5038 968.02344 2124.625 968.02344 2124.625 C 890.4698 2127.1001 793.93945 1898.5645 793.93945 1898.5645 z M 2096.752 2794.0625 C 2103.9863 2793.9854 2108.5316 2794.3496 2108.5312 2794.3496 C 2107.7061 2837.2667 2293.4043 2962.7148 2293.4043 2962.7148 C 2238.9325 2978.3961 2181.9805 2937.957 2181.9805 2937.957 C 2141.3535 2876.8868 2077.9922 2952.8105 2077.9922 2952.8105 C 2118.0977 3028.0469 2123.1176 3074.2207 2116.7812 3202.8828 C 2101.9255 3188.8523 2072.2109 3193.8086 2072.2109 3193.8086 C 2085.4162 3212.7912 2070.5664 3243.3242 2070.5664 3243.3242 C 2058.1865 3181.4245 1959.9668 3061.752 1959.9668 3061.752 C 2011.9625 3017.1841 2008.666 2828.1875 2008.666 2828.1875 C 2029.0927 2798.4756 2075.0484 2794.2947 2096.752 2794.0625 z M 1064.2988 2972.8281 C 1111.1578 3018.4419 1157.9748 3061.6203 1201.9258 3100.6562 C 1168.449 3136.215 1135.2407 3155.1344 1106.7344 3160.5391 C 1120.3308 3144.9704 1130.0332 3135.2578 1130.0332 3135.2578 C 1124.7165 3130.8273 1114.084 3138.8008 1114.084 3138.8008 C 1114.084 3130.8259 1128.2617 3114.877 1128.2617 3114.877 C 1114.9703 3108.6741 1098.1348 3137.0293 1098.1348 3137.0293 C 1087.5014 3126.3962 1105.2227 3097.1563 1105.2227 3097.1562 C 1085.729 3086.5234 1056.4883 3122.8516 1056.4883 3122.8516 C 1047.6276 3109.5602 1052.9434 3088.2949 1052.9434 3088.2949 C 1046.0635 3092.256 1037.4103 3103.0787 1028.2109 3117.248 C 1017.4306 3083.4513 1025.8735 3032.7748 1064.2988 2972.8281 z M 1853.4199 3020.6016 C 1866.8656 3035.2694 1857.7742 3117.4063 1851.3535 3163.9746 C 1840.8426 3173.8334 1830.0195 3192.4121 1828.2695 3227.4102 C 1828.2695 3227.4102 1809.1899 3191.0553 1799.6035 3154.043 C 1822.5022 3125.1591 1853.4199 3020.6016 1853.4199 3020.6016 z M 1773.0332 3064.2266 C 1775.081 3073.7561 1775.7853 3084.175 1775.5938 3094.793 C 1768.8031 3094.2237 1761.0973 3094.0179 1753.4668 3094.7207 C 1761.0652 3083.4538 1767.7082 3073.0578 1773.0332 3064.2266 z M 1723.0449 3137.1133 C 1726.8161 3166.9712 1731.6008 3215.906 1728.1426 3252.2207 C 1728.1426 3252.2207 1716.8081 3202.7545 1679.9766 3188.875 C 1695.2889 3172.1548 1709.8479 3154.4104 1723.0449 3137.1133 z "
       transform="matrix(0.26458333,0,0,0.26458333,-1536.2317,-413.30035)"
       id="path1072" />
  </g>
</svg>
