<?xml version="1.0" encoding="UTF-8" standalone="no"?>
<!-- Created with Inkscape (http://www.inkscape.org/) -->

<svg
   xmlns:dc="http://purl.org/dc/elements/1.1/"
   xmlns:cc="http://creativecommons.org/ns#"
   xmlns:rdf="http://www.w3.org/1999/02/22-rdf-syntax-ns#"
   xmlns:svg="http://www.w3.org/2000/svg"
   xmlns="http://www.w3.org/2000/svg"
   xmlns:sodipodi="http://sodipodi.sourceforge.net/DTD/sodipodi-0.dtd"
   xmlns:inkscape="http://www.inkscape.org/namespaces/inkscape"
   width="445.14301mm"
   height="225.77777mm"
   viewBox="0 0 1577.2784 799.99997"
   id="svg5203"
   version="1.1"
   inkscape:version="0.91 r13725"
   sodipodi:docname="finch.svg">
  <defs
     id="defs5205" />
  <sodipodi:namedview
     id="base"
     pagecolor="#ffffff"
     bordercolor="#666666"
     borderopacity="1.0"
     inkscape:pageopacity="0.0"
     inkscape:pageshadow="2"
     inkscape:zoom="0.175"
     inkscape:cx="-699.31547"
     inkscape:cy="-102.91558"
     inkscape:document-units="px"
     inkscape:current-layer="layer1"
     showgrid="false"
     inkscape:window-width="1920"
     inkscape:window-height="1017"
     inkscape:window-x="-8"
     inkscape:window-y="-8"
     inkscape:window-maximized="1"
     fit-margin-top="0"
     fit-margin-left="0"
     fit-margin-right="0"
     fit-margin-bottom="0" />
  <metadata
     id="metadata5208">
    <rdf:RDF>
      <cc:Work
         rdf:about="">
        <dc:format>image/svg+xml</dc:format>
        <dc:type
           rdf:resource="http://purl.org/dc/dcmitype/StillImage" />
        <dc:title></dc:title>
      </cc:Work>
    </rdf:RDF>
  </metadata>
  <g
     inkscape:label="Layer 1"
     inkscape:groupmode="layer"
     id="layer1"
     transform="translate(21.765751,204.3464)">
    <g
       id="g6701"
       transform="matrix(1.8610367,0,0,-1.8610367,779.7291,1608.5344)">
      <path
         style="fill:#e6e6e6;fill-opacity:1;stroke:none"
         d="m -141.54444,544.94699 c -12.84793,0.7255 -22.39996,1.44463 -32.4,2.43925 -4.4,0.43764 -11.78,1.12946 -16.4,1.53739 -10.22202,0.90258 -26.16115,2.89696 -31.6,3.95395 -2.2,0.42756 -9.04,1.36666 -15.2,2.0869 -6.16,0.72024 -11.38,1.41586 -11.6,1.54581 -0.78331,0.46269 -56.69507,8.298 -71.53595,10.02482 -11.07601,1.28876 -19.13239,2.40499 -23.66405,3.27871 -10.01492,1.93089 -21.9669,4.89348 -24.69017,6.12006 -3.50633,1.57926 -6.50983,4.09155 -6.50983,5.44517 0,1.64077 4.04171,7.2843 5.94706,8.30401 0.98012,0.52454 2.41119,2.01879 3.18016,3.32055 0.76896,1.30176 2.81277,3.25986 4.54178,4.35134 1.72902,1.09148 4.13082,3.09439 5.33733,4.4509 1.20652,1.35652 3.09367,2.9405 4.19367,3.51996 1.1,0.57946 3.66188,2.61327 5.69306,4.51958 7.57361,7.10796 13.23065,11.69253 16.4618,13.34095 3.9808,2.03085 11.65337,4.19266 24.62586,6.93854 5.2694,1.11538 9.90463,2.35187 10.30053,2.74776 0.42641,0.42641 -2.01137,2.08993 -5.98072,4.08119 -28.05654,14.07485 -46.76091,37.61091 -54.92619,69.11464 -1.14652,4.42361 -2.39276,8.25528 -2.76939,8.51481 -0.37663,0.25954 -11.37682,0.91878 -24.44487,1.46498 -26.94162,1.12606 -33.34492,1.81069 -37.69575,4.03031 -3.60355,1.8384 -7.05034,5.68484 -7.79111,8.69448 -0.28948,1.17609 -1.01348,2.89143 -1.60891,3.81186 -1.38268,2.13744 -0.9549,3.33281 8.13299,22.72648 3.81441,8.14001 10.81888,23.26001 15.56548,33.60001 4.74661,10.34 10.49334,22.21451 12.77052,26.3878 l 4.14033,7.5878 -1.43682,3.18563 c -2.05839,4.56377 -2.04151,17.58189 0.0269,20.74123 l 1.46371,2.23571 8.8694,-0.26909 8.8694,-0.26908 11.64648,13.6 c 43.47714,50.76972 62.86198,68.309 91.70847,82.97719 37.45453,19.04532 72.22373,26.56699 131.97883,28.55119 39.445087,1.30979 67.309351,0.006 94.799999,-4.43383 6.82,-1.10159 17.44,-2.68622 23.6,-3.5214 34.144056,-4.62928 55.585416,-9.57912 88.8,-20.49993 52.352411,-17.21322 90.379271,-31.05091 135.961371,-49.4753 62.79139,-25.38041 91.8057,-34.26478 126.98215,-38.88276 10.58582,-1.3897 18.33283,-1.77132 40.94,-2.01672 31.0972,-0.33755 31.7244,-0.44039 35.36536,-5.79848 1.07312,-1.57926 1.95112,-3.2926 1.95112,-3.80741 0,-0.51482 1.08,-1.31252 2.4,-1.77268 1.32,-0.46015 2.4,-1.16135 2.4,-1.55823 0,-1.71076 -5.46912,-7.8177 -18.09832,-20.20892 -13.37728,-13.12525 -21.50872,-19.93847 -33.10168,-27.73552 -8.8444,-5.94849 -17.23545,-13.69079 -21.12917,-19.49566 -4.487,-6.68935 -27.48324,-46.26869 -46.10567,-79.35348 -8.12084,-14.42757 -16.82444,-28.96929 -19.34134,-32.31495 -2.51689,-3.34565 -4.40188,-6.36501 -4.18885,-6.70969 0.59045,-0.95538 3.79085,-1.80295 27.16503,-7.19418 22.67564,-5.23012 27.99992,-7.02843 28.86334,-9.74879 0.60165,-1.89566 -1.13934,-3.55222 -6.86334,-6.53054 -3.02583,-1.5744 -19.50412,-7.07146 -26.4,-8.80688 -1.1,-0.27682 -6.68,-1.71073 -12.4,-3.18647 -5.72,-1.47573 -13.46,-3.26665 -17.2,-3.97983 -31.57645,-6.02127 -48.3954,-9.93589 -60.02633,-13.97114 -12.30347,-4.26858 -24.20372,-8.65541 -37.17367,-13.70347 -18.25676,-7.10573 -32.13902,-11.55675 -55.2,-17.69858 -5.28,-1.40621 -14.82,-3.95659 -21.200001,-5.66748 -6.38,-1.7109 -13.49,-3.45843 -15.8,-3.8834 -38.251904,-7.03718 -77.8854958,-12.86323 -100.2,-14.72916 -29.12488,-2.43542 -93.386839,-3.51068 -119.999999,-2.00791 z m -57.57679,99.14996 c 25.64621,2.90935 43.54807,5.77811 45.06953,7.22234 0.74981,0.71176 -8.83853,3.95877 -24.94367,8.44694 -5.58199,1.55559 -10.77041,3.01114 -11.52984,3.23456 -0.92378,0.27177 -3.17431,-1.27286 -6.8,-4.66712 -2.98057,-2.79034 -8.38923,-7.32804 -12.01923,-10.08376 -3.63,-2.75573 -6.6,-5.17424 -6.6,-5.37447 0,-0.59777 2.18406,-0.43918 16.82321,1.22151 z m 399.59149,24.03823 c 0.43899,0.7103 -8.96466,18.29822 -10.84927,20.29171 -0.78434,0.82965 -4.57532,-0.55575 -8.96543,-3.2764 -2.96177,-1.83547 -3,-1.92458 -3,-6.99199 0,-3.40589 0.38842,-5.52124 1.15448,-6.2873 0.63496,-0.63497 4.68496,-1.76095 9,-2.5022 4.31503,-0.74124 8.38552,-1.46568 9.04552,-1.60985 2.35695,-0.51489 3.11266,-0.43628 3.6147,0.37603 z m 135.29088,138.44146 c 3.189,1.97092 3.45444,3.13476 0.71496,3.13476 -1.39026,0 -2.34887,-0.71437 -3.22054,-2.4 -1.46938,-2.84148 -1.08538,-2.95408 2.50558,-0.73476 z"
         id="path6707"
         inkscape:connector-curvature="0"
         sodipodi:nodetypes="ssssssssssssssssssssscssscssscsscccssscsssssssssssssscssssssssssssssssssssssssssscsssss" />
      <path
         style="fill:#9771b0;fill-opacity:1"
         d="m -113.94444,550.20354 c -5.72,0.60136 -14.73533,1.63665 -20.03406,2.30063 -5.29873,0.66397 -11.4853,1.20722 -13.74792,1.20722 -2.26263,0 -5.07449,0.36523 -6.24859,0.81163 -2.44876,0.93101 -14.03383,2.74388 -27.96943,4.37676 -23.96772,2.80836 -38.26558,4.41669 -46.4,5.21942 -4.84,0.47763 -11.68,1.18834 -15.2,1.57934 -3.52,0.39101 -10,1.11212 -14.4,1.60247 -9.03106,1.00645 -62.37275,7.68193 -69.34822,8.67864 -5.5246,0.7894 -6.70704,1.68242 -7.34448,5.54685 -0.27081,1.64169 -1.03573,4.01605 -1.69984,5.27634 -1.8757,3.55959 -1.47516,5.18145 2.19254,8.87811 4.23681,4.27026 6.08224,6.56659 10.95405,13.63044 2.12421,3.08 4.71355,6.35019 5.75408,7.26708 4.49959,3.96492 13.12557,7.42707 29.79852,11.96001 2.65544,0.72195 4.39868,1.57898 4,1.96652 -0.38866,0.37779 -3.51022,1.79546 -6.93681,3.15035 -20.42219,8.0751 -35.20394,19.23356 -46.70407,35.25604 -8.81726,12.28457 -12.46136,20.14553 -17.42173,37.58165 -2.59324,9.11545 -2.63165,9.18547 -5.32806,9.71135 -1.49379,0.29133 -12.97598,0.96424 -25.51598,1.49533 -25.05092,1.06098 -29.43004,1.55387 -34.76255,3.91269 -3.50607,1.5509 -7.46893,6.25464 -6.21792,7.38039 0.31926,0.28729 6.34047,0.2215 13.38047,-0.1462 25.96226,-1.35601 55.37968,-2.42996 61.6,-2.24885 3.52,0.10248 9.64,-0.40733 13.6,-1.13292 3.96,-0.72559 12.24,-1.88138 18.4,-2.56842 6.16,-0.68703 14.98,-1.93326 19.6,-2.76938 4.62,-0.83612 11.28,-1.75532 14.8,-2.04265 3.52,-0.28734 10.9,-1.17971 16.4,-1.98304 17.98018,-2.62621 56.57853,-8.75571 57.70209,-9.16323 0.60385,-0.21902 6.67791,-1.32264 13.49791,-2.45248 6.82,-1.12984 17.62,-3.10497 24,-4.38917 11.33161,-2.2809 30.77182,-5.38354 45.2,-7.21388 11.24046,-1.42595 10.13353,0.58411 10.35261,-18.79925 0.21417,-18.94938 1.26177,-26.2103 5.69469,-39.47048 11.65945,-34.8768 38.55474,-57.03815 69.1527,-56.98088 5.430496,0.0102 9.955456,0.48039 12.8,1.33015 2.42,0.72294 6.56,1.59005 9.2,1.92692 12.275736,1.56642 22.902352,6.75678 37.281272,18.2093 15.100088,12.02693 29.424424,32.94454 35.416256,51.71787 3.4736,10.8833 6.884576,25.27633 6.895224,29.09518 0.01464,5.25624 0.881552,5.50398 21.288904,6.08364 10.075088,0.28618 28.398344,0.54546 40.718344,0.57618 27.58456,0.0688 44.69014,1.50692 53.2,4.47274 17.64848,6.1508 33.9824,14.81498 78,41.37438 13.01238,7.85142 60.51122,39.52809 75.2,50.15039 7.48,5.40921 21.88,15.8218 32,23.13909 10.12,7.31729 24.16,17.39974 31.2,22.40545 7.04,5.0057 14.15104,10.29308 15.80232,11.74971 1.65128,1.45663 3.45128,2.64351 4,2.63751 1.99512,-0.0218 4.59768,-0.99358 4.59768,-1.71666 0,-1.50675 -7.74448,-8.95098 -14.76456,-14.19219 -10.89696,-8.13566 -27.87184,-19.98493 -44.83544,-31.29715 -15.32126,-10.21705 -18.56989,-12.78308 -16.18354,-12.78308 0.6668,0 1.43423,-0.57819 1.7054,-1.28486 0.35871,-0.93476 1.0623,-1.14198 2.58224,-0.7605 1.95808,0.49144 2.0553,0.38383 1.54928,-1.71515 -0.29696,-1.23172 -2.28544,-5.11949 -4.41886,-8.63949 -7.75021,-12.7873 -23.25666,-39.74549 -36.81306,-64.00001 -22.47298,-40.20768 -22.81439,-40.74902 -30.70252,-48.68308 -5.26743,-5.29809 -6.80418,-7.29535 -6,-7.79797 0.59458,-0.37163 5.35544,-2.35014 10.57967,-4.3967 10.07692,-3.94757 14.73613,-7.11425 13.85309,-9.4154 -0.28348,-0.73873 -1.15357,-1.56969 -1.93356,-1.84659 -0.77997,-0.2769 -1.95814,-0.95993 -2.61814,-1.51785 -2.38282,-2.01425 -11.8625,-4.97004 -25.2,-7.85741 -29.31924,-6.34719 -36.20482,-7.90572 -41.6,-9.41603 -3.08,-0.86221 -9.56,-2.57637 -14.4,-3.80926 -16.10492,-4.10239 -26.79237,-7.47467 -73.2,-23.09729 -25.28582,-8.5122 -46.788416,-15.24318 -55.2,-17.27932 -17.412168,-4.21487 -35.976344,-7.71243 -53.2,-10.02309 -16.062144,-2.15484 -30.064904,-4.25546 -35.2,-5.28054 -8.037384,-1.60443 -30.459608,-4.26403 -47.2,-5.5986 -17.598112,-1.40294 -41.250832,-1.35526 -55.2,0.11128 z m -79.2,88.33318 c 37.45941,1.42811 48.17553,2.31704 49.26947,4.08707 0.6262,1.01322 0.0555,6.33394 -0.77366,7.21356 -1.31867,1.39884 -43.53127,14.31596 -46.56562,14.24916 -0.62161,-0.0137 -4.37019,-2.92462 -8.33019,-6.46875 -3.96,-3.54413 -11.79,-9.48335 -17.4,-13.19827 -5.61,-3.71493 -10.2,-6.97574 -10.2,-7.24627 0,-0.27053 2.79,-0.25969 6.2,0.0241 3.41,0.28377 15.92,0.88651 27.8,1.33942 z m 311.94285,18.2822 c 0.45302,0.73301 -5.40402,2.49247 -8.29711,2.49247 -0.92602,0 -1.64574,-0.52227 -1.64574,-1.19424 0,-0.88097 0.83995,-1.16132 3.2021,-1.06877 1.76116,0.069 3.44116,-0.11358 3.73334,-0.40575 0.75811,-0.75812 2.49276,-0.65643 3.00741,0.17629 z m 32.05715,0.22667 c 19.33582,-0.68344 54.6555,0.20131 55.85329,1.39909 1.03362,1.03363 -14.7277,30.22942 -17.11623,31.70562 -1.39572,0.8626 -11.42592,-4.61398 -12.52527,-6.83891 -0.56809,-1.14974 -0.99842,-5.23098 -1.01225,-9.6 -0.0132,-4.18 -0.28852,-7.9961 -0.61179,-8.48024 -2.50447,-3.75078 -17.67483,-4.43949 -30.38775,-1.37956 -1.41814,0.34135 -1.8,0.0885 -1.8,-1.19193 0,-0.89386 -1.08542,-2.71061 -2.41206,-4.03724 l -2.41205,-2.41206 5.41205,0.44589 c 2.97664,0.24524 6.13206,0.42044 7.01206,0.38934 z m -322,27.07805 c 1.06666,0.70023 1.06666,0.87528 0,1.57551 -0.66,0.43326 -2.505,0.79326 -4.1,0.8 -1.595,0.006 -4.025,0.23724 -5.4,0.51224 -1.93514,0.38703 -2.5,0.22134 -2.5,-0.73333 0,-2.34975 9.18927,-3.99954 12,-2.15442 z m 507.33701,89.31175 c 1.99896,1.80903 1.83856,2.76668 -0.33701,2.01203 -0.99,-0.34341 -4.05,-0.56244 -6.8,-0.48674 -2.75,0.0757 -5,-0.10243 -5,-0.39583 0,-2.63539 9.49646,-3.51913 12.13701,-1.12946 z m -582.54886,12.95285 c -1.53348,0.81226 -4.22815,1.7001 -5.98815,1.97299 -3.96981,0.6155 -6.26706,3.11888 -8.04869,8.77084 -1.24198,3.94002 -1.2427,4.58371 -0.0105,9.39369 2.71362,10.59229 3.83569,11.20979 19.06763,10.49332 l 11.80848,-0.55544 2.59152,-2.59151 c 2.27079,-2.27079 2.5915,-3.11681 2.5915,-6.83632 0,-3.50854 -0.52093,-5.08877 -3.00331,-9.11056 -1.65182,-2.67616 -2.79693,-5.40357 -2.54468,-6.06091 0.30145,-0.78556 -0.83356,-2.18183 -3.31173,-4.07406 -4.3961,-3.35667 -8.61323,-3.80622 -13.15213,-1.40204 z m -143.86067,41.01757 c -2.37735,6.35199 -1.5498,18.40186 1.35632,19.74921 2.01856,0.93586 13.7162,0.19208 13.7162,-0.87213 0,-1.18357 -10.89506,-17.64754 -12.84766,-19.41463 -1.43801,-1.30138 -1.5464,-1.27519 -2.22486,0.53755 z m 86.65078,68.74077 c -0.79477,1.28596 1.86297,4.76482 3.64018,4.76482 2.11976,0 1.99883,-1.7291 -0.27,-3.86056 -2.083,-1.95687 -2.62908,-2.10339 -3.37018,-0.90426 z"
         id="path6705"
         inkscape:connector-curvature="0" />
      <path
         style="fill:#333333;fill-opacity:1;stroke:none"
         d="m -90.34444,552.81584 c -8.894592,4.77121 -13.54182,6.67526 -17.10213,7.00706 -2.9821,0.27791 -10.38896,1.40789 -22.89787,3.49328 -16.09511,2.68325 -22.55047,3.58228 -34.8,4.84653 -5.28,0.54494 -10.04542,1.3366 -10.58982,1.75924 -0.54439,0.42264 -1.47273,0.58313 -2.06297,0.35663 -0.59025,-0.2265 -2.66483,-0.12193 -4.61019,0.23236 -1.94536,0.3543 -6.41702,0.85416 -9.93702,1.11081 -3.52,0.25665 -8.52263,0.82151 -11.11697,1.25523 -2.59433,0.43373 -7.63433,0.99741 -11.2,1.25262 -3.56566,0.25521 -8.46303,0.84303 -10.88303,1.30628 -2.42,0.46325 -5.39594,0.79858 -6.61321,0.74518 -1.21726,-0.0534 -3.26938,0.44908 -4.56027,1.11662 -1.29089,0.66754 -3.40086,1.21371 -4.68884,1.21371 -1.28797,0 -2.80353,0.55639 -3.3679,1.23641 -0.56436,0.68002 -1.53705,1.04034 -2.16152,0.80071 -1.61349,-0.61915 -5.00825,0.36343 -5.00828,1.44961 -2e-5,0.5023 -1.27744,1.93252 -2.83872,3.17827 -2.30093,1.83592 -3.47548,2.2148 -6.19998,2 -3.33786,-0.26315 -3.36219,-0.24548 -3.49236,2.535 -0.0721,1.54 -0.1621,3.3963 -0.2,4.12511 -0.0442,0.84839 -0.57258,1.19858 -1.46892,0.97341 -1.74686,-0.43883 -4.52918,5.4523 -3.20192,6.77956 0.55875,0.55876 0.39454,1.24359 -0.51666,2.1548 -0.86024,0.86024 -1.1461,1.93318 -0.80303,3.01411 0.50936,1.60485 0.47074,1.61643 -0.88141,0.26427 -0.99969,-0.99969 -1.66364,-1.16459 -2.26555,-0.56269 -0.46829,0.46829 -1.47007,0.85143 -2.22618,0.85143 -1.45963,0 -4.70525,4.5587 -4.70525,6.60884 0,0.67099 -0.54,1.4272 -1.2,1.68047 -0.66,0.25326 -1.2,1.01666 -1.2,1.69644 0,0.67978 -0.4097,1.89199 -0.91043,2.69381 -1.57884,2.52812 0.17328,5.82409 4.16422,7.83344 2.36607,1.19126 3.14569,1.92608 2.34525,2.21048 -0.65947,0.2343 -2.99904,1.01024 -5.19904,1.72432 -9.18422,2.98097 -21.8214,8.87521 -28.67013,13.37233 -9.29193,6.10141 -16.80353,13.29391 -24.19728,23.16937 -7.23085,9.65788 -12.07997,19.23485 -16.28743,32.16754 -3.70074,11.37516 -4.01924,14.04296 -1.67654,14.04296 3.79547,0 18.15644,-1.84241 19.37384,-2.48552 0.73836,-0.39005 1.94156,-2.78037 2.67377,-5.31183 2.18093,-7.54 5.61542,-14.92297 10.21867,-21.96662 4.06415,-6.21873 11.53709,-14.23603 13.26944,-14.23603 0.4251,0 1.79052,-0.83759 3.03428,-1.86131 3.91284,-3.22059 8.97312,-4.79983 15.86138,-4.95009 3.52,-0.0768 9.82,-0.59347 14,-1.14818 12.11761,-1.60806 27.52156,-0.10234 25.89399,2.5311 -0.2507,0.40566 -0.91573,0.56108 -1.47785,0.34538 -0.5621,-0.2157 -2.3276,-0.0977 -3.92333,0.26218 -1.66979,0.3766 -3.09278,0.34459 -3.35235,-0.0754 -0.93348,-1.51041 -1.87109,0.25711 -1.44677,2.72735 0.7533,4.38555 2.03966,6.96898 3.47003,6.96898 2.18854,0 2.55675,0.96498 0.82978,2.17459 -1.7729,1.24183 -3.1935,0.76628 -3.1935,-1.06898 0,-0.66 -0.36132,-0.9767 -0.80294,-0.70376 -0.44161,0.27293 -0.58259,1.37418 -0.31327,2.44722 0.36827,1.46732 0.16799,1.95096 -0.80792,1.95096 -0.71367,0 -1.92269,0.34405 -2.68673,0.76456 -0.76403,0.42051 -4.73122,1.51401 -8.81599,2.43001 -9.91288,2.22294 -11.42146,2.84554 -13.80133,5.69587 -1.49607,1.79181 -3.47602,2.8306 -7.5466,3.95934 -3.03514,0.84162 -5.72245,1.83098 -5.97182,2.19857 -0.24937,0.3676 -1.11491,0.91289 -1.92342,1.21177 -1.22955,0.45452 -1.38087,1.07112 -0.925,3.76932 0.34834,2.06184 0.2054,3.63509 -0.39611,4.35987 -0.76794,0.92532 -0.38265,1.3673 2.09398,2.40211 2.7615,1.15383 3.9753,1.15629 13.46611,0.0273 5.73707,-0.68246 13.13104,-1.77266 16.43104,-2.42267 3.3,-0.65 12.66,-2.27582 20.8,-3.61293 17.26259,-2.83562 27.7484,-4.73374 41.6,-7.53032 12.19878,-2.46289 13.22272,-2.65884 17,-3.25322 2.25082,-0.35419 3,-0.85241 3,-1.99511 0,-0.83767 1.31655,-2.52721 2.92566,-3.75455 2.4579,-1.87473 3.86636,-2.27902 8.80924,-2.52862 5.40872,-0.27312 6.11458,-0.12091 8.74583,1.88604 2.64844,2.02007 3.23043,2.14236 7.79077,1.63703 2.71068,-0.30037 6.46824,-0.92842 8.35014,-1.39567 4.68967,-1.16436 9.36067,0.68369 13.65531,5.40266 2.53725,2.78794 3.67866,3.4997 5.09629,3.17794 1.76602,-0.40083 11.81437,-2.01095 12.62676,-2.02328 0.22,-0.003 0.43562,-6.93605 0.47917,-15.40604 0.0943,-18.34684 1.39317,-27.2357 5.99102,-40.99997 5.40423,-16.17829 12.54143,-27.52757 24.241874,-38.54835 20.588984,-19.39302 47.230744,-25.00449 74.887936,-15.77342 15.100392,5.04002 26.633408,12.61154 39.507328,25.93686 13.713056,14.19387 22.830192,29.43335 28.201416,47.13926 3.146696,10.37287 4.348008,15.4179 6.487696,27.24565 l 0.651256,3.6 4.776152,0.59881 c 2.626888,0.32933 14.316152,0.60104 25.976152,0.6038 11.66,0.002 27.97802,0.21809 36.26226,0.47854 8.28425,0.26046 16.38425,0.21036 18,-0.11131 l 2.93774,-0.58487 -2.4,-0.6792 c -1.32,-0.37356 -7.29165,-1.02752 -13.27033,-1.45322 -8.6502,-0.61594 -11.61295,-0.55052 -14.50642,0.32029 -2.67791,0.80593 -3.87158,0.85883 -4.52967,0.20073 -1.49529,-1.49528 -1.0215,-2.67968 1.86246,-4.6558 1.51582,-1.03865 3.13139,-2.71228 3.59017,-3.71918 1.30627,-2.86696 4.12158,-3.49901 11.73309,-2.63413 3.72034,0.42274 7.29445,0.56515 7.94248,0.31648 2.6386,-1.01253 0.72728,-8.99462 -2.578,-10.76625 -2.20243,-1.18049 -8.99832,-1.4073 -21.41443,-0.71469 l -7.17065,0.4 -3.3038,-6.6418 c -4.02209,-8.0858 -8.616972,-12.93927 -14.933548,-15.77399 -4.403328,-1.97609 -5.653192,-2.14843 -16.402536,-2.26165 l -11.636008,-0.12256 -4.71632,-10.4 C 52.72748,617.30292 52.13544,615.42255 52.853304,613.824 c 0.593504,-1.32161 1.312072,-1.76591 2.397088,-1.48217 1.013704,0.26508 1.702768,-0.0777 1.99272,-0.99122 0.696344,-2.19401 4.021104,-3.38324 6.412448,-2.29367 1.1,0.5012 2,1.39348 2,1.98285 0,0.58937 0.36,1.07159 0.8,1.07159 0.44,0 0.8,0.72891 0.8,1.6198 0,1.00265 0.781856,1.91706 2.05208,2.4 2.658288,1.01068 2.77904,0.99215 2.264952,-0.34753 -0.262608,-0.68435 0.219048,-1.3134 1.225112,-1.6 0.911824,-0.25975 2.377856,-0.67653 3.257856,-0.92618 1.13324,-0.32149 1.6,-0.0718 1.6,0.85564 0,2.10248 3.5456,1.1813 3.85564,-1.00173 0.286552,-2.01765 0.966992,-2.25737 2.38436,-0.84 0.746664,0.74666 1.173336,0.74666 1.92,0 1.278904,-1.27891 2.24,-1.21467 2.24,0.14972 0,1.07825 7.313288,2.1658 14.2,2.11167 2.02459,-0.0159 2.6,0.31462 2.6,1.4935 0,0.83266 0.56944,1.73244 1.26543,1.99952 2.00052,0.76767 6.59083,0.56538 7.13457,-0.31441 0.27194,-0.44 -0.0881,-0.8 -0.8,-0.8 -0.71194,0 -1.06215,-0.37583 -0.77826,-0.83519 0.2839,-0.45934 -0.0167,-1.64848 -0.66804,-2.64252 -1.17514,-1.79348 -1.1588,-1.80395 2.13027,-1.36481 2.15644,0.2879 3.34446,0.86178 3.4003,1.64252 0.33416,4.6723 2.88015,6.27021 4.46129,2.8 1.15718,-2.53975 3.05444,-2.60059 3.05444,-0.098 0,2.31162 1.72842,3.90544 3.4986,3.22616 0.84542,-0.32442 1.3014,-0.079 1.3014,0.7006 0,1.02756 1.55498,2.17119 2.95216,2.17119 0.23171,0 0.19982,-0.88241 -0.0709,-1.9609 -0.43247,-1.72311 -0.1437,-2.05711 2.38136,-2.75431 1.83111,-0.5056 3.59581,-0.5188 4.86461,-0.0364 3.26381,1.2409 2.01514,-1.74689 -1.52472,-3.64831 -2.48618,-1.33543 -3.24326,-1.43463 -4.57971,-0.6 -2.14515,1.33969 -2.42282,1.27207 -2.42282,-0.59003 0,-1.87285 -5.73574,-5.81472 -7.48446,-5.14368 -0.63453,0.2435 -1.39136,0.0582 -1.68184,-0.41182 -0.29047,-0.46999 -1.76688,-0.85454 -3.28092,-0.85454 -2.53164,0 -2.75278,-0.1948 -2.75278,-2.4251 0,-1.41766 -0.49851,-2.61641 -1.2,-2.88559 -0.66,-0.25327 -1.2,-0.91999 -1.2,-1.48159 0,-0.56161 -0.63,-1.24884 -1.4,-1.5272 -0.77,-0.27835 -2.3,-1.05524 -3.4,-1.72643 -1.26826,-0.77385 -3.23232,-1.09913 -5.36818,-0.88906 -2.52884,0.24871 -3.694124,-0.0289 -4.6761,-1.11395 -1.099976,-1.21546 -2.154312,-1.37503 -6.631816,-1.0037 l -5.323904,0.44152 -2.637696,-3.29445 c -2.241112,-2.79911 -3.086408,-3.29445 -5.622,-3.29445 -1.64136,0 -3.807312,-0.57646 -4.813224,-1.28103 -1.005912,-0.70457 -3.588872,-1.40273 -5.739912,-1.55146 -2.151032,-0.14874 -4.640728,-0.66099 -5.532656,-1.13833 -0.891928,-0.47734 -2.477312,-0.65315 -3.523088,-0.39067 -1.199848,0.30113 -2.365528,0.0131 -3.15928,-0.78064 -0.691824,-0.69183 -2.003576,-1.25787 -2.915,-1.25787 -0.911432,0 -1.657144,-0.34994 -1.657144,-0.77765 0,-0.42771 -2.07,-1.36179 -4.6,-2.07573 -2.53,-0.71395 -7.051456,-2.16401 -10.04768,-3.22235 -2.996224,-1.05835 -5.987328,-1.92427 -6.646912,-1.92427 -0.659576,0 -2.52812,-1.04661 -4.15232,-2.32581 -5.213552,-4.10614 -9.219768,-5.34092 -40.153088,-12.37577 -8.850088,-2.01269 -33.375672,-5.19812 -46.724168,-6.06863 -19.13164,-1.24764 -25.158408,-1.10485 -28.475832,0.67466 z m 205.6,54.84834 c 0,0.19403 -0.36,0.57528 -0.8,0.84721 -0.44,0.27194 -0.8,0.11319 -0.8,-0.35278 0,-0.46597 0.36,-0.84722 0.8,-0.84722 0.44,0 0.8,0.15876 0.8,0.35279 z m -258.1682,2.84721 c 0.43848,1.67676 2.52069,2.17131 3.3682,0.8 0.27194,-0.44 1.05221,-0.8 1.73394,-0.8 0.93339,0 1.11139,0.5105 0.72072,2.06704 -0.3364,1.34034 -0.22627,1.88624 0.31328,1.55278 2.05808,-1.27196 2.17004,0.81904 0.35271,6.58769 -2.45283,7.7859 -4.79263,17.67611 -5.53412,23.39249 -0.76413,5.89084 -1.38234,6.84611 -5.3774,8.30926 -4.52223,1.65623 -28.58527,8.88707 -37.62839,11.30717 l -7.18304,1.9223 -4.89884,-4.61037 c -9.26254,-8.7171 -16.759,-14.1522 -29.89886,-21.67731 -3.19,-1.82689 -5.8,-3.58709 -5.8,-3.91155 0,-0.32446 4.59,-1.43089 10.2,-2.45874 7.89074,-1.44572 10.5355,-2.25273 11.68193,-3.56459 0.81506,-0.93268 2.50964,-1.74746 3.76573,-1.81063 1.3464,-0.0678 3.98261,-1.46746 6.42258,-3.4102 2.27632,-1.81243 4.45174,-3.29534 4.83426,-3.29534 0.38252,0 0.73726,-0.63 0.7883,-1.4 0.0877,-1.32308 0.11301,-1.32255 0.46049,0.01 0.34591,1.32601 0.51812,1.33109 2.9072,0.0858 5.31413,-2.77001 5.44237,-2.80581 6.6022,-1.84324 0.89242,0.74065 1.13731,0.69887 1.13731,-0.19407 0,-0.62587 -0.35318,-1.49113 -0.78483,-1.92278 -0.51312,-0.51312 0.52495,-0.70819 2.99834,-0.56343 4.42019,0.2587 8.65121,-0.94411 9.30388,-2.64493 0.35273,-0.91921 0.81955,-1.00278 2.01815,-0.36131 2.05469,1.09964 7.02452,1.06995 7.71427,-0.0461 0.30947,-0.50073 1.53769,-0.68191 2.84721,-0.42 1.27756,0.25551 2.30298,0.11329 2.30298,-0.31941 0,-1.19142 3.498,-0.92839 5.2471,0.39456 2.55092,1.92942 5.86957,1.54877 6.7529,-0.77456 0.9162,-2.40978 2.06074,-2.58374 2.6318,-0.4 z m 215.551536,-1.11666 c -0.265832,0.26583 -0.95584,0.29425 -1.533336,0.0631 -0.638184,-0.25538 -0.448624,-0.44494 0.483336,-0.48333 0.843328,-0.0347 1.315832,0.15435 1.05,0.42018 z m -221.183336,1.64649 c -0.55,0.22193 -1.45,0.22193 -2,0 -0.55,-0.22193 -0.1,-0.40351 1,-0.40351 1.1,0 1.55,0.18158 1,0.40351 z m -98.2,53.87017 c 0.27194,0.44 0.11318,0.8 -0.35278,0.8 -0.46597,0 -0.84722,-0.36 -0.84722,-0.8 0,-0.44 0.15875,-0.8 0.35278,-0.8 0.19404,0 0.57528,0.36 0.84722,0.8 z m 9.44226,2.78904 c 0.0868,0.43398 -0.47226,0.91038 -1.24226,1.05867 -0.87568,0.16864 -1.4,-0.22374 -1.4,-1.04771 0,-1.39183 2.36424,-1.40163 2.64226,-0.011 z m 6.00721,2.22015 c 0.1811,0.94036 -0.24164,1.39081 -1.30522,1.39081 -1.58891,0 -2.86209,-1.81548 -1.92814,-2.74944 0.91695,-0.91696 2.96049,-0.0583 3.23336,1.35863 z m -24.64947,20.98167 c 0,0.90004 -2.8357,3.60914 -3.77779,3.60914 -1.5827,0 -1.21036,-1.2736 0.77779,-2.66046 1.83642,-1.28102 3,-1.64898 3,-0.94868 z M 60.49524,613.98346 c -1.0096,0.73823 -1.192736,1.26252 -0.57448,1.64462 1.298256,0.80237 6.659288,-0.34321 6.323296,-1.3512 -0.436984,-1.31095 -4.10148,-1.49799 -5.748816,-0.29342 z m 85.71032,6.6446 c -1.04328,1.04328 -0.54519,1.88333 1.11666,1.88333 0.931,0 1.52689,-0.41933 1.35,-0.95 -0.38968,-1.16907 -1.72548,-1.67451 -2.46666,-0.93333 z m 9.45,1.08333 c -0.27194,0.44 -0.11318,0.8 0.35278,0.8 0.46597,0 0.84722,-0.36 0.84722,-0.8 0,-0.44 -0.15875,-0.8 -0.35278,-0.8 -0.19404,0 -0.57528,0.36 -0.84722,0.8 z m 6,1.6 c 0,0.44 0.54,0.8 1.2,0.8 0.66,0 1.2,-0.36 1.2,-0.8 0,-0.44 -0.54,-0.8 -1.2,-0.8 -0.66,0 -1.2,0.36 -1.2,0.8 z m 52.4,6.49364 c -1.76,0.33779 -4.33193,0.6349 -5.71539,0.66026 -2.63541,0.0483 -6.02757,2.64392 -8.58431,6.56855 -1.57504,2.41772 -2.19261,1.50545 8.14983,12.03899 l 5.26417,5.36144 -3.69324,5.43856 c -2.03128,2.99121 -6.19674,9.93856 -9.25658,15.43856 -3.05984,5.5 -6.34142,11.31147 -7.29241,12.91436 -2.17456,3.66527 -2.10521,3.74332 9.39595,10.57648 4.69259,2.788 24.55198,14.59796 44.13198,26.24436 44.22367,26.30473 42.00521,25.00933 46.8,27.32744 8.94766,4.32585 26.91954,11.33908 31.24481,12.19276 1.72549,0.34056 2.76045,0.1022 3.51762,-0.81012 1.07275,-1.29259 0.83492,-2.25959 -1.48675,-6.04527 -0.40476,-0.66001 -2.04426,-3.90001 -3.64333,-7.20001 -1.59907,-3.3 -3.22511,-6.54 -3.61342,-7.2 -0.38832,-0.66 -3.59635,-7.14 -7.12895,-14.4 -9.36947,-19.25557 -25.22888,-49.77938 -29.84216,-57.43567 -5.0807,-8.43203 -11.33735,-15.19326 -17.88744,-19.33002 l -5.14437,-3.24896 3.19199,-3.28914 c 5.19382,-5.35188 4.28532,-6.68007 -7.00895,-10.2467 -7.26773,-2.29509 -17.82198,-3.99186 -26.82758,-4.31299 -2.37092,-0.0845 -4.10365,-0.58127 -4.55116,-1.30471 -0.61774,-0.99862 -0.96196,-0.9516 -2.37147,0.32399 -1.4681,1.32861 -1.80231,1.36236 -3.04884,0.30794 -1.03638,-0.87666 -2.23113,-1.02474 -4.6,-0.5701 z m -64.99317,35.08066 c -6.62019,1.02508 -6.727,1.11456 -6.451,5.40469 l 0.24417,3.79529 6.8,1.24846 c 3.74,0.68664 9.72745,2.09727 13.30543,3.13474 7.949,2.30485 9.09457,2.0011 9.09457,-2.41147 0,-4.22238 -1.82734,-8.06496 -4.61293,-9.70018 -2.6617,-1.56251 -12.63571,-2.36103 -18.38024,-1.47153 z m -413.00683,6.47292 c 0,0.46597 0.36,0.62472 0.8,0.35278 0.44,-0.27193 0.8,-0.65318 0.8,-0.84721 0,-0.19403 -0.36,-0.35279 -0.8,-0.35279 -0.44,0 -0.8,0.38125 -0.8,0.84722 z m 0.0122,5.70557 c -0.006,0.74403 0.34775,1.57528 0.78775,1.84721 1.01248,0.62575 1.01248,-0.4333 0,-2 -0.66832,-1.03415 -0.77719,-1.01303 -0.78775,0.15279 z m 593.58776,99.71203 c 0,1.04892 3.75252,2.78256 4.72372,2.18233 1.96864,-1.21669 0.867,-2.84714 -1.92372,-2.84714 -1.54,0 -2.8,0.29916 -2.8,0.66481 z m -584.20965,13.9384 c -6.86843,2.28948 -6.66193,19.73751 0.29369,24.81478 1.78394,1.3022 2.53272,1.39667 5.2,0.65609 1.71378,-0.47584 6.65366,-0.86717 10.9775,-0.86962 7.61976,-0.004 7.93345,-0.0764 10.2,-2.34293 4.57736,-4.57736 2.75704,-11.94035 -4.5399,-18.36337 -2.05988,-1.81319 -5.12997,-3.66957 -6.82241,-4.1253 -3.46997,-0.93437 -12.20921,-0.80287 -15.30888,0.23035 z m -134.99035,37.62093 c 0,0.19661 -0.36816,2.29661 -0.81813,4.66666 -0.88064,4.63845 -0.37317,10.28012 1.10355,12.26848 1.28999,1.73692 11.90868,0.82441 11.55032,-0.99256 -0.23868,-1.21012 -1.47435,-2.09129 -4.05386,-2.89084 -1.19919,-0.37172 -1.26534,-0.6842 -0.42853,-2.02415 0.85855,-1.37476 0.56966,-2.19089 -2.18189,-6.16389 -2.67812,-3.86696 -5.17146,-6.21193 -5.17146,-4.8637 z"
         id="path6703"
         inkscape:connector-curvature="0" />
    </g>
  </g>
</svg>
