<?xml version="1.0" encoding="UTF-8" standalone="no"?>
<!-- Created with Inkscape (http://www.inkscape.org/) -->

<svg
   xmlns:dc="http://purl.org/dc/elements/1.1/"
   xmlns:cc="http://creativecommons.org/ns#"
   xmlns:rdf="http://www.w3.org/1999/02/22-rdf-syntax-ns#"
   xmlns:svg="http://www.w3.org/2000/svg"
   xmlns="http://www.w3.org/2000/svg"
   xmlns:sodipodi="http://sodipodi.sourceforge.net/DTD/sodipodi-0.dtd"
   xmlns:inkscape="http://www.inkscape.org/namespaces/inkscape"
   width="240.15971"
   height="334.87036"
   id="svg2"
   version="1.1"
   inkscape:version="0.92.4 (5da689c313, 2019-01-14)"
   sodipodi:docname="goat.svg">
  <defs
     id="defs4" />
  <sodipodi:namedview
     id="base"
     pagecolor="#ffffff"
     bordercolor="#666666"
     borderopacity="1.0"
     inkscape:pageopacity="0.0"
     inkscape:pageshadow="2"
     inkscape:zoom="1.4"
     inkscape:cx="142.51186"
     inkscape:cy="140.94516"
     inkscape:document-units="px"
     inkscape:current-layer="layer1"
     showgrid="false"
     inkscape:window-width="2560"
     inkscape:window-height="1377"
     inkscape:window-x="-8"
     inkscape:window-y="-8"
     inkscape:window-maximized="1"
     fit-margin-top="0"
     fit-margin-left="0"
     fit-margin-right="0"
     fit-margin-bottom="0" />
  <metadata
     id="metadata7">
    <rdf:RDF>
      <cc:Work
         rdf:about="">
        <dc:format>image/svg+xml</dc:format>
        <dc:type
           rdf:resource="http://purl.org/dc/dcmitype/StillImage" />
        <dc:title></dc:title>
      </cc:Work>
    </rdf:RDF>
  </metadata>
  <g
     inkscape:label="Layer 1"
     inkscape:groupmode="layer"
     id="layer1"
     transform="translate(-178.56439,-365.85809)">
    <path
       style="fill:#000000;stroke:#ffff00"
       d="m 297.06787,698.57743 c -10.15494,-3.5983 -17.71304,-14.43884 -21.17215,-30.36708 -2.04531,-9.41809 -4.63905,-15.33129 -6.46074,-14.72917 -0.74109,0.24495 -1.30472,3.19805 -1.49133,7.81378 l -0.29999,7.42001 -6.9211,-15.12431 c -10.1228,-22.1208 -24.46719,-57.71648 -27.85732,-69.12808 -6.37455,-21.45754 -9.61648,-54.89776 -7.41622,-76.49761 0.49023,-4.8125 0.73472,-8.75 0.54331,-8.75 -1.90551,0 -6.70154,3.84506 -9.62145,7.71368 -1.98691,2.63247 -5.69311,7.48632 -8.23601,10.78632 -5.98931,7.77252 -14.77117,25.95249 -17.14833,35.5 -1.50409,6.04094 -2.23637,7.5 -3.76414,7.5 -2.83291,0 -3.33561,-4.44985 -2.34075,-20.72006 1.96883,-32.19883 5.7747,-55.54254 10.31994,-63.29841 1.36614,-2.33113 9.64598,-11.41432 18.39965,-20.18486 l 15.91576,-15.94644 -5.63668,-6.13242 c -9.15959,-9.96519 -19.17725,-14.77724 -22.93668,-11.01781 -1.48122,1.48122 -1.57322,16.42059 -0.14041,22.8 0.55589,2.475 1.88814,5.71015 2.96056,7.18922 l 1.94985,2.68922 -2.64748,2.08251 c -8.22276,6.46802 -14.13676,2.15104 -20.34057,-14.8478 -4.91937,-13.47939 -4.91434,-17.47709 0.0398,-31.61315 6.27372,-17.90138 11.42453,-27.83489 18.17508,-35.05125 9.24093,-9.87858 16.15602,-11.87681 25.48033,-7.36299 6.69492,3.24095 19.93741,16.29895 30.05755,29.63879 4.7047,6.2015 8.76158,11.27545 9.01529,11.27545 0.25372,0 1.78866,-1.1169 3.411,-2.48201 4.91131,-4.13259 14.9952,-9.32362 21.30357,-10.96674 12.12957,-3.15935 24.07764,-1.33486 35.91779,5.48472 3.78529,2.18022 7.186,3.96403 7.55713,3.96403 0.37113,0 2.89907,-3.02956 5.61765,-6.73236 11.79182,-16.06088 24.48323,-28.29742 33.07082,-31.88555 7.82876,-3.27106 16.56512,-0.0617 25.58435,9.39869 6.18699,6.48961 8.38625,10.74147 15.63079,30.21922 5.52025,14.8418 5.96712,21.36892 2.19086,32 -6.66404,18.76089 -13.03428,24.07783 -20.90895,17.45173 -2.94438,-2.47753 -2.9772,-2.59953 -1.18221,-4.39452 2.522,-2.522 4.05721,-10.43279 4.05721,-20.90643 0,-9.46875 -0.75011,-11.15078 -4.97275,-11.15078 -3.91559,0 -14.52435,6.77488 -19.09298,12.193 l -4.07165,4.82874 5.81869,5.15241 c 9.70309,8.59202 28.23564,28.06551 30.86855,32.43583 4.51665,7.4971 8.3401,30.91877 10.31213,63.16996 0.99486,16.27021 0.49216,20.72006 -2.34075,20.72006 -1.52777,0 -2.26005,-1.45906 -3.76414,-7.5 -2.37716,-9.54751 -11.15902,-27.72748 -17.14833,-35.5 -2.5429,-3.3 -6.24525,-8.14848 -8.22745,-10.7744 -3.19381,-4.23101 -7.07747,-7.48982 -7.8138,-6.55662 -0.14365,0.18206 0.0921,3.70602 0.52383,7.83102 2.78132,26.57293 -0.67887,58.50372 -9.12809,84.23448 -4.37574,13.32561 -24.92866,53.97906 -34.7595,68.75389 -6.81077,10.23596 -16.08488,19.75229 -22.21027,22.79037 l -4.49349,2.22869 -0.56145,-6.75372 c -0.56357,-6.77907 -2.15342,-11.25371 -3.99848,-11.25371 -1.76737,0 -3.13552,5.3857 -2.58647,10.18161 0.7176,6.26811 3.8218,12.06621 9.90189,18.49502 l 5.03462,5.32337 -6.89505,-0.079 c -3.79228,-0.0434 -8.77416,-0.74478 -11.07083,-1.55859 z"
       id="path3012"
       inkscape:connector-curvature="0" />
    <path
       style="fill:#ffffff;stroke:none"
       d="m 323.42061,628.05386 c 11.58303,-3.84087 21.87802,-9.82993 30.48179,-17.73266 5.51182,-5.06272 7.1968,-7.40863 9.78245,-13.61965 4.14451,-9.95557 8.64096,-28.22885 10.52866,-42.7878 1.71106,-13.19668 1.9761,-40.28693 0.50502,-51.62121 -0.52984,-4.08234 -0.76444,-7.62136 -0.52132,-7.86448 1.17089,-1.17088 9.51519,4.25811 12.34337,8.03087 1.75476,2.34082 5.46246,7.18104 8.23934,10.75604 6.00141,7.72633 15.08058,25.70571 17.92667,35.5 l 2.0341,7 -0.56789,-13 c -0.71619,-16.39493 -3.00177,-39.02607 -5.01109,-49.61832 -2.97811,-15.69932 -3.91206,-17.22425 -21.24127,-34.68204 -15.99701,-16.1157 -26.54055,-24.84693 -33.6768,-27.88817 -2.75471,-1.17397 -5.87289,-4.05345 -10.01592,-9.24918 -6.77421,-8.49547 -17.43089,-16.70133 -26.25416,-20.21622 -8.2318,-3.27928 -24.22804,-3.27928 -32.45984,0 -9.13282,3.6382 -19.4918,11.71937 -26.95908,21.03111 -4.99051,6.2232 -7.91061,8.91257 -11.5,10.59133 -8.12091,3.79816 -17.13519,11.26372 -33.4878,27.73432 -17.32952,17.45458 -18.26297,18.97855 -21.24127,34.67885 -2.00932,10.59225 -4.2949,33.22339 -5.01109,49.61832 l -0.56789,13 2.05289,-7 c 5.48678,-18.70898 23.34466,-46.83563 33.17403,-52.25 5.06392,-2.78939 8.3007,-3.01239 7.25739,-0.5 -0.3997,0.9625 -0.95578,10.75 -1.23574,21.75 -0.58715,23.06969 0.9965,39.01893 5.73877,57.79622 5.18752,20.54031 9.85183,28.86142 23.0028,41.0369 7.46368,6.91005 13.17307,9.98691 18.50691,9.97359 4.28699,-0.0107 18.86922,-5.62088 25.51555,-9.81653 4.74801,-2.99728 5.37243,-3.08364 4.01963,-0.55592 -1.39264,2.60219 -1.30884,8.37101 0.16871,11.61389 1.09537,2.40407 1.56483,2.58454 5.20778,2.00201 2.20214,-0.35213 8.17152,-2.02221 13.2653,-3.71127 z"
       id="path3010"
       inkscape:connector-curvature="0" />
    <path
       style="fill:#000000"
       d="m 296.30034,568.99246 c -2.07956,-2.96899 -1.96146,-5.07814 0.4433,-7.91671 l 2,-2.36078 2,2.36078 c 1.1,1.29844 2,3.11081 2,4.0275 0,1.95693 -2.71923,6.11172 -4,6.11172 -0.48763,0 -1.58711,-1.00013 -2.4433,-2.22251 z"
       id="path3008"
       inkscape:connector-curvature="0" />
    <path
       style="fill:#000000"
       d="m 305.30034,568.99246 c -2.07956,-2.96899 -1.96146,-5.07814 0.4433,-7.91671 l 2,-2.36078 2,2.36078 c 1.1,1.29844 2,3.11081 2,4.0275 0,1.95693 -2.71923,6.11172 -4,6.11172 -0.48763,0 -1.58711,-1.00013 -2.4433,-2.22251 z"
       id="path3006"
       inkscape:connector-curvature="0" />
    <path
       style="fill:#000000"
       d="m 257.71991,543.96497 c -5.32457,-2.6937 -9.99856,-8.59327 -13.04668,-16.46769 -3.20277,-8.27394 -3.20277,-24.29068 0,-32.56462 4.19141,-10.82795 12.65134,-18.71769 20.07041,-18.71769 4.19259,0 11.23978,4.19305 14.65168,8.71769 5.64578,7.48705 7.65701,14.39051 7.65701,26.28231 0,11.8918 -2.01123,18.79526 -7.65701,26.28231 -3.4119,4.52464 -10.45909,8.71769 -14.65168,8.71769 -1.41692,0 -4.5776,-1.0125 -7.02373,-2.25 z"
       id="path3004"
       inkscape:connector-curvature="0" />
    <path
       style="fill:#ffffff"
       d="m 277.18694,511.99246 c 2.35153,-3.35729 2.08486,-12.93249 -0.4433,-15.91671 l -2,-2.36078 -2,2.36078 c -3.58489,4.23157 -2.05145,18.13922 2,18.13922 0.48763,0 1.58711,-1.00013 2.4433,-2.22251 z"
       id="path3002"
       inkscape:connector-curvature="0" />
    <path
       style="fill:#000000"
       d="m 333.71991,543.96497 c -5.32457,-2.6937 -9.99856,-8.59327 -13.04668,-16.46769 -3.20277,-8.27394 -3.20277,-24.29068 0,-32.56462 4.19141,-10.82795 12.65134,-18.71769 20.07041,-18.71769 4.19259,0 11.23978,4.19305 14.65168,8.71769 5.64578,7.48705 7.65701,14.39051 7.65701,26.28231 0,11.8918 -2.01123,18.79526 -7.65701,26.28231 -3.4119,4.52464 -10.45909,8.71769 -14.65168,8.71769 -1.41692,0 -4.5776,-1.0125 -7.02373,-2.25 z"
       id="path3000"
       inkscape:connector-curvature="0" />
    <path
       style="fill:#ffffff"
       d="m 335.18694,512.99246 c 2.35153,-3.35729 2.08486,-12.93249 -0.4433,-15.91671 l -2,-2.36078 -2,2.36078 c -3.58489,4.23157 -2.05145,18.13922 2,18.13922 0.48763,0 1.58711,-1.00013 2.4433,-2.22251 z"
       id="path2996"
       inkscape:connector-curvature="0" />
  </g>
</svg>
