<?xml version="1.0" encoding="UTF-8" standalone="no"?>
<!-- Created with Inkscape (http://www.inkscape.org/) -->

<svg
   xmlns:dc="http://purl.org/dc/elements/1.1/"
   xmlns:cc="http://creativecommons.org/ns#"
   xmlns:rdf="http://www.w3.org/1999/02/22-rdf-syntax-ns#"
   xmlns:svg="http://www.w3.org/2000/svg"
   xmlns="http://www.w3.org/2000/svg"
   xmlns:sodipodi="http://sodipodi.sourceforge.net/DTD/sodipodi-0.dtd"
   xmlns:inkscape="http://www.inkscape.org/namespaces/inkscape"
   width="359.00705mm"
   height="225.77777mm"
   viewBox="0 0 1272.0722 799.99997"
   id="svg6329"
   version="1.1"
   inkscape:version="0.91 r13725"
   sodipodi:docname="hotspot.svg">
  <defs
     id="defs6331" />
  <sodipodi:namedview
     id="base"
     pagecolor="#ffffff"
     bordercolor="#666666"
     borderopacity="1.0"
     inkscape:pageopacity="0.0"
     inkscape:pageshadow="2"
     inkscape:zoom="0.35"
     inkscape:cx="179.57445"
     inkscape:cy="30.413116"
     inkscape:document-units="px"
     inkscape:current-layer="layer1"
     showgrid="false"
     fit-margin-top="0"
     fit-margin-left="0"
     fit-margin-right="0"
     fit-margin-bottom="0"
     inkscape:window-width="1920"
     inkscape:window-height="1017"
     inkscape:window-x="-8"
     inkscape:window-y="-8"
     inkscape:window-maximized="1" />
  <metadata
     id="metadata6334">
    <rdf:RDF>
      <cc:Work
         rdf:about="">
        <dc:format>image/svg+xml</dc:format>
        <dc:type
           rdf:resource="http://purl.org/dc/dcmitype/StillImage" />
        <dc:title></dc:title>
      </cc:Work>
    </rdf:RDF>
  </metadata>
  <g
     inkscape:label="Layer 1"
     inkscape:groupmode="layer"
     id="layer1"
     transform="translate(-66.80947,628.79606)">
    <g
       id="g6895"
       transform="matrix(10.298192,0,0,10.298192,-621.20743,-1591.8876)">
      <rect
         y="98.612213"
         x="86.25"
         height="65.178574"
         width="81.071426"
         id="rect6893"
         style="opacity:0.91000001;fill:#ffffff;fill-opacity:1;fill-rule:evenodd;stroke:#000000;stroke-width:0.02621819;stroke-linecap:butt;stroke-linejoin:miter;stroke-miterlimit:4;stroke-dasharray:none;stroke-opacity:1" />
      <g
         transform="matrix(0.40179988,0,0,-0.40179988,344.66281,478.32466)"
         id="g6827">
        <g
           id="g6795"
           transform="translate(-277.61279,210.25087)">
          <path
             style="fill:#333333;fill-opacity:1"
             d="m -289.68262,554.52083 c -75.60091,0.32007 -104.69813,0.69247 -106.5566,1.36379 -7.22054,2.60815 -14.05976,9.89485 -16.61149,17.69832 -1.29721,3.96699 -1.32864,7.98646 -0.49115,62.8 0.49213,32.20895 0.97678,65.59059 1.07701,74.18141 l 0.18223,15.61969 2.63441,5.34837 c 3.46984,7.0445 9.13932,12.09149 15.95953,14.20725 4.84533,1.50311 8.82076,1.55253 133.6,1.66074 140.21551,0.1216 131.61096,0.38921 139.68835,-4.34445 4.63933,-2.71883 8.24489,-6.94864 11.07089,-12.98765 l 2.3174,-4.95217 0.16471,-75.88573 0.16471,-75.88572 -2.74343,-5.05999 c -3.08402,-5.68815 -6.41667,-8.79064 -12.85657,-11.96866 l -4.4,-2.17135 -29.6,-0.0321 c -16.28,-0.0176 -76.4,0.16606 -133.6,0.40825 z m 105.17226,36.81304 2.15747,2.18841 -0.95038,105.19591 c 4.74353,9.78922 6.41731,7.53404 4.74353,9.78922 -0.92242,1.24281 -2.54242,2.70435 -3.6,3.24787 -2.79716,1.43751 -148.871,-3.54009 -151.66816,-4.9776 -1.05758,-0.54352 -2.55501,-1.88821 -3.32761,-2.98821 -1.29849,-1.84875 -1.4415,-6.5459 -1.89105,-62.11128 -0.30939,-38.24175 -0.2032,-45.92316 0.2919,-47.22535 0.42802,-1.12579 1.76833,-2.69571 2.97846,-3.48872 2.06742,-1.35481 6.7173,-1.4688 77.0357,-1.88849 41.15951,-0.24566 66.49857,-0.33044 68.47648,-0.18842 2.64421,0.18988 4.16733,0.83758 5.75366,2.44666 z"
             id="path6799"
             inkscape:connector-curvature="0"
             sodipodi:nodetypes="csssscssssscccsscscsscssssssssss" />
          <path
             style="fill:#070606"
             d="m -263.7181,584.09803 c -70.3184,0.41969 -74.96828,0.53368 -77.0357,1.88849 -1.21013,0.79301 -2.55044,2.36293 -2.97846,3.48872 -0.4951,1.30219 -0.60129,23.9164 -0.2919,62.15815 0.44955,55.56538 0.59256,60.26253 1.89105,62.11128 2.89026,4.11505 0.0435,3.97641 81.65049,3.97641 59.06262,0 76.83636,-0.22425 78.32288,-0.9882 1.05758,-0.54352 2.67758,-2.00506 3.6,-3.24787 1.67378,-2.25518 1.67663,-2.38176 1.43078,-63.6 l -0.24633,-61.34033 -2.15747,-2.18841 c -1.58632,-1.60909 -3.10945,-2.25678 -5.75366,-2.44666 -1.97791,-0.14202 -37.27217,-0.0572 -78.43168,0.18842 z m 73.58186,8.74645 c 0.52096,0.97344 0.71058,19.54885 0.54028,52.92872 -0.24874,48.75706 -0.33848,51.48459 -1.72742,52.5002 -1.19705,0.87531 -14.01209,1.07127 -70.055,1.07127 -60.80846,0 -68.73026,-0.14031 -69.82672,-1.23677 -1.08986,-1.08985 -1.24023,-7.44864 -1.26594,-53.53039 -0.023,-41.35149 0.18192,-52.37869 0.97963,-52.70008 0.55484,-0.22354 32.40613,-0.43486 70.78065,-0.46959 67.43414,-0.061 69.79874,-0.0129 70.57452,1.43664 z m 6.83644,114.19729 c 1.62677,1.62678 1.31083,3.38455 -0.86791,4.8286 -1.48221,0.9824 -1.91218,0.93298 -3.57123,-0.41044 -1.66769,-1.35041 -1.77564,-1.76983 -0.93206,-3.62128 1.08941,-2.391 3.42984,-2.73823 5.3712,-0.79688 z"
             id="path6797"
             inkscape:connector-curvature="0"
             sodipodi:nodetypes="ssssssssscssscssssssscsssss" />
          <path
             style="fill:#f6e21f"
             d="m -395.67822,677.09222 c 0.0269,0.0437 0.90433,0.60162 1.94965,1.23987 6.01304,3.67145 13.76492,9.27357 21.96531,15.87387 5.16833,4.15988 9.14664,7.58694 13.79933,11.88726 0.95075,0.87873 2.51757,2.37749 3.48185,3.33057 0.96427,0.95308 1.78711,1.73288 1.82851,1.73288 0.11348,0 1.70065,-1.09058 2.54094,-1.74594 0.40746,-0.31779 1.14675,-0.97803 1.64284,-1.4672 2.28509,-2.25321 2.55937,-3.88236 0.90697,-5.38745 -0.58342,-0.53139 -5.84213,-4.06625 -8.62837,-5.79991 -7.42846,-4.62215 -14.34829,-8.49005 -21.65973,-12.10695 -6.52489,-3.22778 -11.30134,-5.32513 -16.30247,-7.15844 -1.27568,-0.46763 -1.62376,-0.55861 -1.52483,-0.39856 z m 12.57779,9.79946 c 0,0.0528 0.3279,0.46214 0.72868,0.90953 5.9228,6.61173 12.05638,15.03621 16.52257,22.69376 1.11271,1.90779 2.57382,4.70222 3.39062,6.48467 0.48778,1.06443 0.75583,1.55186 0.86304,1.56933 0.30442,0.0496 2.31317,-1.38134 3.2498,-2.31501 1.1744,-1.17071 1.47924,-1.75429 1.5227,-2.91504 0.0411,-1.09896 -0.15479,-1.65092 -1.06505,-3.00042 -2.49218,-3.69473 -6.18983,-7.61484 -12.86218,-13.63605 -3.19164,-2.88017 -8.26518,-6.99863 -11.20323,-9.09425 -1.12941,-0.80556 -1.14695,-0.81622 -1.14695,-0.69652 z m 6.17589,9.06915 c 0,0.037 0.17989,0.64255 0.39976,1.34546 1.29858,4.15161 2.75863,11.54836 3.61336,18.30584 0.43027,3.40161 0.7505,7.11872 0.75233,8.73246 9.1e-4,1.12042 0.0479,1.45776 0.20162,1.45776 0.22398,0 2.19116,-1.42729 2.90991,-2.11127 1.96823,-1.87303 2.65793,-3.65726 2.44195,-6.31718 -0.40383,-4.97312 -2.93151,-10.96227 -7.50179,-17.77497 -1.75045,-2.6093 -2.81714,-3.98685 -2.81714,-3.6381 z m 0.93279,7.63037 c -0.0226,0.10918 -0.18573,1.09181 -0.36254,2.18362 -1.22311,7.55244 -3.56735,17.22102 -5.9461,24.52405 -0.27421,0.84188 -0.41298,1.39591 -0.36232,1.44657 0.11623,0.11623 1.15208,-0.52119 1.90029,-1.16935 1.64757,-1.42725 3.10294,-3.57135 3.74487,-5.51709 0.65798,-1.99436 1.2552,-5.73547 1.54638,-9.68692 0.24417,-3.31346 0.14128,-8.61395 -0.21851,-11.2579 -0.0484,-0.35532 -0.0879,-0.66301 -0.0879,-0.68376 0,-0.0208 -0.0389,-0.0378 -0.0866,-0.0378 -0.0477,0 -0.10502,0.0893 -0.12761,0.19852 z m -2.93613,10.3626 c -0.14304,0.18421 -0.79059,1.12897 -1.43901,2.09946 -5.58558,8.36008 -11.58445,16.47917 -15.77533,21.35094 -0.25046,0.29115 -0.45573,0.55914 -0.45616,0.59553 -0.002,0.15005 0.31284,0.0409 1.18768,-0.41165 4.39706,-2.27507 8.48043,-6.89499 12.35293,-13.97611 1.16059,-2.12219 2.74699,-5.50088 3.77691,-8.04396 0.77264,-1.90777 0.84779,-2.25141 0.35298,-1.61421 z"
             id="path6812"
             inkscape:connector-curvature="0" />
          <path
             style="fill:#333333;fill-opacity:1"
             d="m -308.47304,616.03631 c -4.71964,0.85925 -8.34529,2.76937 -11.72847,6.17895 -2.79079,2.81256 -4.44173,5.66074 -5.56462,9.6 -0.40238,1.41161 -0.42517,1.92421 -0.49441,11.12569 -0.0624,8.28997 -0.0283,9.88197 0.24208,11.32514 0.81036,4.32458 3.0166,8.30799 6.33033,11.42949 3.24969,3.06118 6.81823,4.79592 11.72699,5.70074 0.84162,0.15514 12.56937,0.21673 41.26528,0.21673 23.45516,0 40.13415,0.0722 40.1971,0.17407 0.0592,0.0957 -0.12956,0.84676 -0.4194,1.66894 -0.5094,1.44502 -0.51493,1.50365 -0.16585,1.75891 0.84531,0.61811 3.22102,0.95777 6.61204,0.94536 2.97518,-0.0109 3.48802,-0.0643 5.23544,-0.54474 6.13254,-1.68627 11.35354,-6.07395 13.89371,-11.67619 0.76606,-1.68949 0.73979,-1.95968 -0.22817,-2.34697 -0.91201,-0.36492 -0.92464,-0.20394 0.21838,-2.78438 0.44903,-1.01373 1.03858,-2.67256 1.31011,-3.68629 0.48889,-1.82529 0.4944,-1.93011 0.56809,-10.81595 0.0706,-8.51872 0.054,-9.06855 -0.33023,-10.86485 -0.85465,-3.99635 -2.05208,-6.64953 -4.31262,-9.55565 -2.65533,-3.41366 -6.9229,-6.22594 -11.40732,-7.51731 l -1.84314,-0.53077 -44.81751,-0.0343 c -37.37169,-0.0285 -45.06178,0.0106 -46.28781,0.23338 z m 92.75445,2.37954 c 0.90701,0.24003 2.52219,0.86407 3.58927,1.38675 5.38608,2.6382 9.134,7.59429 10.26945,13.57987 0.43395,2.28763 0.44536,17.96983 0.0149,20.43849 -0.34715,1.99067 -1.26436,4.60798 -2.04772,5.84319 -0.48209,0.76018 -0.64079,0.8804 -1.03246,0.7821 -0.42105,-0.10572 -0.53359,0.0296 -1.24746,1.49951 -0.43155,0.88861 -1.10187,1.98432 -1.48957,2.4349 -0.98814,1.14839 -3.83615,2.99877 -5.75373,3.73827 -3.10159,1.1961 -2.89576,1.18345 -18.27708,1.1235 l -14.00092,-0.0545 -1.88567,-0.65306 c -6.14783,-2.1292 -10.57621,-7.18388 -12.09104,-13.80107 -0.28121,-1.22839 -0.35427,-3.05733 -0.46886,-11.73792 l -0.13574,-10.2828 -0.51113,-1.86589 c -0.28112,-1.02624 -0.69618,-2.33584 -0.92235,-2.91023 -1.19033,-3.02293 -3.42784,-6.3456 -5.71218,-8.48249 -0.70595,-0.66038 -1.22877,-1.28929 -1.16184,-1.3976 0.0817,-0.13208 8.53231,-0.17723 25.66837,-0.13714 l 25.54666,0.0597 1.64913,0.43643 z m -34.40537,10.83722 c -0.0711,0.0711 -0.12934,6.61914 -0.12934,14.55114 l 0,14.42179 10.86485,0 10.86484,0 0,-2.91023 0,-2.91023 -7.44582,0 c -6.11575,0 -7.48576,-0.0481 -7.66938,-0.26936 -0.15056,-0.18142 -0.20583,-1.11576 -0.16927,-2.86172 l 0.0543,-2.59236 7.08155,-0.10551 c 3.89485,-0.058 7.10572,-0.12349 7.13525,-0.14552 0.0295,-0.022 0.0295,-1.32782 0,-2.90177 l -0.0537,-2.86172 -7.08156,-0.10306 c -3.89485,-0.0566 -7.10337,-0.12218 -7.13005,-0.14552 -0.0267,-0.0233 -0.0485,-2.52134 -0.0485,-5.5511 0,-4.84422 -0.037,-5.52288 -0.3069,-5.62645 -0.41836,-0.16054 -5.80459,-0.15008 -5.96626,0.0116 z m 26.08464,0.13525 c -0.15849,0.19098 -0.2056,2.9576 -0.16927,9.94328 l 0.0504,9.67867 3.00724,0 3.00724,0 0.0504,-9.78518 c 0.0396,-7.69956 -0.002,-9.81826 -0.19402,-9.94031 -0.13439,-0.0853 -1.43411,-0.15646 -2.88828,-0.15809 -1.99902,-0.002 -2.69752,0.0615 -2.86355,0.26163 z m 1.41066,22.80635 c -0.97647,0.44343 -1.73722,1.4005 -1.9831,2.49487 -0.66891,2.97706 2.35036,5.26034 5.15842,3.90098 2.65595,-1.28572 2.51426,-5.15373 -0.23454,-6.40234 -0.99927,-0.45391 -1.93149,-0.45184 -2.94078,0.006 z m 7.71645,6.29849 c -0.6529,1.15688 -1.62058,2.0443 -2.94055,2.69663 -0.72143,0.35653 -1.21975,0.43443 -2.86908,0.44853 -1.0978,0.01 -2.07019,0.0967 -2.16085,0.19401 -0.30777,0.3304 -1.43686,4.09494 -1.31974,4.40016 0.18081,0.47117 2.12283,0.78393 4.21464,0.67878 3.30766,-0.16629 6.35074,-1.65292 8.38356,-4.0956 1.17335,-1.40992 2.26684,-3.52448 1.97403,-3.8173 -0.26196,-0.26195 -3.86082,-1.54843 -4.33165,-1.54843 -0.23495,0 -0.5678,0.36536 -0.95036,1.04322 z m -87.94564,-29.19587 c 0.26962,0.17082 1.03201,2.65935 4.01256,13.09759 1.64667,5.76681 1.89884,6.51855 2.1144,6.30298 0.059,-0.0589 1.33456,-4.37508 2.83471,-9.59143 1.50014,-5.21634 2.82062,-9.59641 2.93438,-9.73348 0.23201,-0.27955 4.53609,-0.35929 4.9571,-0.0918 0.30146,0.1915 7.83348,28.60053 7.63697,28.80488 -0.0799,0.083 -1.4038,0.12674 -2.94203,0.097 l -2.79678,-0.054 -2.07406,-8.99921 c -1.14075,-4.94956 -2.16053,-9.08567 -2.26621,-9.19134 -0.22369,-0.22369 -0.0106,-0.90866 -3.04032,9.75088 -1.25886,4.4284 -2.3726,8.16076 -2.47498,8.29415 -0.21432,0.27924 -5.28478,0.35475 -5.45383,0.0812 -0.0548,-0.0887 -1.1971,-3.88648 -2.53838,-8.43948 -2.75096,-9.3382 -2.76463,-9.37971 -3.00649,-9.1347 -0.0962,0.0974 -1.01227,3.9313 -2.03582,8.51976 -1.02354,4.58846 -1.94379,8.53909 -2.04498,8.77919 -0.17958,0.42605 -0.25632,0.43654 -3.19538,0.43654 -2.91591,0 -3.01139,-0.0128 -3.01139,-0.40158 0,-0.34633 6.8492,-26.16742 7.391,-27.86361 0.10857,-0.3399 0.30163,-0.66042 0.42901,-0.71224 0.409,-0.16639 4.2964,-0.12495 4.57052,0.0487 z m 33.86622,-0.0558 c 0.27428,0.10531 0.30688,1.1674 0.30688,9.99684 l 0,9.87908 -2.95873,-0.0536 -2.95872,-0.0535 -0.0504,-9.78519 c -0.0396,-7.69955 0.002,-9.81826 0.19402,-9.94031 0.28414,-0.18039 5.01204,-0.21783 5.46687,-0.0433 z m -0.97761,23.06896 c 1.8831,0.89359 2.42913,3.68463 1.06109,5.42382 -0.94177,1.19727 -2.98845,1.61684 -4.39219,0.90042 -0.88911,-0.45379 -1.29741,-0.89452 -1.68249,-1.81616 -1.30173,-3.11545 1.89361,-5.98861 5.01359,-4.50808 z m 72.40565,13.20862 c -3.54753,7.62788 -9.99744,12.75701 -18.16341,14.44405 -3.5937,0.74243 -8.33701,0.54134 -11.91515,-0.50513 -0.77104,-0.2255 -1.00581,-0.23289 -1.18423,-0.0373 -0.1224,0.13419 -0.5441,1.15436 -0.9371,2.26706 -0.582,1.64778 -0.66824,2.069 -0.4649,2.27055 0.33455,0.33161 3.71121,1.16236 5.8711,1.44445 2.26448,0.29575 7.46662,0.13171 9.51176,-0.29994 5.32472,-1.12382 9.80944,-3.2702 13.81796,-6.61329 2.27346,-1.89604 4.03776,-3.87602 5.7865,-6.49389 1.37999,-2.06588 3.19382,-5.70682 3.2516,-6.52706 0.0361,-0.51193 -0.0522,-0.56773 -1.99944,-1.26472 -1.12044,-0.40103 -2.16811,-0.73142 -2.32818,-0.73421 -0.1822,-0.003 -0.64832,0.76316 -1.24651,2.04941 z"
             id="path6825"
             inkscape:connector-curvature="0"
             sodipodi:nodetypes="ssssssssssssssssssssscsscssssssssscssscsssssccccscccccssscscscscsscccscccsccccsssccsscssssssssssssscscsssscssssssssssscccscsssssscsscsssssssssc" />
        </g>
      </g>
    </g>
  </g>
</svg>
