<?xml version="1.0" encoding="UTF-8" standalone="no"?>
<!-- Created with Inkscape (http://www.inkscape.org/) -->

<svg
   xmlns:dc="http://purl.org/dc/elements/1.1/"
   xmlns:cc="http://creativecommons.org/ns#"
   xmlns:rdf="http://www.w3.org/1999/02/22-rdf-syntax-ns#"
   xmlns:svg="http://www.w3.org/2000/svg"
   xmlns="http://www.w3.org/2000/svg"
   xmlns:sodipodi="http://sodipodi.sourceforge.net/DTD/sodipodi-0.dtd"
   xmlns:inkscape="http://www.inkscape.org/namespaces/inkscape"
   width="100mm"
   height="60mm"
   viewBox="0 0 100 60"
   version="1.1"
   id="svg8"
   inkscape:version="0.92.3 (2405546, 2018-03-11)"
   sodipodi:docname="stamps.svg">
  <defs
     id="defs2" />
  <sodipodi:namedview
     id="base"
     pagecolor="#ffffff"
     bordercolor="#666666"
     borderopacity="1.0"
     inkscape:pageopacity="0.0"
     inkscape:pageshadow="2"
     inkscape:zoom="0.98994949"
     inkscape:cx="187.47096"
     inkscape:cy="128.45586"
     inkscape:document-units="mm"
     inkscape:current-layer="layer1"
     showgrid="false"
     showguides="false"
     inkscape:window-width="1920"
     inkscape:window-height="1009"
     inkscape:window-x="0"
     inkscape:window-y="0"
     inkscape:window-maximized="1" />
  <metadata
     id="metadata5">
    <rdf:RDF>
      <cc:Work
         rdf:about="">
        <dc:format>image/svg+xml</dc:format>
        <dc:type
           rdf:resource="http://purl.org/dc/dcmitype/StillImage" />
        <dc:title></dc:title>
      </cc:Work>
    </rdf:RDF>
  </metadata>
  <g
     inkscape:label="Layer 1"
     inkscape:groupmode="layer"
     id="layer1"
     transform="translate(0,-237)">
    <g
       id="g60"
       transform="translate(-41.199401,140.41384)">
      <circle
         r="17.5"
         cy="127.36459"
         cx="70.983627"
         id="path33"
         style="opacity:1;fill:#000000;fill-opacity:1;stroke:none;stroke-width:0.07619999;stroke-miterlimit:4;stroke-dasharray:none" />
      <g
         style="fill:#ffffff;stroke-width:1.66674268"
         transform="matrix(-0.15874276,0,0,0.15874276,81.142905,117.20584)"
         id="g18">
        <path
           inkscape:connector-curvature="0"
           d="m 16.31,35.5 c 0.96,-0.37 2,-0.83 3.14,-1.41 -3.7,12.34 -5.88,25.26 -7.7,37.4 -0.66,4.47 -1.29,8.84 -1.62,13.3 -0.06,0.82 -0.16,1.66 -0.26,2.49 -0.31,2.6 -0.63,5.29 0.01,8.1 0.68,3 2.77,4.93 5.33,4.93 1.2,0 2.41,-0.42 3.58,-1.26 3.15,-2.25 3.2,-6.05 3.25,-8.83 0.01,-0.57 0.01,-1.12 0.05,-1.64 0.29,-4.17 0.78,-8.54 1.5,-13.38 l 0.22,-1.5 c 2.41,-16.18 4.9,-32.91 12.34,-47.35 l 0.66,-1.28 c 2.55,-4.85 6.04,-11.5 3.85,-17.63 -0.82,-2.29 -2.95,-3.77 -5.43,-3.77 -1.08,0 -2.17,0.3 -3.16,0.87 -1.74,1.03 -2.96,2.61 -4.03,4 -0.54,0.7 -1.05,1.37 -1.57,1.88 -3.19,3.19 -6.32,6.26 -9.67,8.82 -1.55,1.19 -3.22,2.29 -4.65,3.23 -0.22,0.15 -0.54,0.32 -0.9,0.52 -0.74,0.42 -1.59,0.9 -2.24,1.39 -0.31,0.24 -0.66,0.47 -0.99,0.7 -1.8,1.22 -4.81,3.25 -3.85,7.28 0.32,1.31 1.41,3.58 5.19,4.01 2.51,0.28 4.57,0.02 6.95,-0.87 z"
           style="fill:#ffffff;stroke-width:1.66674268"
           id="path10" />
        <path
           inkscape:connector-curvature="0"
           d="m 33.61,70.06 c 2.15,4.3 5.72,7.24 10.63,8.74 1.32,0.4 2.66,0.61 4.01,0.61 13.07,0 22.47,-18.37 24.98,-25.44 0.99,-2.77 1.8,-5.41 2.46,-7.95 0.05,0.66 0.11,1.31 0.2,1.97 0.76,5.5 3.1,10.04 6.78,13.12 2.41,2.02 5.97,3.49 9.54,3.94 1.4,0.18 2.87,0.27 4.28,0.27 2.65,0 4.93,-0.31 6.75,-0.93 1.62,-0.55 3.2,-1.29 4.7,-2.21 6.77,-4.17 10.59,-11.02 12.6,-16.04 4.8,-11.94 5.6,-29.22 -3.96,-38.94 -2.29,-2.33 -5.16,-4.03 -8.29,-4.92 -0.6,-0.17 -1.21,-0.29 -1.83,-0.41 L 105.8,1.74 C 105.55,1.69 105.29,1.59 105.04,1.51 104.71,1.4 104.37,1.29 104.04,1.2 103.51,1.07 103.02,1 102.48,1 h -0.01 C 100.96,1.02 99.68,1.42 98.54,1.78 97.96,1.96 97.38,2.15 96.77,2.26 93.36,2.89 90.13,4.05 87.02,5.17 85.18,5.84 83.43,6.47 81.64,7 76.93,8.39 73.08,8.45 67.54,7.14 L 67.13,7.04 C 65.96,6.75 64.95,6.49 63.07,6.92 62.15,7.12 60.9,7.4 59.84,8.77 l -0.28,0.45 -0.1,0.2 -0.27,0.14 C 48.86,15.2 40.26,26.29 34.98,40.77 32.93,46.32 28.75,60.3 33.61,70.06 Z M 43.6,55.54 c 0.82,-9.61 5.34,-19.96 12.43,-28.39 2.81,-3.34 4.8,-5.03 5.93,-5.03 0.45,0 1.24,0.79 2.01,3.01 1.48,4.27 1.66,9.33 0.53,15.04 -0.4,2.01 -0.96,4.08 -1.68,6.13 -1.72,4.94 -3.77,10.09 -7.16,14.23 -1.31,1.6 -3.22,2.94 -5.24,3.66 C 48.16,65 46.51,64.85 45.38,63.61 43.98,62.1 43.3,59.01 43.6,55.54 Z M 90.3,31.28 c 0.92,-3.07 2.43,-6.19 4.49,-9.26 l 0.28,-0.41 c 1.11,-1.65 3.68,-5.51 5.25,-6.18 0.56,-0.24 1.09,-0.46 1.58,-0.66 h 0.01 c 2.64,0 4.64,0.86 6.12,2.63 3.34,4 3.36,11.77 2.35,17.21 -1.73,9.42 -6,15.16 -13.05,17.52 -2.79,0.93 -4.72,0.61 -6.09,-1.22 C 88.12,46.71 88.7,36.63 90.3,31.28 Z M 77.36,26.75 c -0.2,-1.55 -0.49,-3.06 -0.87,-4.5 -0.09,-0.34 -0.22,-0.69 -0.36,-1.05 0.42,-0.1 0.95,-0.15 1.5,-0.2 0.6,-0.05 1.19,-0.11 1.75,-0.22 0.58,-0.11 1.13,-0.24 1.63,-0.37 -1.62,2.9 -2.65,6.04 -3.41,9.04 -0.05,-0.92 -0.12,-1.82 -0.24,-2.7 z"
           style="fill:#ffffff;stroke-width:1.66674268"
           id="path12" />
        <path
           inkscape:connector-curvature="0"
           d="m 99.97,71.84 -3.31,0.51 c -19.07,2.87 -35.8,6.82 -51.13,12.08 -4.25,1.45 -8.82,3.14 -13.99,5.14 -0.39,0.15 -0.78,0.27 -1.17,0.39 -1.78,0.55 -5.49,1.69 -5.02,6.19 0.32,2.94 2.37,5 4.98,5 h 0.26 c 1,-0.05 1.93,-0.44 2.75,-0.78 0.32,-0.13 0.63,-0.27 0.91,-0.35 1.43,-0.38 2.94,-0.85 4.76,-1.48 16.61,-5.72 33.28,-10.91 49.54,-15.41 l 5.15,-1.41 c 2.7,-0.74 5.41,-1.47 8.1,-2.23 1.93,-0.55 3.08,-2.28 2.82,-4.2 -0.31,-2.21 -2.3,-3.81 -4.65,-3.45 z"
           style="fill:#ffffff;stroke-width:1.66674268"
           id="path14" />
        <path
           inkscape:connector-curvature="0"
           d="m 118.86,81.57 -8.27,1.78 c -16.2,3.48 -32.96,7.08 -49.14,11.98 -10.31,3.12 -20.22,6.87 -31.17,11.1 -5.45,2.1 -10.65,4.87 -15.03,7.31 -0.35,0.2 -0.78,0.4 -1.24,0.61 -2,0.94 -4.74,2.23 -5.62,4.77 -1.06,3.05 0.89,6.09 3.38,7.27 0.85,0.4 1.67,0.6 2.49,0.6 1.25,0 2.29,-0.46 3.06,-0.86 0.77,-0.41 1.58,-0.77 2.39,-1.13 0.76,-0.34 1.52,-0.68 2.25,-1.05 C 43.29,113.28 66.4,105.64 86.37,99.32 92.62,97.34 99.36,95.35 107,93.24 l 1.22,-0.34 c 4.21,-1.17 8.43,-2.33 12.64,-3.52 1.97,-0.56 3.15,-2.36 2.86,-4.37 -0.29,-2.35 -2.52,-3.95 -4.86,-3.44 z"
           style="fill:#ffffff;stroke-width:1.66674268"
           id="path16" />
      </g>
    </g>
    <g
       id="g52"
       transform="translate(-41.199401,140.22917)">
      <circle
         style="opacity:1;fill:#000000;fill-opacity:1;stroke:none;stroke-width:0.07619999;stroke-miterlimit:4;stroke-dasharray:none"
         id="circle48"
         cx="111.49387"
         cy="127.54926"
         r="17.5" />
      <path
         inkscape:connector-curvature="0"
         d="m 114.27559,134.27131 6.31635,-6.22054 c 0.15237,-0.15087 0.15415,-0.39646 0,-0.54733 l -1.59459,-1.58057 c -0.15237,-0.15086 -0.39865,-0.15086 -0.55103,0 l -4.15834,4.09265 c -0.15237,0.15086 -0.40039,0.14911 -0.55278,-0.002 l -9.18837,-9.18523 c -0.15238,-0.15262 -0.40042,-0.15262 -0.55457,-0.002 l -1.59636,1.58056 c -0.15236,0.15087 -0.15236,0.39472 -0.002,0.54558 l 10.01049,10.00093 -0.002,0.002 1.31996,1.31392 c 0.15238,0.15087 0.40042,0.15087 0.5528,0.002 z"
         style="fill:#ffffff;stroke:#ffffff;stroke-width:1.5875001;stroke-miterlimit:10"
         id="path37" />
    </g>
  </g>
</svg>
