<?xml version="1.0" encoding="UTF-8" standalone="no"?>
<!-- Created with Inkscape (http://www.inkscape.org/) -->

<svg
   xmlns:dc="http://purl.org/dc/elements/1.1/"
   xmlns:cc="http://creativecommons.org/ns#"
   xmlns:rdf="http://www.w3.org/1999/02/22-rdf-syntax-ns#"
   xmlns:svg="http://www.w3.org/2000/svg"
   xmlns="http://www.w3.org/2000/svg"
   xmlns:sodipodi="http://sodipodi.sourceforge.net/DTD/sodipodi-0.dtd"
   xmlns:inkscape="http://www.inkscape.org/namespaces/inkscape"
   version="1.1"
   id="svg14121"
   width="384.20508"
   height="384.20312"
   viewBox="0 0 384.20508 384.20312"
   sodipodi:docname="delphicbird.svg"
   inkscape:version="0.92.4 (5da689c313, 2019-01-14)">
  <metadata
     id="metadata14127">
    <rdf:RDF>
      <cc:Work
         rdf:about="">
        <dc:format>image/svg+xml</dc:format>
        <dc:type
           rdf:resource="http://purl.org/dc/dcmitype/StillImage" />
        <dc:title></dc:title>
      </cc:Work>
    </rdf:RDF>
  </metadata>
  <defs
     id="defs14125" />
  <sodipodi:namedview
     pagecolor="#ffffff"
     bordercolor="#666666"
     borderopacity="1"
     objecttolerance="10"
     gridtolerance="10"
     guidetolerance="10"
     inkscape:pageopacity="0"
     inkscape:pageshadow="2"
     inkscape:window-width="2560"
     inkscape:window-height="1377"
     id="namedview14123"
     showgrid="false"
     inkscape:zoom="0.78666669"
     inkscape:cx="126.1313"
     inkscape:cy="347.15522"
     inkscape:window-x="-8"
     inkscape:window-y="-8"
     inkscape:window-maximized="1"
     inkscape:current-layer="g18377"
     fit-margin-top="0"
     fit-margin-left="0"
     fit-margin-right="0"
     fit-margin-bottom="0" />
  <g
     id="g18377"
     transform="translate(-19.130445,-140.93553)">
    <path
       style="fill:#483737"
       d="m 269.6582,83.408203 c -106.06552,0 -192.101559,86.036047 -192.101559,192.101567 0,106.06552 86.036039,192.10156 192.101559,192.10156 106.06552,0 192.10352,-86.03604 192.10352,-192.10156 0,-106.06552 -86.038,-192.101567 -192.10352,-192.101567 z m 0,5 c 103.36332,0 187.10352,83.738247 187.10352,187.101567 0,18.29743 -2.6348,35.97566 -7.52734,52.6875 -2.28142,-1.24537 -4.6575,-2.44261 -7.16797,-3.61719 -25.76633,-12.05536 -31.4407,-14.99569 -37.18555,-19.26367 -6.6433,-4.93545 -10.90168,-10.69735 -16.2207,-21.95508 l -3.1543,-6.67774 3.47266,-5.75 c 6.06545,-10.04425 8.93446,-18.91068 10.71679,-33.125 2.53642,-20.22838 -4.92435,-36.55971 -19.14062,-41.90039 -6.17435,-2.31954 -5.86567,-0.97061 -3.97461,-17.38086 0.67544,-5.86131 1.30404,-14.92098 1.39844,-20.13281 0.14878,-8.21133 -0.0932,-9.77212 -1.82422,-11.69531 -4.20743,-4.67449 -6.72272,-5.18872 -29.91602,-6.12305 -5.06022,-0.20385 -9.96984,-0.32385 -14.71094,-0.35937 -33.18769,-0.24868 -58.10767,3.57079 -68.48242,10.67968 -5.42142,3.71481 -8.21376,11.1778 -9.64844,25.78711 -0.19262,1.96146 -1.64627,3.23983 -6.74609,5.93555 -9.2079,4.86722 -16.44843,12.39142 -18.46289,19.18359 -1.5624,5.26795 -1.76952,5.47567 -9.81641,9.88086 -6.29035,3.44359 -11.19885,7.39548 -20.9082,16.83399 l -12.6875,12.33398 -10.8125,0.92969 c -42.77911,3.67252 -72.69314,18.51621 -84.876952,42.11914 -3.931824,7.61687 -2.88834,12.62194 1.96875,9.43945 3.990977,-2.61498 13.677382,-4.90195 20.521482,-4.84375 4.3164,0.0367 11.04055,1.28893 19.57422,3.64453 20.86881,5.76056 45.96775,10.54297 55.33008,10.54297 9.3799,0 13.4414,1.34138 19.77734,6.53321 5.61613,4.602 8.99281,11.97955 11.06055,24.1582 1.95976,11.54258 1.1149,22.52242 -3.14258,40.80859 -3.63519,15.61338 -6.47699,56.75575 -4.74219,68.65821 0.53092,3.64263 1.44923,7.22844 2.74414,10.76562 C 136.95623,429.36078 82.556641,358.81549 82.556641,275.50977 82.556641,172.14645 166.29488,88.408203 269.6582,88.408203 Z m 59.20508,55.291017 c 9.00741,9.2e-4 18.62461,0.28159 28.66016,0.85742 12.03707,0.69068 12.43935,0.7898 14.87304,3.61914 2.4597,2.85957 2.48949,3.10089 1.79102,14.44336 -0.62978,10.22689 -1.94211,20.55449 -4.10742,32.31445 l -0.69141,3.75 3.88086,0.01 c 5.59139,0.0135 13.80218,5.00867 17.30078,10.52539 4.43639,6.99547 5.42628,12.08152 4.81446,24.74414 -0.94657,19.59092 -6.32056,32.26007 -19.22852,45.32031 -5.76415,5.83215 -9.90258,9.02351 -14.78516,11.40235 -14.58222,7.10461 -29.53231,4.36535 -42.83789,-7.84766 -13.26856,-12.17905 -18.01335,-28.7904 -12.44726,-43.57812 4.34675,-11.54824 9.41085,-18.06087 20.82617,-26.79297 2.74218,-2.09762 3.70902,-3.69578 4.24023,-7 0.37861,-2.35499 1.99606,-10.94368 3.59375,-19.08399 3.35384,-17.088 3.64366,-22.84124 1.25196,-24.82617 -1.20223,-0.99776 -7.53767,-1.62145 -23.25,-2.28906 -32.15271,-1.36616 -39.09766,-1.00596 -39.09766,2.02148 0,1.34494 1.05983,1.46677 7.5,0.86328 4.125,-0.38655 7.48228,-0.31305 7.45899,0.16407 -0.0233,0.47712 -0.61968,4.69218 -1.32422,9.36718 -0.94398,6.26377 -1.65572,8.45725 -2.70704,8.33399 -0.78464,-0.092 -4.09866,-0.69368 -7.36328,-1.33594 -3.26462,-0.64226 -9.11462,-1.01628 -13,-0.83203 l -7.06445,0.33398 0.22266,-5 c 0.61004,-13.79951 3.13206,-18.47559 12.02148,-22.28711 10.90943,-4.67804 32.44654,-7.20002 59.46875,-7.19726 z m 74.97852,16.95898 c -1.41043,0.25506 -2.0335,3.20252 -2.10157,9.00586 -0.0831,7.08342 -4.18802,15.5923 -9.08984,18.83985 -3.96538,2.62714 -4.49667,4.53851 -1.38672,4.98242 4.46996,0.63804 12.48754,-9.20138 13.93164,-17.09571 1.56276,-8.54293 5.69808,0.72858 5.70508,12.79297 0.005,8.38306 -1.60789,14.386 -5.22851,19.47071 -1.11159,1.56107 -2.02149,3.13587 -2.02149,3.5 0,0.36413 1.2375,0.51973 2.75,0.3457 2.23858,-0.25757 3.29835,-1.41303 5.69922,-6.21875 5.84421,-11.69811 4.2652,-30.78916 -3.42578,-41.40625 -2.16135,-2.98365 -3.73504,-4.41517 -4.83203,-4.2168 z m -110.69141,2.52539 19.5,0.36133 c 10.725,0.19878 19.8375,0.56437 20.25,0.81055 0.4125,0.24618 0.75085,1.65863 0.75,3.13867 -0.002,2.86985 -3.46521,22.18943 -5.09766,28.43945 -1.07548,4.11758 -0.61954,4.01177 -10.90234,2.54493 -11.57368,-1.65099 -11,-1.33474 -11,-6.07032 0,-2.33066 0.39737,-5.62184 0.88281,-7.31445 1.22994,-4.28856 -0.21116,-6.41016 -4.35547,-6.41016 -2.19935,0 -4.48175,0.93183 -6.55664,2.67774 -2.45548,2.06615 -3.55776,2.44347 -4.82617,1.64844 -2.30593,-1.44535 -2.48846,-8.71085 -0.37304,-14.82618 z m -24.89648,18.08399 c 5.80252,-0.0224 11.66005,0.83742 15.89648,2.52734 6.807,2.71534 7.68336,4.52837 4.60156,9.52735 -1.88505,3.05773 -2.17089,3.15252 -11.26757,3.79687 -13.83727,0.98013 -23.27412,2.41003 -33.33399,5.04883 -4.95,1.29843 -9.85849,2.69534 -10.9082,3.10547 -1.70454,0.66597 -1.83968,0.40349 -1.26563,-2.4668 1.45348,-7.2674 12.38956,-16.46178 23.62696,-19.86328 3.65729,-1.10704 8.13731,-1.65837 12.65039,-1.67578 z m 34.1914,1.34765 c 0.29691,-0.009 0.54873,0.078 0.7461,0.27539 0.21437,0.21437 -0.0786,3.40475 -0.65235,7.08985 -0.74563,4.78897 -0.72923,7.65576 0.0605,10.04883 1.91284,5.79597 6.90317,12.69017 10.18555,14.07031 l 3.11132,1.30664 -3.4414,3.88867 c -5.66436,6.40103 -9.50696,12.57821 -11.28516,18.13867 -0.9234,2.8875 -1.98131,5.2224 -2.34961,5.1875 -2.33145,-0.22069 -5.33773,-2.24477 -7.32422,-4.93164 -3.42579,-4.63363 -11.15649,-8.92718 -20.1875,-11.21093 -9.89395,-2.50197 -15.01548,-1.64822 -24.95507,4.16015 -10.00187,5.84475 -15.46159,7.05546 -34.95704,7.75586 l -17.11718,0.61524 3.93554,-4.71289 c 5.42374,-6.49523 14.4637,-13.97068 21.97266,-18.16993 14.20955,-7.94644 35.45197,-13.31524 54.28711,-13.7207 l 10.30469,-0.22266 0.38476,5.32813 c 0.52759,7.31808 3.92138,14.17187 7.01758,14.17187 3.27484,0 4.14861,-1.96252 1.73047,-3.88671 -1.11473,-0.88704 -2.53016,-2.59554 -3.14453,-3.79688 -1.41183,-2.76064 -1.43036,-10.64648 -0.0371,-15.66406 1.80898,-6.5148 8.84473,-15.63482 11.71484,-15.72071 z m 9.57031,20.06836 c 3.10521,0 12.82435,1.85559 13.55665,2.58789 0.31509,0.31508 -1.1076,2.11116 -3.16016,3.99219 -2.05256,1.88104 -4.07552,3.37657 -4.49609,3.32227 -1.39568,-0.1803 -8.27849,-7.3806 -8.27149,-8.65235 0.004,-0.6875 1.07116,-1.25 2.37109,-1.25 z m -50.0371,25 c 4.88333,0 14.41064,2.73401 19.85156,5.69532 5.18381,2.82139 8.24796,6.27356 12.38281,13.95703 3.15108,5.85539 2.93543,9.87784 -1.20117,22.42968 -3.26955,9.92092 -8.60721,16.42633 -16.73633,20.39844 -5.50157,2.68819 -15.42741,4.02569 -19.625,2.64453 -8.64473,-2.84445 -15.15854,-8.4188 -20.51367,-17.55664 -2.2559,-3.84941 -2.83288,-6.25085 -3.2461,-13.49804 -0.4524,-7.93452 -0.24776,-9.37227 2.04883,-14.38868 4.78776,-10.45786 17.45914,-19.68164 27.03907,-19.68164 z m -1.4375,8.19336 c -6.60177,0.0492 -11.32056,3.08689 -16.16602,10.16407 -3.89424,5.68785 -4.20393,6.62513 -4.17773,12.64257 0.0479,11.02255 6.32392,19.17194 17.85742,23.18555 6.11091,2.12658 8.98936,1.71727 17.5957,-2.5 8.32843,-4.0811 11.66093,-8.64786 13.11328,-17.97656 0.95664,-6.14467 0.85302,-7.14783 -1.16211,-11.31055 -2.44565,-5.05204 -9.30526,-10.74089 -14.95117,-12.40039 -1.925,-0.56581 -6.04546,-1.30701 -9.1582,-1.64648 -1.02583,-0.11188 -2.00807,-0.16523 -2.95117,-0.15821 z m 97.10937,0.30664 c -1.08573,0 -1.58434,1.34591 -1.80859,4.87305 -0.1704,2.68012 -0.0719,5.49262 0.21875,6.25 0.29064,0.75738 1.23892,1.37695 2.10742,1.37695 1.30209,0 1.52674,-1.09627 1.28125,-6.25 -0.22658,-4.75657 -0.65725,-6.25 -1.79883,-6.25 z m -23.62305,3.3125 c -0.55304,0.0128 -1.27241,0.48531 -2.17578,1.38868 -1.48785,1.48785 -1.57012,8.24012 -0.13281,10.92578 1.94357,3.63159 3.42152,1.46845 3.72852,-5.45703 0.2081,-4.69437 -0.20323,-6.88552 -1.41993,-6.85743 z m -158.24218,5.1875 c 2.93256,0 2.93513,0.006 2.29101,4.86133 -0.71716,5.40622 0.0205,7.39058 5.07422,13.63867 3.76649,4.6566 13.22995,9.67627 21.79688,11.5625 3.18761,0.70184 5.99595,1.60085 6.24023,1.9961 0.80859,1.30833 -7.71442,1.85598 -38.03711,2.44922 -36.01512,0.7046 -52.64857,1.8803 -66,4.66406 -5.5,1.14674 -11.012499,2.30567 -12.249999,2.57422 -1.2375,0.26854 -2.25,0.17996 -2.25,-0.19531 0,-1.47232 2.511283,-5.28561 6.792968,-10.31836 9.240011,-10.86082 23.854081,-19.51951 41.712891,-24.71485 9.3475,-2.7193 29.52584,-6.51758 34.62891,-6.51758 z m 79.3789,0 c 6.43057,0 8.19126,6.94833 2.5293,9.97852 -4.2801,2.29064 -8.04297,0.5383 -8.04297,-3.74414 0,-4.22482 1.77822,-6.23438 5.51367,-6.23438 z m 48.32617,28.00196 c 0.91311,9.8e-4 2.92906,2.00832 4.47852,4.46093 3.66812,5.80621 12.6828,13.99622 18.83789,17.11524 15.43459,7.8213 28.96523,6.4604 44.47852,-4.47461 3.77668,-2.66211 7.72373,-5.79831 8.77148,-6.9707 2.57018,-2.87595 2.97685,-2.73209 4.54297,1.61718 2.22443,6.17743 8.6978,15.62638 14.40234,21.02149 7.34771,6.94916 14.20003,11.14805 32.23047,19.75195 5.42831,2.59032 11.4918,5.78687 16.28906,8.51563 -8.88412,27.17571 -23.8156,51.60584 -43.21289,71.70507 -7.00111,-4.91858 -7.77987,-4.89414 -10.2832,-3.2539 -1.87255,1.22694 -2.89084,1.39431 -3.68164,0.60351 -0.60121,-0.60121 -2.34353,-1.09375 -3.87305,-1.09375 -3.21484,0 -4.4454,2.94323 -3.46484,8.28711 l 0.58984,3.21289 -3.75,-4.25 c -3.92567,-4.45002 -7.0221,-5.36785 -9.21093,-2.73047 -0.99325,1.19679 -1.02674,3.57629 -0.16016,11.20508 0.60512,5.32707 0.96707,9.8181 0.80469,9.98047 -0.16237,0.16237 -1.93523,-2.06744 -3.93946,-4.95508 -2.00423,-2.88765 -5.02662,-6.7125 -6.71679,-8.5 -4.96152,-5.24724 -8.97266,-3.91475 -8.97266,2.98047 v 3.83008 l -2.85351,-2.11133 c -4.23448,-3.13067 -8.37864,-2.35321 -9.60157,1.80078 -0.52623,1.7875 -1.4518,3.25 -2.05469,3.25 -0.60286,0 -2.2502,-2.1375 -3.6621,-4.75 -2.28251,-4.22344 -2.94199,-4.75 -5.94727,-4.75 -3.31079,0 -3.37654,0.0819 -3.17578,4 l 0.20508,4 -2.00391,-3.80078 c -2.43492,-4.616 -3.96703,-5.30475 -8.17383,-3.67578 -4.21771,1.6332 -6.72837,4.55312 -6.74219,7.83789 l -0.0117,2.63867 -2.56055,-3.25 c -2.65868,-3.37345 -6.04784,-4.21778 -8.2168,-2.04882 -0.67937,0.67937 -1.20117,3.93333 -1.20117,7.5 0,3.465 -0.44218,6.29882 -0.98242,6.29882 -0.54025,0 -2.63805,-3.62286 -4.66211,-8.05078 -3.33923,-7.30507 -3.91962,-8.02289 -6.26758,-7.75 -3.11654,0.36223 -6.10346,5.77503 -6.85156,12.41211 -0.27209,2.41401 -0.82703,4.38867 -1.23242,4.38867 -1.95754,0 -11.39494,-17.50965 -14.55274,-27 -2.35655,-7.08229 -2.42403,-20.43918 -0.14062,-28.12109 2.38831,-8.03479 8.87912,-17.15106 17.08984,-24.00391 8.89097,-7.42061 21.71357,-13.98602 28.60742,-14.64843 3.99827,-0.38419 5.02403,-0.83626 4.78321,-2.10743 -0.25618,-1.3522 -2.20779,-2.00231 -4.9668,-1.96093 -2.75901,0.0414 -6.32582,0.77331 -9.8125,2.18164 -9.20241,3.71702 -16.51192,8.45808 -24.53711,15.91406 -11.73592,10.90353 -16.92794,21.01924 -18.14062,35.3457 -1.46462,17.30278 8.03893,39.40411 26.10156,60.69532 3.23182,3.80948 6.83312,7.25175 10.91797,10.41601 -7.00641,0.79523 -14.12597,1.2168 -21.34571,1.2168 -17.8505,0 -35.11516,-2.49944 -51.46484,-7.16406 -1.28418,-2.76355 -2.2894,-5.53154 -3.01172,-8.30469 -3.14202,-12.06306 -1.22435,-49.45928 3.74024,-72.95899 2.72002,-12.87514 3.16219,-16.98321 3.12109,-29 -0.0426,-12.46664 -0.34553,-14.90392 -2.76758,-22.26367 -2.3016,-6.99377 -3.63553,-9.24504 -8.67187,-14.6289 -3.27347,-3.49935 -5.95313,-6.8908 -5.95313,-7.53711 0,-2.10975 12.27617,-7.03155 20.05469,-8.04102 12.6438,-1.64088 19.75327,-1.26412 27.44531,1.45508 8.45315,2.98825 12.42104,3.10806 20.41797,0.61914 6.25315,-1.9462 15.01249,-7.82008 17.63867,-11.82813 2.0626,-3.14793 11.278,-10.27543 13.2832,-10.27343 z m -86.05859,8.56054 c 2.52031,-0.0397 3.29623,0.33601 3.99805,1.24414 2.76837,3.58217 1.30308,4.8179 -8.58594,7.24415 -2.38925,0.58618 -6.00352,2.59062 -8.11914,4.50195 -2.09739,1.89487 -5.10943,3.65084 -6.69336,3.90039 -7.01261,1.10487 -11.32228,1.20776 -17.54297,0.41992 -11.0249,-1.39627 -44.85305,-8.73934 -52.7539,-11.45117 -0.97181,-0.33355 -1.09454,-0.80976 -0.38868,-1.51563 0.63115,-0.63114 15.10792,-1.40002 37.41797,-1.98632 20.0133,-0.52594 40.66172,-1.36315 45.88672,-1.86133 3.12798,-0.29823 5.26907,-0.47228 6.78125,-0.4961 z m 170.88867,127.42774 c 0.95943,0.008 2.94557,1.23666 5.64453,3.54687 0.63402,0.5427 1.25314,1.03068 1.85547,1.47461 -1.91197,1.74645 -3.86612,3.44839 -5.84961,5.11524 -0.12776,-0.53083 -0.25373,-1.06089 -0.40429,-1.62696 -1.02403,-3.85 -1.87418,-7.3375 -1.88868,-7.75 -0.018,-0.51434 0.20648,-0.76324 0.64258,-0.75976 z m -12.69726,4.18359 c 1.29117,0.102 3.61848,2.27827 7.42773,6.89258 0.88483,1.07183 1.67832,1.98105 2.39844,2.75195 -2.74458,2.16464 -5.55419,4.24872 -8.41992,6.25977 -0.23064,-1.48237 -0.48813,-3.06195 -0.80664,-4.875 -0.99504,-5.66402 -1.59541,-10.51202 -1.33399,-10.77344 0.193,-0.19299 0.43641,-0.2794 0.73438,-0.25586 z m -18.05469,5.82617 c 0.57851,0 4.90338,5.20572 9.61133,11.56836 0.88347,1.19399 1.73786,2.30359 2.57226,3.36914 -7.40842,4.69851 -15.16447,8.89604 -23.23047,12.53321 -0.0928,-0.76765 -0.2005,-1.58502 -0.33203,-2.47071 -2.27881,-15.34474 -2.70574,-21 -1.58593,-21 0.57788,0 3.1557,2.7104 5.72851,6.02344 2.5728,3.31304 5.15894,5.85543 5.74805,5.64844 0.67396,-0.2368 0.9534,-3.21179 0.7539,-8.02344 -0.20248,-4.88376 0.0627,-7.64844 0.73438,-7.64844 z m -44,4.14258 c 0.79244,0.21328 2.19903,2.17064 4.16406,5.85742 2.48302,4.65861 3.71021,6 5.49024,6 1.86876,0 3.16902,1.66373 7.03711,9 1.65232,3.13382 3.18967,5.77172 4.24804,7.38477 -11.96863,4.42038 -24.51329,7.64861 -37.49219,9.54883 -4.38217,-3.00314 -8.24985,-6.18154 -11.36523,-9.41211 -3.42747,-3.55422 -3.50692,-3.82594 -3.84766,-13.11719 -0.55448,-15.11963 0.99356,-17.97242 5.23829,-9.6543 3.49244,6.84393 8.38446,13.25 10.11718,13.25 1.18621,0 1.49562,-1.49259 1.50782,-7.25 0.008,-3.9875 0.47482,-7.925 1.03515,-8.75 1.15213,-1.69632 1.03816,-1.8132 8.05274,8.25 4.78094,6.85879 7.44738,7.66662 6.60156,2 -0.30785,-2.0625 -0.87826,-5.8875 -1.26758,-8.5 -0.49027,-3.28988 -0.31197,-4.82069 0.48047,-4.60742 z m 19.58008,10.27539 c 0.61395,-0.0807 2.21373,2.4168 4.69922,7.58203 1.54159,3.20371 2.7791,5.66777 3.8125,7.57227 -1.60864,0.67095 -3.23029,1.31639 -4.86133,1.94336 -0.20659,-1.45655 -0.7802,-3.6508 -1.79297,-7.01563 -1.98277,-6.58752 -2.55323,-9.9906 -1.85742,-10.08203 z"
       transform="translate(-58.426196,57.527332)"
       id="path18379"
       inkscape:connector-curvature="0" />
  </g>
</svg>
