<?xml version="1.0" encoding="UTF-8" standalone="no"?>
<!-- Generator: Adobe Illustrator 15.1.0, SVG Export Plug-In . SVG Version: 6.00 Build 0)  -->

<svg
   xmlns:dc="http://purl.org/dc/elements/1.1/"
   xmlns:cc="http://creativecommons.org/ns#"
   xmlns:rdf="http://www.w3.org/1999/02/22-rdf-syntax-ns#"
   xmlns:svg="http://www.w3.org/2000/svg"
   xmlns="http://www.w3.org/2000/svg"
   xmlns:sodipodi="http://sodipodi.sourceforge.net/DTD/sodipodi-0.dtd"
   xmlns:inkscape="http://www.inkscape.org/namespaces/inkscape"
   version="1.1"
   id="svg3028"
   inkscape:version="0.92.4 (5da689c313, 2019-01-14)"
   sodipodi:docname="emblem.svg"
   x="0px"
   y="0px"
   width="612px"
   height="792px"
   viewBox="0 0 612 792"
   enable-background="new 0 0 612 792"
   xml:space="preserve"><metadata
   id="metadata11"><rdf:RDF><cc:Work
       rdf:about=""><dc:format>image/svg+xml</dc:format><dc:type
         rdf:resource="http://purl.org/dc/dcmitype/StillImage" /><dc:title></dc:title></cc:Work></rdf:RDF></metadata><defs
   id="defs9" />
<sodipodi:namedview
   inkscape:window-y="-8"
   inkscape:window-x="-8"
   inkscape:window-height="1377"
   inkscape:window-width="2560"
   inkscape:current-layer="layer1_1_"
   inkscape:pageshadow="2"
   inkscape:pageopacity="0.0"
   inkscape:document-units="in"
   inkscape:cy="410.15097"
   borderopacity="1.0"
   inkscape:cx="207.21426"
   pagecolor="#ffffff"
   showgrid="false"
   inkscape:zoom="2.0364676"
   bordercolor="#666666"
   inkscape:window-maximized="1"
   id="namedview3032">
	</sodipodi:namedview>
<g
   id="layer1_1_"
   inkscape:groupmode="layer"
   inkscape:label="Layer 1">
	<g
   id="g5"
   transform="translate(-2084.9217,3.6761138)"
   style="fill:#afafe9;fill-opacity:1;stroke:none">
		<path
   stroke-miterlimit="10"
   d="m 346.999,292.988 c -17.281,51.973 -79.842,-27.967 -124.28,-95.137 3.575,-30.459 19.657,-62.817 57.915,-93.513 0,0 -2.785,-33.266 33.438,-99.339 0,0 -55.939,21.682 -100.522,73.796 l -42.99,41.775 c -2.736,2.659 -22.526,-24.372 -22.526,-24.372 0,0 -60.774,33.886 -72.229,63.045 0,0 30.341,50.049 -11.146,97.2 0,0 7.958,5.923 21.074,1.211 C 50.859,301.029 16.562,329.421 5,292.988 c 0,86.78 64.645,158.454 148.404,169.511 10.245,6.096 21.442,11.754 33.638,16.643 l 2.787,-6.516 6.501,1.861 c 0,0 2.242,-4.701 6.192,-12.549 81.844,-12.746 144.477,-83.53 144.477,-168.95 z"
   id="path7"
   inkscape:connector-curvature="0"
   style="fill:#afafe9;fill-opacity:1;stroke:none;stroke-miterlimit:10" />
	</g>
<path
   style="fill:#c83737;fill-opacity:1;stroke:none;stroke-miterlimit:10"
   id="path3-1"
   sodipodi:nodetypes="ccccsccccccccc"
   inkscape:connector-curvature="0"
   stroke-miterlimit="10"
   d="m 385.47886,485.29215 c 0,0 -130.63701,-125.228 0.93,-230.792 0,0 -2.785,-33.266 33.438,-99.339 0,0 -55.938,21.682 -100.521,73.796 l -42.99,41.775 c -2.738,2.65899 -22.52801,-24.37101 -22.52801,-24.37101 0,0 -60.775,33.886 -72.23,63.045 0,0 30.341,50.049 -11.14601,97.2 0,0 23.813,17.723 56.94,-32.531 0,0 -2.59399,71.2 -55.226,152.164 0,0 37.077,69.559 120.66902,103.063 l 2.78699,-6.516 6.501,1.861 c 0.002,0 42.045,-88.171 83.37601,-139.35499 z" /><path
   style="fill:#ffe680;fill-opacity:1;stroke:none;stroke-miterlimit:10"
   inkscape:connector-curvature="0"
   stroke-miterlimit="10"
   d="m 396.5899,487.25631 c 0,0 -130.63698,-125.227 0.931,-230.792 0,0 -2.786,-23.26601 33.437,-89.33901 0,0 -39.938,17.682 -84.521,69.796 l -45.512,45.60001 c 0,0 4.645,4.963 -8.358,50.253 0,0 5.572,-51.804 -17.64698,-74.449 0,0 -50.773,23.886 -62.229,53.045 0,0 30.341,44.049 -11.146,91.2 0,0 19.814,3.723 52.941,-46.531 0,0 3.406,91.2 -49.226,172.164 0,0 25.076,59.559 108.66898,93.063 l 2.786,-6.516 6.501,1.861 c 0,10e-4 32.043,-78.171 73.374,-129.355 z"
   id="path2998" /><ellipse
   style="opacity:1;fill:#c83737;fill-opacity:1;stroke:#000000;stroke-width:3.16799998;stroke-linecap:butt;stroke-linejoin:bevel;stroke-miterlimit:4;stroke-dasharray:none;stroke-opacity:1;paint-order:fill markers stroke"
   id="path821"
   cx="-1267.1451"
   cy="99.379112"
   rx="34.618767"
   ry="45.421787" /></g>
</svg>