<?xml version="1.0" encoding="UTF-8" standalone="no"?>
<!-- Created with Inkscape (http://www.inkscape.org/) -->

<svg
   xmlns:dc="http://purl.org/dc/elements/1.1/"
   xmlns:cc="http://creativecommons.org/ns#"
   xmlns:rdf="http://www.w3.org/1999/02/22-rdf-syntax-ns#"
   xmlns:svg="http://www.w3.org/2000/svg"
   xmlns="http://www.w3.org/2000/svg"
   xmlns:sodipodi="http://sodipodi.sourceforge.net/DTD/sodipodi-0.dtd"
   xmlns:inkscape="http://www.inkscape.org/namespaces/inkscape"
   width="540"
   height="540"
   id="svg2"
   version="1.1"
   inkscape:version="0.48.4 r9939"
   sodipodi:docname="nid.svg">
  <defs
     id="defs4">
    <inkscape:perspective
       sodipodi:type="inkscape:persp3d"
       inkscape:vp_x="0 : 526.18109 : 1"
       inkscape:vp_y="0 : 1000 : 0"
       inkscape:vp_z="744.09448 : 526.18109 : 1"
       inkscape:persp3d-origin="372.04724 : 350.78739 : 1"
       id="perspective3105" />
  </defs>
  <sodipodi:namedview
     id="base"
     pagecolor="#ffffff"
     bordercolor="#666666"
     borderopacity="1.0"
     inkscape:pageopacity="0.0"
     inkscape:pageshadow="2"
     inkscape:zoom="3.959798"
     inkscape:cx="246.78474"
     inkscape:cy="415.96959"
     inkscape:document-units="in"
     inkscape:current-layer="g2996"
     showgrid="false"
     inkscape:window-width="1920"
     inkscape:window-height="1005"
     inkscape:window-x="-9"
     inkscape:window-y="-9"
     inkscape:window-maximized="1"
     units="in" />
  <metadata
     id="metadata7">
    <rdf:RDF>
      <cc:Work
         rdf:about="">
        <dc:format>image/svg+xml</dc:format>
        <dc:type
           rdf:resource="http://purl.org/dc/dcmitype/StillImage" />
        <dc:title></dc:title>
      </cc:Work>
    </rdf:RDF>
  </metadata>
  <g
     inkscape:label="Layer 1"
     inkscape:groupmode="layer"
     id="layer1"
     transform="translate(0,-512.3622)">
    <g
       id="g2996"
       transform="translate(791.42857,162.85714)">
      <path
         style="fill:none;stroke:#ff0000;stroke-width:0.44999999000000002;stroke-miterlimit:4;stroke-opacity:1;stroke-dasharray:none"
         d="M 233.3125 18.625 L 136.78125 60.96875 L 103 60.96875 L 99.3125 77.40625 L 22.46875 111.09375 L 57.09375 264.875 L 22.46875 418.6875 L 99.3125 452.40625 L 103 468.8125 L 136.78125 468.8125 L 233.3125 511.15625 L 329.875 468.8125 L 363.625 468.8125 L 367.3125 452.40625 L 444.1875 418.6875 L 409.53125 264.875 L 444.1875 111.09375 L 367.3125 77.40625 L 363.625 60.96875 L 329.875 60.96875 L 233.3125 18.625 z "
         id="rect3841"
         transform="translate(-791.42857,349.50506)" />
      <path
         style="fill:#5c3813;stroke:none"
         d="m -685.61344,784.18474 c -0.69017,-0.38019 -1.60332,-1.1773 -2.02924,-1.77135 -1.27804,-1.78254 -12.74777,-10.27348 -18.26931,-13.52453 -2.83632,-1.67003 -7.82064,-4.39191 -11.07627,-6.04864 -5.44424,-2.77049 -5.91929,-3.16966 -5.91929,-4.97378 0,-3.83845 5.65743,-12.93965 19.44478,-31.28114 l 8.40302,-11.17863 -2.68231,-2.73307 c -1.47529,-1.50319 -2.68231,-3.21156 -2.68231,-3.79639 0,-0.58483 3.04859,-3.69807 6.77458,-6.9183 16.39685,-14.17116 27.7617,-27.47911 33.18947,-38.86408 2.80776,-5.88928 3.11062,-6.26226 5.97279,-7.35534 3.77156,-1.44036 9.04254,-1.00365 15.01374,1.24389 l 4.19768,1.58001 4.12897,-3.7976 c 4.07157,-3.74478 4.11574,-3.8231 3.17773,-5.63119 -0.86448,-1.66628 -0.80265,-2.23182 0.678,-6.19739 0.89609,-2.40008 2.42528,-5.94999 3.39814,-7.88868 l 1.7689,-3.52489 -1.8962,-5.40225 c -1.04289,-2.97124 -2.05655,-5.84861 -2.25261,-6.39416 -0.19607,-0.54555 0.96836,0.15391 2.58768,1.55435 5.32719,4.60718 21.46152,11.87278 46.09204,20.75617 l 2.8104,1.01361 0,3.51328 c 0,9.61878 3.65517,28.37094 8.18996,42.0168 7.74976,23.32044 22.38677,52.69428 37.8314,75.92085 1.71447,2.5783 2.99681,4.80805 2.84961,4.955 -0.1472,0.14694 -4.22645,-1.03555 -9.06496,-2.62777 -20.22289,-6.65473 -35.81769,-16.23177 -50.18299,-30.81831 -7.60943,-7.72663 -10.42221,-11.18541 -15.98296,-19.654 l -3.88371,-5.91462 -4.29925,4.40289 c -4.71591,4.82964 -9.51673,10.82478 -23.19927,28.97071 l -9.05113,12.00369 -3.31091,-1.25805 c -1.82101,-0.69193 -3.87968,-1.25805 -4.57487,-1.25805 -2.61618,0 -9.55443,9.79476 -15.88754,22.42862 -3.70338,7.38772 -4.2037,8.08099 -5.52154,7.65111 -3.3773,-1.10166 -6.27327,-1.04306 -9.80558,0.19845 -2.75234,0.96737 -3.99856,1.11953 -4.93664,0.60278 z m 10.95539,-3.60117 c 1.28571,0.15373 2.79096,0.4824 3.3449,0.73037 0.72118,0.32279 1.22699,-0.13122 1.78074,-1.59821 1.58705,-4.2046 8.95287,-17.0541 12.41144,-21.65154 1.96966,-2.61822 3.31594,-4.76041 2.99172,-4.76041 -0.32416,0 -0.77336,0.29757 -0.99812,0.66127 -1.07265,1.73564 -3.40356,-0.0864 -12.05469,-9.4231 -5.13913,-5.5464 -10.68004,-11.38766 -12.31311,-12.98058 l -2.96924,-2.89623 -2.08518,4.13076 -2.08518,4.13075 1.95286,2.4301 1.95293,2.4301 -3.22674,5.26251 c -3.7492,6.11468 -4.65897,6.91723 -6.52217,5.75365 -2.38513,-1.48957 -3.78035,-0.93873 -6.29331,2.48458 -2.74195,3.7353 -3.65417,4.40092 -1.58592,1.15722 0.75365,-1.18202 1.96893,-3.11623 2.70063,-4.29825 1.50835,-2.43661 1.85506,-2.52812 4.46516,-1.1784 l 1.87721,0.97074 3.04945,-4.5452 c 1.67724,-2.49986 3.04951,-4.78051 3.04951,-5.06813 0,-0.28761 -0.79187,-1.66563 -1.75977,-3.06226 l -1.75977,-2.53935 1.54664,-2.12509 c 0.85066,-1.16881 2.27312,-3.0923 3.161,-4.27444 l 1.6143,-2.14935 -5.46573,-5.5997 c -3.00613,-3.07984 -5.69155,-5.46013 -5.96763,-5.28953 -0.27602,0.17059 -3.89753,4.84795 -8.04773,10.39413 -12.17702,16.27266 -19.02989,26.94331 -19.02989,29.63145 0,0.80661 2.18933,2.32949 7.10865,4.94479 9.15383,4.86649 20.61562,12.4788 25.57402,16.98493 l 3.89879,3.54309 3.67329,-1.2401 c 2.02196,-0.6826 4.72418,-1.11444 6.01094,-0.96057 z m -9.87203,0.88056 c -0.0284,-0.72441 8.05969,-16.267 12.20532,-23.45437 1.62031,-2.8091 4.01775,-6.2818 5.32772,-7.71711 2.17895,-2.38746 1.96351,-1.79327 -2.53055,6.97875 -7.17808,14.01102 -14.91243,26.48327 -15.00249,24.19273 z m -0.35444,-22.26446 c -1.8185,-1.04356 -2.99807,-1.90432 -2.62128,-1.91282 0.37679,-0.009 1.57184,-1.16918 2.6556,-2.57929 l 1.97045,-2.56384 2.18999,1.82827 2.19,1.82828 -1.38735,2.71938 c -0.76297,1.49565 -1.45565,2.68743 -1.53917,2.64838 -0.0835,-0.0391 -1.63975,-0.92481 -3.45824,-1.96836 z m -17.8543,-11.58299 c -0.72739,-0.55888 -1.71606,-1.24284 -2.197,-1.51991 -0.69493,-0.40032 -0.56949,-1.10392 0.61088,-3.4264 0.81693,-1.60744 1.55471,-3.01893 1.63955,-3.13664 0.0848,-0.11772 1.33306,0.63991 2.77383,1.68362 l 2.61963,1.89765 -1.56292,1.95336 c -0.85965,1.07434 -1.56443,2.32532 -1.56621,2.77994 -0.007,1.08416 -0.69507,1.01513 -2.31776,-0.23162 z m 170.51722,15.1102 c -18.97396,-29.50051 -33.94313,-62.09745 -40.17295,-87.48059 -2.33462,-9.51245 -4.37232,-22.57432 -4.37232,-28.02733 l 0,-2.85895 -6.11675,-2.12962 c -14.49967,-5.04823 -30.25661,-11.80435 -36.02606,-15.44694 -1.53851,-0.97133 -2.91686,-1.76606 -3.063,-1.76606 -0.14621,0 0.75682,3.19889 2.00662,7.10865 6.32307,19.78034 10.37269,39.80095 11.53659,57.03455 0.79808,11.8176 1.73689,14.71696 8.02934,24.79762 12.67932,20.31254 32.30192,37.2095 54.19353,46.666 4.60415,1.98884 14.82812,5.75046 15.91425,5.85519 0.28395,0.0274 -0.58416,-1.66125 -1.92925,-3.75252 z m -121.65055,-18.29502 c 4.35764,-7.43574 17.5021,-21.89856 29.79934,-32.78809 3.90183,-3.45514 7.51223,-7.08561 8.02326,-8.06772 1.50803,-2.89856 1.15967,-7.73746 -0.85,-11.80587 -3.59076,-7.26905 -17.23488,-19.24541 -32.86492,-28.84776 l -6.65026,-4.08562 -1.34013,3.09878 c -5.7721,13.34696 -18.13467,27.69599 -39.03253,45.30423 l -1.98381,1.67154 9.94471,10.12804 c 11.48871,11.70055 27.98634,29.16078 30.1397,31.89838 l 1.47642,1.87694 0.79941,-2.70735 c 0.43961,-1.48904 1.58209,-4.04301 2.53881,-5.6755 z m 46.63177,-39.01326 c -0.49476,-0.49152 -7.17577,-0.65106 -7.64428,-0.18254 -0.25095,0.25095 1.42835,0.45628 3.73175,0.45628 2.3034,0 4.06403,-0.12318 3.91253,-0.27374 z m -2.90476,-15.76206 c -0.60367,-8.11872 -0.86223,-9.23839 -2.6343,-11.40691 l -1.6211,-1.98381 -2.0467,2.14913 c -2.30155,2.41678 -3.1856,2.58534 -5.98006,1.14024 -1.07305,-0.55489 -1.95101,-0.72847 -1.95101,-0.38574 0,0.34273 0.26113,0.72233 0.58026,0.84357 1.32426,0.50305 6.94611,7.76606 8.74404,11.29669 1.59452,3.13115 2.2345,3.80231 3.62541,3.80231 l 1.68915,0 z m -5.69472,-14.65443 c 3.22673,-3.26738 3.4966,-3.76993 3.10671,-5.78612 -0.27965,-1.44597 -2.50152,-4.66119 -6.43832,-9.31661 -3.30622,-3.90975 -6.21726,-7.10865 -6.46894,-7.10865 -0.95666,0 -8.07848,6.83851 -9.02204,8.6631 -0.90793,1.75581 -0.8738,2.13389 0.42222,4.67434 1.86471,3.65511 7.47367,9.16611 11.18446,10.98915 1.63664,0.80404 3.13468,1.46214 3.32896,1.46242 0.19428,2.9e-4 1.94341,-1.60965 3.88695,-3.57763 z m -18.52866,-5.51431 c -0.82592,-1.36387 -1.92257,-3.14421 -2.43704,-3.9563 -0.70611,-1.11462 -0.77071,-1.94898 -0.26352,-3.40398 0.64739,-1.85699 0.57134,-1.96457 -2.08049,-2.94338 -6.363,-2.34866 -11.05147,-2.96856 -13.92449,-1.8411 -1.01545,0.39851 -0.0126,1.25801 5.29016,4.53395 3.59876,2.22322 8.32863,5.38332 10.51082,7.02243 2.18219,1.63913 4.06628,3.00001 4.1869,3.02418 0.12055,0.0242 -0.45648,-1.07193 -1.28234,-2.4358 z m 20.15968,-8.26587 c -0.60427,-3.43758 -5.37348,-21.73295 -6.42106,-24.63231 l -0.95574,-2.64509 -1.46689,3.30636 c -0.80682,1.81849 -2.02739,4.90668 -2.7124,6.86265 -1.18619,3.38712 -1.19068,3.62826 -0.0948,5.06897 1.50809,1.9824 11.68735,14.11087 11.87985,14.15469 0.0819,0.0186 -0.0212,-0.93325 -0.229,-2.11527 z m 159.29811,114.91452 c -0.43036,-0.769 -0.31146,-2.45914 0.36634,-5.20757 1.72552,-6.99711 1.14797,-28.347 -0.9642,-35.64471 -0.28553,-0.98648 -1.18208,-1.15871 -6.07654,-1.16734 -3.15783,-0.005 -6.15173,-0.26993 -6.65304,-0.58746 -0.7639,-0.48385 -0.78843,-2.16858 -0.15136,-10.40488 0.85713,-11.08108 1.20966,-20.12181 0.7672,-19.67455 -0.1626,0.16438 -1.96516,3.95347 -4.00564,8.42017 -7.3151,16.01316 -16.21593,29.196 -26.20514,38.81218 -8.16087,7.85603 -15.65088,12.61884 -23.51887,14.95539 -3.23023,0.95928 -3.48317,0.94751 -4.34355,-0.20217 -2.01899,-2.69791 -19.38572,-38.38756 -24.40556,-50.15476 -11.64853,-27.30575 -18.96575,-51.47805 -20.45692,-67.57926 l -0.44073,-4.75861 1.91014,-0.43804 c 25.4224,-5.82991 41.96685,-13.62745 57.23372,-26.97471 15.85461,-13.86102 26.1043,-32.84924 30.03839,-55.64784 0.39954,-2.31512 0.71311,-1.27228 2.51362,8.35973 1.64134,8.78045 2.3409,11.25316 3.46102,12.23349 1.44812,1.26749 4.70071,5.35526 13.96272,17.54813 3.50275,4.61121 5.25743,7.47952 5.05647,8.26587 -0.23833,0.93269 0.40655,1.48934 2.85999,2.46864 7.36476,2.9397 13.85116,8.66698 16.75447,14.79363 1.75382,3.70103 3.25688,9.0135 3.2678,11.54998 0.009,2.0942 0.42579,2.24371 2.08028,0.74639 0.65162,-0.58966 1.59525,-0.91456 2.09702,-0.722 0.96652,0.37087 3.09759,7.05751 3.11465,9.77272 0.0159,2.56227 0.72713,3.09864 5.17702,3.90556 8.44614,1.53158 12.41918,3.1618 15.9456,6.54292 4.93168,4.72847 6.17921,8.07483 6.44257,17.28148 0.2342,8.18719 1.46235,20.9221 3.53089,36.61213 0.71282,5.40688 1.29604,10.20771 1.29604,10.66851 0,0.46081 0.59515,0.99346 1.32254,1.18368 1.54764,0.40472 1.76831,2.32393 0.33064,2.87561 -0.54555,0.20935 -0.99191,0.74805 -0.99191,1.19712 0,0.44907 -1.15498,1.16253 -2.56663,1.58547 -1.41165,0.42294 -2.96647,1.25075 -3.45515,1.83958 -1.34841,1.62473 -0.96575,15.48583 0.68225,24.71285 0.74702,4.18253 1.3613,7.84297 1.36507,8.1343 0.004,0.29133 -1.03247,0.96395 -2.30275,1.49471 -2.28612,0.9552 -3.90503,2.99772 -7.04348,8.88655 l -1.58593,2.97572 -12.21947,-0.21192 c -8.63771,-0.1498 -14.44856,0.0984 -19.82409,0.84662 -14.24653,1.98308 -13.66713,1.95458 -14.36549,0.70669 z m 14.94761,-2.72583 c 5.53139,-0.71946 11.59041,-0.98934 18.68095,-0.8321 5.77182,0.128 10.49422,0.18476 10.49415,0.12614 0,-0.0587 -0.72164,-4.81977 -1.60351,-10.58032 -1.53249,-10.01014 -1.96166,-13.57088 -2.68952,-22.31611 -0.17881,-2.14891 -0.40198,-3.98035 -0.49582,-4.06984 -0.0939,-0.0895 -5.45779,-0.37979 -11.91972,-0.64509 l -11.74905,-0.48236 0.58317,1.57649 c 0.37699,1.01923 1.4138,1.81026 2.93307,2.23777 1.29245,0.3637 2.51203,0.82382 2.71014,1.02248 0.69619,0.69808 1.53911,12.21023 0.97518,13.31832 -0.31338,0.61568 -1.53011,1.20819 -2.7159,1.32254 -2.05761,0.1984 -2.16222,0.34671 -2.47891,3.5135 -0.37771,3.7774 -1.32254,2.60469 -1.32254,-1.64157 0,-2.37173 0.15038,-2.56087 2.47262,-3.11006 1.85335,-0.43831 2.45821,-0.91021 2.4151,-1.88419 -0.0317,-0.71468 -0.10283,-3.28495 -0.15818,-5.71172 l -0.10065,-4.41229 -2.47976,-0.79873 c -3.26985,-1.05322 -4.13294,-1.80508 -4.13294,-3.60039 0,-1.79745 -1.94644,-2.31614 -8.69173,-2.31614 -4.38706,0 -4.5461,0.0561 -4.22069,1.48786 2.4875,10.94483 2.71187,24.99743 0.59276,37.1344 l -0.45105,2.58305 2.58305,-0.4284 c 1.42068,-0.23563 6.26706,-0.90758 10.76978,-1.49324 z m -9.57288,-21.16654 -0.65386,-3.56919 3.5124,0 c 3.40964,0 3.5003,0.048 3.10037,1.6415 -0.22662,0.90283 -0.11592,2.4908 0.24592,3.52884 l 0.6579,1.88733 -3.1044,0.0403 -3.10446,0.0403 -0.65387,-3.5692 z m 22.77679,-1.27485 c 0.2128,-3.45676 0.33685,-3.70864 1.65317,-3.35548 0.78275,0.20999 2.0547,0.38588 2.82654,0.39084 1.13123,0.007 1.48812,0.53904 1.84044,2.74239 0.24038,1.50335 0.35279,2.80877 0.24983,2.90095 -0.10302,0.0922 -1.67513,0.36806 -3.49362,0.61309 l -3.30635,0.4455 z m 19.20804,17.91522 c 2.09742,-4.26046 5.24801,-7.64543 7.11606,-7.64543 0.73204,0 0.8972,-0.47884 0.62721,-1.81849 -1.56763,-7.77835 -2.49046,-15.39828 -2.59324,-21.41255 -0.11449,-6.70034 -0.18389,-7.02835 -1.27829,-6.04178 -0.63647,0.57375 -1.15722,1.57216 -1.15722,2.21868 0,1.49029 -1.82888,2.07223 -5.80033,1.84558 -2.41833,-0.13802 -3.09521,0.0382 -2.98736,0.77751 0.0767,0.52578 0.77508,5.27075 1.55187,10.54438 0.7768,5.27363 1.57257,13.23367 1.7683,17.68897 0.19574,4.45531 0.42368,8.10056 0.50647,8.10056 0.0829,0 1.09381,-1.91584 2.24653,-4.25743 z m -0.95368,-37.89853 c -3.04607,-5.90209 -3.7826,-14.3038 -3.41526,-38.9584 0.29896,-20.06682 0.22853,-22.09006 -0.8291,-23.80572 -1.75925,-2.85386 -3.43484,-4.08738 -7.69785,-5.66689 -3.40289,-1.26081 -5.19679,-1.44033 -14.14675,-1.41565 -10.42558,0.0288 -17.31185,0.87424 -29.75715,3.65358 -3.45513,0.77161 -6.47965,1.5857 -6.72115,1.80907 -0.24143,0.22337 0.40979,2.93549 1.44726,6.02692 3.29769,9.82664 4.17188,18.5356 3.71726,37.03113 -0.21901,8.91061 -0.65512,17.61458 -0.96909,19.34215 l -0.57094,3.14103 10.97146,0.0683 c 6.03429,0.0376 18.41069,0.43715 27.50315,0.888 9.09246,0.45085 17.78221,0.86648 19.31047,0.92363 l 2.77879,0.1039 z m 3.90156,-64.63915 2.07145,-2.64508 -3.43704,2.97571 c -1.89044,1.63665 -3.45051,3.3938 -3.46691,3.9048 -0.0383,1.18854 1.94797,-0.55211 4.8325,-4.23543 z m -55.51891,-4.27006 c 5.4937,-1.07559 11.17883,-2.15095 12.63363,-2.38967 l 2.64508,-0.43406 -3.58911,-0.93318 c -4.33125,-1.12615 -5.33804,-1.88083 -5.33804,-4.00142 0,-1.36587 -0.23091,-1.54865 -1.48786,-1.17781 -3.52093,1.03878 -8.87933,3.82567 -11.52679,5.99507 -2.69322,2.20689 -4.76697,4.89668 -3.77519,4.89668 0.24731,0 4.94451,-0.88002 10.43828,-1.95561 z m 48.87447,-3.26707 2.46369,-4.5614 -4.66777,-1.41779 c -5.88531,-1.78761 -11.70065,-2.8763 -12.55236,-2.34992 -0.35993,0.22245 -0.6544,0.96802 -0.6544,1.65684 0,2.38721 -1.51437,4.55605 -3.82458,5.47749 l -2.32139,0.92589 5.7793,0.74604 c 3.36792,0.43475 7.20242,1.41949 9.1898,2.36003 1.8757,0.8877 3.57093,1.6388 3.76719,1.66912 0.1962,0.0303 1.46544,-1.99752 2.82052,-4.5063 z m -20.55419,-2.67637 c 3.95962,-1.20563 4.57929,-5.33385 2.36377,-15.74739 -0.69889,-3.28501 -0.80549,-3.41833 -1.92396,-2.40618 -1.73451,1.56976 -8.45831,1.86081 -16.11787,0.6977 -3.63229,-0.55157 -6.67036,-0.93661 -6.7513,-0.85566 -0.0809,0.081 0.43598,2.02074 1.14863,4.31065 0.75431,2.42357 1.29582,6.05182 1.29582,8.68216 l 0,4.5187 2.14913,0.66946 c 1.18202,0.3682 2.74427,0.82006 3.47167,1.00412 2.0986,0.53103 11.66103,-0.0505 14.36411,-0.87356 z m -26.09901,-4.00044 c 4.10999,-1.6417 4.13023,-1.66282 4.11462,-4.29826 -0.009,-1.45664 -0.71635,-4.35213 -1.5727,-6.4344 -2.01806,-4.90692 -1.33656,-6.22772 2.86654,-5.55563 l 2.80193,0.44805 -0.46725,-2.16593 c -1.02358,-4.7452 -3.26105,-9.47458 -5.77018,-12.19662 -1.45195,-1.57524 -2.98437,-2.86408 -3.40527,-2.86408 -0.43538,0 -1.76361,4.06205 -3.08112,9.4231 -3.22396,13.11849 -2.93505,13.15589 -14.50073,-1.8772 -4.90993,-6.38195 -9.16573,-12.11111 -9.45735,-12.73146 -0.41892,-0.89108 4.7538,-24.29275 7.22179,-32.67215 0.50455,-1.71288 -1.51239,-1.45956 -2.63258,0.33063 -1.23003,1.96587 -8.57369,31.99903 -8.18646,33.47999 0.40312,1.54136 18.04051,24.25836 19.78025,25.47689 0.96968,0.67921 1.82973,0.78488 2.94298,0.36161 0.86514,-0.32892 1.57296,-0.48949 1.57296,-0.35682 0,0.58142 2.08452,11.41465 2.40372,12.4919 0.19448,0.65649 0.55275,1.10285 0.7961,0.99191 0.24335,-0.11095 2.30109,-0.94414 4.57275,-1.85153 z m 21.80558,-18.02298 c -0.51255,-4.88691 -2.78838,-10.52867 -5.7676,-14.29769 -5.43749,-6.87893 -16.48989,-11.91329 -26.73925,-12.1797 l -5.33717,-0.13873 -0.21697,1.8984 c -0.11929,1.04412 -0.039,2.60637 0.17795,3.47166 0.35907,1.43061 0.74261,1.57328 4.22988,1.57328 5.69936,0 10.05812,1.54632 13.7726,4.88601 3.70034,3.32692 5.73923,7.03065 7.25777,13.18433 1.2006,4.86516 0.88042,4.69653 9.42264,4.96295 l 3.56418,0.11116 z m -28.01524,-6.74842 c 1.27738,-5.0689 2.19654,-9.41984 2.04273,-9.66877 -0.15388,-0.24893 -1.02774,-0.59559 -1.94195,-0.77035 -1.74509,-0.33359 -2.15607,0.47278 -3.39291,6.65701 -0.23396,1.16977 -0.66001,2.27186 -0.94674,2.44908 -0.42037,0.25978 -9.67339,-11.09398 -11.41346,-14.0046 -0.36131,-0.6044 3.81798,-19.93793 4.44566,-20.5656 0.0909,-0.0909 2.66987,3.07971 5.73109,7.04578 4.68021,6.06363 5.96043,7.31505 8.04561,7.86477 2.12823,0.56104 2.47976,0.49893 2.47976,-0.43811 0,-1.05261 -16.71948,-23.37 -17.79557,-23.75372 -0.29076,-0.1037 -2.21869,6.7253 -4.28417,15.17554 l -3.75542,15.36408 1.84131,2.47572 c 4.83216,6.497 16.40234,21.54866 16.5055,21.47189 0.0641,-0.0476 1.16125,-4.23382 2.43856,-9.30272 z m -3.96305,-9.12206 c 0.38889,-1.60171 0.25214,-1.81849 -1.14711,-1.81849 -2.07883,0 -2.74255,2.36079 -1.28789,4.5809 1.01293,1.5459 1.09625,1.5647 1.5323,0.34546 0.25359,-0.70916 0.65981,-2.1077 0.9027,-3.10787 z m -0.62927,-15.53985 c -3.71898,-4.94783 -5.24447,-6.77797 -5.64976,-6.77799 -0.22728,-2e-5 -0.59838,0.9254 -0.8246,2.05647 -0.33229,1.6614 -0.0198,2.55068 1.62613,4.62889 1.6787,2.11957 2.44881,2.5724 4.3747,2.5724 l 2.33739,0 z m -114.01539,33.96416 c -23.25012,-7.29785 -38.89214,-15.75099 -42.74853,-23.10181 -1.35243,-2.57791 -1.28815,-6.69153 0.13873,-8.87569 2.15317,-3.29599 15.39755,-17.80111 20.28942,-22.22086 3.60306,-3.25525 4.38535,-4.24116 3.14355,-3.96178 -4.91311,1.10538 -22.60975,5.94526 -29.99825,8.20427 -4.67882,1.43055 -8.99361,2.60124 -9.58842,2.60154 -0.9638,4.8e-4 -1.05651,-1.09616 -0.85211,-10.08437 0.12835,-5.64365 -0.10871,-12.26902 -0.53828,-15.04444 -1.29483,-8.366 -4.98875,-21.48497 -10.18441,-36.17041 -5.05548,-14.28909 -9.01411,-27.19032 -9.01411,-29.3772 0,-0.79081 0.63535,-1.35137 1.8185,-1.60446 3.22448,-0.68975 4.41265,-1.383 11.4323,-6.67037 7.77686,-5.85771 25.46703,-23.13617 35.55285,-34.72539 3.68757,-4.23728 7.68045,-8.29129 8.87299,-9.00891 1.58103,-0.95135 3.95949,-1.42338 8.781,-1.74268 15.55552,-1.03016 40.40691,-5.45097 69.10273,-12.29266 28.33052,-6.75459 30.70415,-7.40069 31.74096,-8.63966 0.93279,-1.1147 1.36625,-0.9036 7.27397,3.54262 8.75211,6.58694 12.9638,11.05546 15.59513,16.54608 3.91782,8.17517 4.57361,12.60297 4.57361,30.88105 l 0,16.21059 -2.69415,3.94415 c -1.90109,2.78318 -3.61272,4.4169 -5.81494,5.55019 -4.21858,2.17094 -9.13995,7.7229 -11.96304,13.49584 -1.3931,2.84873 -3.51201,9.41691 -5.27013,16.33645 -4.0061,15.7667 -4.01642,14.40515 0.11956,15.8106 5.9763,2.0308 8.11643,4.9753 8.07001,11.10332 -0.0159,2.10932 -0.48689,5.02542 -1.04653,6.48022 -0.55963,1.45479 -1.75957,5.17444 -2.6665,8.26587 -5.92816,20.20655 -23.65039,38.67043 -51.2815,53.42762 -9.15951,4.89191 -31.45648,14.19873 -33.47401,13.97215 -0.24375,-0.0274 -4.46047,-1.31072 -9.3704,-2.85187 z m 14.94212,-0.97338 c 38.36517,-13.88219 67.85365,-36.85269 75.50838,-58.8184 4.24185,-12.17231 5.43366,-16.61327 5.43366,-20.24715 0,-3.53813 -0.18879,-4.03831 -2.26214,-5.99378 -2.22484,-2.09824 -7.3526,-4.00959 -7.98999,-2.97821 -0.17901,0.2896 -0.76873,2.84362 -1.31057,5.67559 -0.54185,2.83199 -1.23823,5.40209 -1.54751,5.71137 -0.30927,0.30927 -7.20136,1.58714 -15.31567,2.83972 -13.00553,2.0076 -17.66326,2.96237 -14.45153,2.96237 1.08362,0 3.45209,2.36607 4.03447,4.03045 0.63971,1.82802 -1.85334,6.18659 -5.20717,9.10363 -4.39169,3.8198 -16.35308,9.5925 -24.39134,11.77154 -8.44601,2.28958 -20.43563,2.63268 -23.99968,0.68679 -5.44727,-2.97407 -4.07044,-8.09279 3.86784,-14.38001 2.68568,-2.12711 2.81714,-2.11764 6.4985,0.46811 0.13933,0.0979 -0.67899,1.23978 -1.81849,2.5376 -4.32087,4.9212 -1.60074,7.85837 7.16658,7.73849 14.3444,-0.19614 32.77519,-11.70815 26.75022,-16.70841 -0.92293,-0.76601 -0.75239,-1.11354 1.48786,-3.03185 3.28307,-2.81124 1.33927,-3.04901 -2.64065,-0.32302 -6.11688,4.18968 -13.33286,6.88403 -21.47534,8.01858 -5.44133,0.75818 -10.20399,-0.0454 -11.56323,-1.95087 -0.74995,-1.05136 -1.59763,-0.95577 -12.31913,1.38925 -8.1038,1.77245 -12.21657,2.99661 -13.88668,4.13333 -5.77811,3.93273 -25.70449,25.31244 -27.16014,29.14108 -2.19641,5.77692 7.59065,14.09705 24.78724,21.07209 6.2947,2.55315 21.13029,7.61436 25.12827,8.57254 0.72739,0.17433 1.35117,0.35149 1.38608,0.39368 0.035,0.0422 2.41556,-0.77434 5.29016,-1.81451 z m -19.01945,-29.56897 c -3.31183,-1.01932 -6.50299,-4.11292 -6.50299,-6.30418 0,-2.29458 1.81485,-5.72568 4.66268,-8.81524 1.52886,-1.65861 3.00964,-3.01564 3.29068,-3.01564 0.28097,0 1.64544,1.11589 3.03212,2.47976 2.05662,2.02276 2.52579,2.95897 2.54589,5.08001 0.0212,2.25896 0.32845,2.77973 2.33911,3.96762 3.3859,2.00037 12.75815,1.73835 20.83001,-0.58233 12.03663,-3.46056 23.23366,-10.67703 24.50316,-15.79227 0.25545,-1.02932 1.90393,-3.21795 3.66331,-4.86362 1.7593,-1.64567 3.37776,-3.55604 3.59651,-4.24526 1.0167,-3.20335 5.6003,0.48469 5.59633,4.50293 -0.0119,12.25174 -33.27233,28.74797 -57.63193,28.58393 -3.93628,-0.0265 -8.1491,-0.44916 -9.92488,-0.99571 z m -36.92141,-23.7956 c 13.30978,-3.87148 30.45829,-8.06136 48.60335,-11.8752 14.10892,-2.9655 54.37114,-9.93955 67.11891,-11.62605 3.45513,-0.4571 6.38251,-0.90327 6.50524,-0.99148 0.76026,-0.54643 1.43211,-6.21204 1.45261,-12.24887 0.0417,-12.31343 -2.55389,-21.48162 -13.13203,-46.38418 -3.58944,-8.45004 -7.34016,-17.81868 -8.33491,-20.81919 -0.99481,-3.00051 -2.06713,-5.45548 -2.38302,-5.45548 -1.09539,0 -38.72986,7.86464 -51.88807,10.84328 -35.02338,7.9283 -65.33157,13.71038 -80.17543,15.29557 -4.06291,0.43389 -4.12236,0.46918 -3.69683,2.19496 0.8377,3.39711 5.48372,17.77389 10.07643,31.18049 7.65758,22.35325 9.38746,30.72417 9.36319,45.30855 l -0.0159,9.50598 3.12834,-0.9735 c 1.72056,-0.53542 7.74069,-2.31511 13.37802,-3.95488 z m -0.46256,-25.43029 c -7.67966,-2.50811 -13.71183,-8.75843 -16.16911,-16.75397 -4.83018,-15.71607 7.42216,-32.16888 23.95603,-32.16888 4.00055,0 10.78908,2.1532 14.13603,4.48371 6.32657,4.40525 10.94184,13.09185 10.94184,20.59418 0,16.71582 -16.97725,29.03365 -32.86479,23.84496 z m 25.98156,-9.73188 c 0.63059,-0.63057 1.91656,-2.78796 2.85768,-4.7942 2.45933,-5.24276 2.4555,-13.3023 -0.009,-18.55646 -2.32476,-4.95651 -5.56736,-8.56633 -7.69487,-8.56633 -3.28168,0 -6.96826,1.61482 -10.08602,4.41797 -11.23259,10.09905 -4.22472,28.27505 11.02252,28.58869 1.80063,0.037 3.16252,-0.34254 3.90962,-1.08967 z m 36.13696,-7.51342 c -4.64569,-1.47176 -10.01434,-5.45881 -12.86713,-9.55589 -6.44348,-9.25377 -5.64308,-22.39432 1.87067,-30.71113 13.11285,-14.51442 36.7112,-9.44015 42.57653,9.15509 3.45772,10.96227 -0.73487,22.26263 -10.57728,28.50888 -6.32273,4.01258 -13.67652,4.924 -21.00279,2.60305 z m 26.49583,-10.37576 c 3.67104,-4.05641 5.33057,-13.22284 3.521,-19.4477 -1.20549,-4.14659 -4.51171,-9.39042 -7.13153,-11.3109 -1.57865,-1.15727 -2.08611,-1.20658 -5.0646,-0.49205 -15.10196,3.62291 -17.18324,24.32119 -3.1048,30.87719 4.19616,1.95403 10.17794,2.14368 11.77993,0.37346 z m -14.48042,40.54017 c 7.95481,-2.80687 7.26444,-4.19371 -0.82527,-1.65786 -2.30552,0.72271 -5.3184,1.31401 -6.69536,1.31401 -3.83371,0 -6.91523,0.73881 -5.86315,1.40574 1.77425,1.12481 8.75667,0.57081 13.38378,-1.06189 z m -90.91022,-74.77961 c 10.83464,-1.67715 18.42133,-3.22945 65.51156,-13.40426 13.275,-2.86833 30.6135,-6.51576 38.52996,-8.10538 l 14.39367,-2.89022 5.21074,-7.28609 c 6.85856,-9.5902 10.43894,-15.76843 15.5327,-26.80334 l 4.20555,-9.11059 -1.96754,0.56429 c -5.18635,1.48743 -41.81231,10.06705 -51.76872,12.1268 -18.87496,3.90482 -39.94924,6.99006 -47.94208,7.01863 -3.57357,0.0128 -5.14931,1.26446 -13.30819,10.57129 -12.43962,14.18975 -26.50391,27.70355 -37.11365,35.66083 -2.09127,1.56845 -3.80231,2.96477 -3.80231,3.10292 0,0.44041 1.33332,0.28652 12.51831,-1.44488 z m 146.91371,-2.85326 c 3.49911,-2.83337 2.02917,-15.33744 -2.67239,-22.73345 -3.50235,-5.50959 -8.92993,-6.58611 -10.63223,-2.10882 -2.51091,6.60427 1.97521,21.43002 7.50475,24.80167 2.62881,1.60293 3.85983,1.61154 5.79987,0.0406 z m -5.87565,-6.30129 c -4.24225,-4.83165 -6.2127,-16.63537 -2.98385,-17.8744 3.12245,-1.19819 7.45126,6.14266 7.98001,13.53265 0.48967,6.8435 -1.37604,8.46484 -4.99616,4.34175 z"
         id="path2998"
         inkscape:connector-curvature="0"
         sodipodi:nodetypes="sssssscsssssscsssscscsscssscssscsscsssssssssssssscccccsssssscssscsscsssssscsscssscscscccscsssscscscsssscssssssscsssssscsscsscsssssssscssscsscsssssssscsssssssscssscssscsssscssssssssscssssssssscsssssssssssssscsscsssssssscscsssssssscscssssscssccssscccccsssscscssssssssssssssssssscssscssscsscssssscssssssscsssscsscsssssssscsssscsscssssssssssssscsssscscsssscssssscscssssscscssssssssssscsssssssssssssssssssssscssssscssscssssscssssssssscsssssssssssscsssssssssssssssssssssssssssscssssssssssssssssssssssssssssssssssscsscssssssssssssssss" />
      <path
         sodipodi:type="arc"
         style="fill:none;stroke:#ffff00;stroke-width:0.44999999000000002;stroke-miterlimit:4;stroke-opacity:1;stroke-dasharray:none"
         id="path3845"
         sodipodi:cx="235.89285"
         sodipodi:cy="40.892857"
         sodipodi:rx="8.0357141"
         sodipodi:ry="8.0357141"
         d="m 243.92857,40.892857 a 8.0357141,8.0357141 0 1 1 -16.07143,0 8.0357141,8.0357141 0 1 1 16.07143,0 z"
         transform="matrix(1.3618677,0,0,1.3618677,-879.3553,343.86554)" />
    </g>
  </g>
</svg>
