<?xml version="1.0" encoding="UTF-8" standalone="no"?>
<!-- Created with Inkscape (http://www.inkscape.org/) -->

<svg
   xmlns:dc="http://purl.org/dc/elements/1.1/"
   xmlns:cc="http://creativecommons.org/ns#"
   xmlns:rdf="http://www.w3.org/1999/02/22-rdf-syntax-ns#"
   xmlns:svg="http://www.w3.org/2000/svg"
   xmlns="http://www.w3.org/2000/svg"
   xmlns:sodipodi="http://sodipodi.sourceforge.net/DTD/sodipodi-0.dtd"
   xmlns:inkscape="http://www.inkscape.org/namespaces/inkscape"
   id="svg4136"
   version="1.1"
   inkscape:version="0.92.4 (5da689c313, 2019-01-14)"
   width="145.95634"
   height="180.00002"
   viewBox="0 0 145.95635 180.00002"
   sodipodi:docname="Pikachu.svg">
  <metadata
     id="metadata4142">
    <rdf:RDF>
      <cc:Work
         rdf:about="">
        <dc:format>image/svg+xml</dc:format>
        <dc:type
           rdf:resource="http://purl.org/dc/dcmitype/StillImage" />
        <dc:title></dc:title>
      </cc:Work>
    </rdf:RDF>
  </metadata>
  <defs
     id="defs4140" />
  <sodipodi:namedview
     pagecolor="#ffffff"
     bordercolor="#666666"
     borderopacity="1"
     objecttolerance="10"
     gridtolerance="10"
     guidetolerance="10"
     inkscape:pageopacity="0"
     inkscape:pageshadow="2"
     inkscape:window-width="2560"
     inkscape:window-height="1377"
     id="namedview4138"
     showgrid="false"
     fit-margin-top="0"
     fit-margin-left="0"
     fit-margin-right="0"
     fit-margin-bottom="0"
     inkscape:zoom="4.3819355"
     inkscape:cx="-7.226601"
     inkscape:cy="96.473381"
     inkscape:window-x="-8"
     inkscape:window-y="-8"
     inkscape:window-maximized="1"
     inkscape:current-layer="g4208" />
  <g
     id="g4208"
     transform="matrix(0.06563231,0,0,0.06563231,2.3452533,-4.8322748)">
    <path
       style="color:#000000;clip-rule:nonzero;display:inline;overflow:visible;visibility:visible;opacity:1;isolation:auto;mix-blend-mode:normal;color-interpolation:sRGB;color-interpolation-filters:linearRGB;solid-color:#000000;solid-opacity:1;fill:#ffff00;fill-opacity:1;fill-rule:nonzero;stroke:#ff0000;stroke-width:0.29845729;stroke-linecap:round;stroke-linejoin:round;stroke-miterlimit:4;stroke-dasharray:none;stroke-dashoffset:0;stroke-opacity:1;color-rendering:auto;image-rendering:auto;shape-rendering:auto;text-rendering:auto;enable-background:accumulate"
       d="m 629.58984,74.136719 c -4.52622,-0.158663 -9.44987,1.748759 -11.77343,5.294922 -3.7974,5.79564 -18.97299,37.454459 -22.49219,46.921879 -3.0432,8.18668 -5.12507,13.61458 -6.13477,16 -1.3784,3.25681 -6.04975,16.64477 -7.50195,21.5 -2.6763,8.94781 -8.50731,29.63276 -10.00781,35.5 -0.844,3.3 -2.18181,8.28955 -2.97071,11.08789 -0.7889,2.79834 -1.43359,5.86419 -1.43359,6.8125 0,0.94832 -0.63064,3.83377 -1.40234,6.41211 -2.0408,6.8185 -7.92592,36.75626 -11.04493,56.1875 -0.92687,5.775 -2.1661,13.2 -2.7539,16.5 -0.5878,3.3 -1.39858,8.925 -1.80078,12.5 -0.4023,3.575 -1.21735,9.875 -1.81055,14 -2.6294,18.28504 -4.9526,45.61409 -7.7793,91.5 -1.3003,21.10734 -1.50696,38.60802 -1.10156,93 0.2746,36.85 0.76249,69.25 1.08399,72 0.3216,2.75 1.06103,13.325 1.64453,23.5 2.496,43.52758 2.87584,49.1428 3.43554,50.90625 0.3242,1.02142 0.9968,6.74662 1.4961,12.72461 1.8768,22.47062 5.72346,53.18184 10.56836,84.36914 0.8118,5.22505 2.15452,14.225 2.98242,20 0.53613,3.73977 1.16884,7.78227 1.69336,10.91406 C 502.49271,689.4458 399.87782,633.72885 289.77539,633.69336 110.0842,633.69294 -35.584404,779.36154 -35.583984,959.05273 c 0.168898,146.55707 98.302259,274.91167 239.687504,313.50197 0.0985,2.6749 0.24286,5.6779 0.46093,9.2988 0.2417,4.0137 0.23674,4.0151 -10.28906,2.043 -16.1318,-3.0223 -20.79038,-2.4565 -25.45898,3.0918 -3.4092,4.0516 -3.99235,9.872 -2.08985,20.8965 l 1.62305,9.4043 -2.28711,1.7597 c -1.2581,0.9682 -2.96211,1.775 -3.78711,1.793 -0.825,0.018 -3.975,1.1816 -7,2.5859 -12.8934,5.9856 -17.19178,15.3023 -11.58398,25.1094 2.5694,4.4934 12.01016,16.8103 16.85156,21.9844 2.6117,2.7912 3.06971,4.2157 3.84961,12 0.4867,4.858 1.33526,10.1379 1.88476,11.7324 0.5496,1.5946 0.99805,4.4309 0.99805,6.3027 0,1.8719 0.6338,6.416 1.4082,10.0996 0.7745,3.6839 1.92118,10.0723 2.54688,14.1973 0.6257,4.125 1.76871,10.425 2.54101,14 0.7722,3.575 2.36125,11.675 3.53125,18 1.1701,6.325 2.48799,12.85 2.92969,14.5 0.4417,1.65 1.55646,6.6 2.47656,11 0.9201,4.4 2.30684,10.925 3.08204,14.5 0.7752,3.575 1.94551,9.425 2.5996,13 0.65412,3.575 1.79571,8.4285 2.53711,10.7852 0.7415,2.3568 1.34375,5.2818 1.34375,6.5 -0.003,1.2183 0.65825,4.2398 1.46875,6.7148 1.3112,4.0043 5.48409,20.5126 7.58399,30 0.4261,1.925 2.19574,8.9 3.93164,15.5 1.7359,6.6 3.5506,13.575 4.0332,15.5 0.8588,3.4254 1.78941,6.8147 6.03711,22 1.1539,4.125 2.44625,9.075 2.87305,11 1.5318,6.9086 16.27515,55.3801 18.09766,59.5 0.4867,1.1 1.31464,3.575 1.83984,5.5 0.5251,1.925 3.06503,9.35 5.64453,16.5 2.5794,7.15 5.03985,14.125 5.46875,15.5 1.8993,6.0901 14.55313,37.0546 20.01953,48.9883 3.3029,7.2107 6.00586,13.3697 6.00586,13.6855 0,0.3159 2.62834,6.0317 5.83984,12.7012 3.2115,6.6695 9.58898,20.225 14.17188,30.125 4.5828,9.9 8.92946,18.7118 9.66016,19.5801 0.7306,0.8683 1.32812,2.275 1.32812,3.1269 0,0.8518 0.675,2.1083 1.5,2.793 0.825,0.6847 1.5,1.753 1.5,2.3731 0,0.8913 49.62709,100.7471 52.99219,106.6269 1.534,2.6802 55.61778,112.0934 62.42578,126.2891 3.6372,7.5839 11.38926,23.5589 17.22656,35.5 12.0563,24.663 14.35547,29.766 14.35547,31.8554 0,0.813 -1.85655,5.3872 -4.12695,10.1661 -3.7631,7.9205 -7.72024,16.5358 -9.96094,21.6894 -0.4782,1.1 -4.62806,9.2 -9.22266,18 l -8.35351,16 -19.41797,0.7149 c -23.2099,0.8536 -28.85317,1.5704 -43.91797,5.5839 -14.1512,3.7701 -39.61034,13.2935 -43.50977,16.2754 -0.5554,0.4248 -4.60538,2.6394 -9,4.92 -8.4488,4.3845 -25.04888,15.3056 -34.86328,22.9375 -23.2763,18.1002 -53.38625,48.4271 -70.03515,70.539 -2.25,2.9884 -4.59238,5.4564 -5.20508,5.4824 -0.6127,0.026 -2.3002,-1.7531 -3.75,-3.9531 -1.4498,-2.2 -3.76172,-5.7106 -5.13672,-7.8027 -1.375,-2.092 -2.5,-4.2642 -2.5,-4.8262 0,-0.5621 -1.125,-2.0794 -2.5,-3.3711 -1.375,-1.2917 -2.50586,-2.8322 -2.50586,-3.4238 -0.0128,-1.9516 -11.69694,-15.7906 -16.58984,-19.6504 -5.392,-4.2535 -11.30547,-6.1399 -16.57227,-5.2852 -3.1786,0.5158 -3.78144,0.2296 -5.86914,-2.7832 -6.8001,-9.8134 -16.21085,-18.1058 -22.56445,-19.8847 -3.5248,-0.9869 -5.06563,-0.9114 -9.17383,0.4531 -5.8544,1.9445 -8.45103,4.486 -10.80273,10.5742 -2.392508,6.1936 -3.187136,7 -6.894536,7 -4.2783,0 -10.71404,4.738 -13.86914,10.209 -4.907,8.5089 -6.27888,23.5576 -4.175782,45.8086 1.599902,16.9272 2.624004,24.0296 4.970704,34.4824 0.7409,3.3 1.890487,8.7 2.554687,12 0.6642,3.3 1.641322,7.35 2.169922,9 0.5286,1.65 1.352731,5.025 1.832031,7.5 1.7709,9.1455 6.773085,28.0001 8.021485,30.2363 0.5332,0.9551 0.96875,2.8416 0.96875,4.1914 0,1.3502 0.45,2.7324 1,3.0723 0.55,0.3399 1,1.5363 1,2.6582 0,1.1219 0.625925,3.4582 1.390625,5.1914 0.764794,1.7331 2.162364,6.0754 3.105464,9.6504 0.9431,3.575 3.01718,10.4449 4.60938,15.2656 1.5921,4.8207 2.89453,9.5671 2.89453,10.5489 0,0.9818 0.40128,2.2138 0.89258,2.7363 0.4914,0.5225 3.68746,9.2742 7.10156,19.4492 3.414,10.175 6.56807,18.95 7.00977,19.5 0.4417,0.55 3.36168,7.525 6.48828,15.5 3.1266,7.975 6.29009,15.85 7.0293,17.5 2.86548,6.3956 9.47851,22.4282 9.47851,22.9785 0,0.3187 1.54018,3.8289 3.42188,7.8008 1.8818,3.9718 4.30682,9.4707 5.39062,12.2207 1.0838,2.75 4.42578,10.175 7.42578,16.5 3,6.325 6.25262,13.3 7.22852,15.5 0.9759,2.2 3.48246,7.6 5.56836,12 2.0859,4.4 4.05384,8.675 4.37304,9.5 0.3191,0.825 0.99019,2.175 1.49219,3 0.5019,0.825 3.48747,6.675 6.63477,13 3.1473,6.325 6.24622,12.175 6.88672,13 0.6405,0.825 1.79997,2.85 2.57617,4.5 2.6644,5.6639 14.26532,26.0047 19.39062,34 2.8206,4.4 5.57354,8.7241 6.11914,9.6094 2.1321,3.4596 5.08997,7.624 9.20118,12.9531 2.36009,3.0593 4.29101,6.0196 4.29101,6.5781 0,1.8419 24.50034,25.7747 30.77734,30.0645 14.3107,9.78 28.85562,12.3368 39.50782,6.9473 9.0666,-4.5873 16.8127,-12.4339 21.6914,-21.9786 2.1454,-4.1974 3.74935,-4.6175 12.02735,-3.1503 7.8661,1.3941 24.34529,3.519 31.99609,4.1269 2.475,0.1966 10.35,1.0224 17.5,1.834 54.8799,6.2294 162.7642,8.7245 248,5.7363 87.0339,-3.0511 147.2488,-3.2955 186,-0.7539 27.3527,1.794 48.5437,2.87 90.5,4.5918 15.125,0.6207 29.75,1.2573 32.5,1.4141 2.75,0.1569 25.475,0.7923 50.5,1.414 25.02501,0.6218 48.87501,1.3899 53.00001,1.7051 12.3805,0.9459 206.0856,1.2879 225.5,0.3985 9.9,-0.4538 27.225,-1.0994 38.5,-1.4376 11.2751,-0.3378 27.925,-1.2484 37,-2.0214 9.075,-0.7731 22.8,-1.9072 30.5,-2.5196 15.1418,-1.2042 30.7505,-3.0831 47.8047,-5.7558 l 10.8027,-1.6934 2.6094,3.4688 c 1.4353,1.9077 6.0246,6.8437 10.1973,10.9687 8.1296,8.0368 16.4477,12.963 26.0859,15.4492 7.4394,1.9189 10.4194,1.8714 18.7226,-0.3086 13.8006,-3.6232 28.1902,-14.3676 39.9454,-29.8261 5.9058,-7.7662 17.2832,-25.2007 25.9824,-39.8145 6.3958,-10.7442 27.9277,-53.4352 33.8203,-67.0547 10.7644,-24.8798 14.9342,-35.1241 22.9746,-56.4453 1.9703,-5.225 4.4381,-11.75 5.4844,-14.5 3.4007,-8.9375 7.7533,-21.721 12.0879,-35.5 2.3358,-7.425 5.4744,-17.325 6.9746,-22 1.5001,-4.675 3.9709,-13 5.4902,-18.5 3.4616,-12.5318 5.1712,-18.6436 6.9922,-25 1.8822,-6.57 6.4807,-24.9306 7.5137,-30 0.4483,-2.2 1.5715,-7.375 2.4961,-11.5 0.9246,-4.125 2.0458,-9.525 2.4902,-12 0.4444,-2.475 1.7375,-9 2.875,-14.5 3.7391,-18.0801 5.9942,-36.7216 6.6543,-55 0.585,-16.1994 0.4457,-18.776 -1.3906,-25.7656 -2.4266,-9.2359 -6.453,-15.5088 -11.7481,-18.2969 -3.6059,-1.8986 -3.9127,-2.4134 -4.5742,-7.6953 -1.2108,-9.668 -5.1644,-15.4458 -13.3945,-19.5742 -3.7649,-1.8886 -4.4809,-1.9456 -8.6485,-0.6914 -7.5207,2.2634 -9.8871,3.9516 -18.4746,13.1816 -10.5656,11.3561 -15.8634,16.6493 -22.8613,22.8418 -6.2403,5.5222 -17.958,20.4184 -29.8633,37.9629 -1.7575,2.5899 -3.4932,1.1745 -7.084,-5.7754 -1.4741,-2.853 -3.4407,-6.0875 -4.3691,-7.1875 -0.9284,-1.1 -4.8064,-6.725 -8.6172,-12.5 -9.5466,-14.4671 -17.6889,-24.3438 -32.2285,-39.0957 l -12.4141,-12.5976 32.6211,-21.6934 c 22.7092,-15.1024 33.2181,-22.6705 34.5801,-24.9043 4.1358,-6.783 1.7874,-12.7231 -7.8164,-19.7813 -11.2125,-8.2404 -24.4682,-17.7263 -51.7207,-37.0117 -9.35,-6.6166 -17.8097,-12.8282 -18.8008,-13.8027 -1.941,-1.9087 -4.1808,-14.0323 -2.8398,-15.373 0.6631,-0.6632 17.8246,-6.9723 29.1406,-10.7129 1.925,-0.6363 4.1902,-1.5204 5.0332,-1.9649 0.8431,-0.4445 3.0931,-1.1424 5,-1.5508 1.907,-0.4085 3.9168,-1.0917 4.4668,-1.5195 0.55,-0.4277 5.95,-2.4183 12,-4.4219 6.05,-2.0037 11.9,-4.0553 13,-4.5605 2.1526,-0.9887 21.3756,-7.8661 36,-12.8789 4.95,-1.6967 11.475,-4.0094 14.5,-5.1406 3.025,-1.1314 11.35,-4.1201 18.5,-6.6407 7.15,-2.5206 17.95,-6.3617 24,-8.5351 6.05,-2.1734 11.9,-4.1944 13,-4.4922 1.1,-0.2978 4.925,-1.6772 8.5,-3.0664 3.575,-1.3892 11.45,-4.24 17.5,-6.334 20.2333,-7.0031 27.6107,-9.6986 28.2246,-10.3125 0.3351,-0.3351 1.5475,-0.6133 2.6934,-0.6133 3.1564,-0.01 8.2951,-3.5413 10.0332,-6.9023 2.7381,-5.2951 1.9076,-8.4371 -6.8418,-25.8731 -4.6148,-9.1965 -13.7923,-27.7491 -20.3946,-41.2285 -6.6023,-13.4794 -24.8764,-50.5242 -40.6093,-82.3223 -15.7328,-31.7982 -28.6055,-58.0201 -28.6055,-58.2695 0,-0.2494 -5.85,-12.1638 -13,-26.4766 -7.15,-14.3128 -13,-26.4561 -13,-26.9863 0,-0.8096 9.8257,-5.9375 11.3769,-5.9375 0.2772,0 4.6919,-1.9641 9.8125,-4.3652 5.1205,-2.4011 10.4356,-4.7125 11.8106,-5.1367 1.375,-0.4242 6.1,-2.4488 10.5,-4.4981 4.4,-2.0493 9.125,-4.0739 10.5,-4.5 1.375,-0.4261 6.168,-2.5125 10.6504,-4.6367 4.4825,-2.1241 8.4194,-3.8633 8.748,-3.8633 0.3285,0 3.6357,-1.3938 7.3496,-3.0976 10.4598,-4.7982 13.0093,-5.9024 13.627,-5.9024 0.6335,0 11.0395,-4.5907 14.0215,-6.1855 1.043,-0.5579 4.868,-2.133 8.5,-3.5 3.6319,-1.3669 7.0535,-2.8367 7.6035,-3.2657 0.55,-0.4291 3.9608,-1.9477 7.5801,-3.3769 3.6193,-1.4292 11.6033,-4.865 17.7422,-7.6348 6.1389,-2.7698 11.3812,-5.0371 11.6484,-5.0371 0.2673,0 3.8275,-1.5642 7.9121,-3.4765 4.0847,-1.9124 9.6065,-4.3389 12.2715,-5.3926 2.6649,-1.0537 7.404,-3.0896 10.5312,-4.5235 3.1273,-1.4339 5.9393,-2.6074 6.2481,-2.6074 0.3087,0 3.3755,-1.2904 6.8144,-2.8672 3.439,-1.5767 10.752,-4.7592 16.252,-7.0742 5.5,-2.3151 11.35,-4.833 13,-5.5937 6.3561,-2.9305 21.5261,-9.4649 21.9726,-9.4649 0.258,0 2.8443,-1.0763 5.7481,-2.3926 2.9038,-1.3162 9.7793,-4.2961 15.2793,-6.6211 5.5,-2.3249 11.8,-5.0399 14,-6.0351 2.2,-0.9952 11.1988,-4.8323 19.9961,-8.5254 8.7972,-3.693 16.6722,-7.0467 17.5,-7.4531 1.6206,-0.7955 2.5825,-1.209 14.0039,-6.0039 4.125,-1.7317 9.3303,-4.008 11.5664,-5.0586 2.2362,-1.0506 4.3614,-1.9102 4.7227,-1.9102 0.7649,0 10.9862,-4.5308 14.8652,-6.5898 1.4599,-0.7749 3.1152,-1.4102 3.6777,-1.4102 0.5624,0 4.318,-1.5108 8.3457,-3.3574 4.0276,-1.8465 19.2473,-8.4317 33.8223,-14.6348 14.575,-6.203 26.9287,-11.6673 27.4512,-12.1425 0.5225,-0.4756 1.6797,-0.8653 2.5722,-0.8653 2.3872,0 13.2124,-5.4585 15.1289,-7.6289 3.9818,-4.5094 17.9608,-40.5552 21.8614,-56.3711 0.4748,-1.925 1.8053,-6.65 2.957,-10.5 1.1517,-3.85 3.1625,-11.05 4.4687,-16 1.3062,-4.95 2.8219,-10.35 3.3692,-12 0.5474,-1.65 2.2074,-8.4 3.6875,-15 1.4801,-6.6 3.2716,-14.025 3.9824,-16.5 0.7107,-2.475 2.0804,-8.325 3.043,-13 0.9626,-4.675 2.3647,-10.4284 3.1152,-12.7851 0.7505,-2.3568 1.3633,-5.1878 1.3633,-6.293 0,-1.1053 0.6989,-5.0288 1.5527,-8.7168 0.8539,-3.688 2.1777,-9.4051 2.9414,-12.7051 0.7637,-3.3 1.904,-9.15 2.5352,-13 0.6311,-3.85 1.7377,-9.475 2.459,-12.5 0.7214,-3.025 2.0656,-10 2.9863,-15.5 0.9206,-5.5 2.3153,-12.5033 3.0996,-15.5644 0.7844,-3.0611 1.4258,-6.6337 1.4258,-7.9375 0,-1.3038 0.6252,-5.0985 1.3887,-8.4336 1.7226,-7.5242 6.5041,-34.4117 8.6367,-48.5645 0.6216,-4.125 1.5799,-9.5221 2.1289,-11.9941 0.5491,-2.4721 1.4019,-7.6471 1.8965,-11.5 0.4946,-3.853 1.3576,-9.4809 1.916,-12.5059 2.3062,-12.4929 6.6557,-40.4098 11.0625,-71 0.515,-3.575 1.6057,-11 2.4238,-16.5 0.8182,-5.5 2.1941,-15.4 3.0567,-22 0.8627,-6.6 2.2469,-16.95 3.0781,-23 4.1752,-30.3905 6.2014,-46.5337 8.4082,-67 0.593,-5.5 1.4707,-13.0515 1.9512,-16.7812 1.0806,-8.3886 -0.014,-12.7562 -4.0528,-16.1543 -3.6771,-3.0941 -10.181,-3.4292 -18.8066,-0.9707 -3.0733,0.8759 -7.1629,1.9895 -9.0879,2.4765 -1.925,0.487 -8,2.1997 -13.5,3.8047 -13.5577,3.9564 -15.2789,4.2926 -15.9981,3.1289 -0.3412,-0.552 -1.0691,-1.0039 -1.6191,-1.0039 -0.55,0 -0.7545,0.399 -0.4531,0.8867 0.9373,1.5166 -1.5705,2.7521 -12.4297,6.125 -5.775,1.7937 -13.1967,4.1427 -16.4942,5.2188 -3.2971,1.0761 -11.3972,3.6852 -18,5.7988 -14.8011,4.7381 -35.3168,11.7461 -38.0058,12.9824 -1.1,0.5058 -4.7,1.8062 -8,2.8907 -3.3,1.0844 -11.85,4.0841 -19,6.664 -7.15,2.5799 -15.925,5.737 -19.5,7.0156 -3.575,1.2786 -8.975,3.2816 -12,4.4512 -3.025,1.1697 -7.075,2.5869 -9,3.1504 -1.925,0.5636 -3.95,1.35 -4.5,1.7481 -0.55,0.3981 -3.25,1.5121 -6,2.4746 -2.75,0.9624 -5.9,2.1538 -7,2.6484 -1.1,0.4947 -4.925,1.9646 -8.5,3.2656 -8.6847,3.1603 -26.0054,9.6804 -28.5,10.7285 -1.1,0.4621 -8.975,3.6047 -17.5,6.9844 -14.5831,5.7813 -18.1627,7.2579 -25.5,10.5156 -5.9275,2.6317 -25.2782,10.4512 -25.8633,10.4512 -0.3286,0 -4.3191,1.7387 -8.8672,3.8633 -4.5481,2.1247 -9.3945,4.2126 -10.7695,4.6387 -1.375,0.4261 -4.8334,1.8374 -7.6856,3.1367 -2.8523,1.2992 -5.4137,2.3613 -5.6914,2.3613 -0.2777,0 -4.3829,1.8 -9.123,4 -4.7401,2.2 -8.8001,4 -9.0215,4 -0.2214,0 -4.7364,2.025 -10.0332,4.5 -5.2969,2.475 -9.8035,4.5 -10.0156,4.5 -0.2121,0 -3.7499,1.575 -7.8613,3.5 -4.112,1.925 -7.6965,3.5 -7.9668,3.5 -0.2703,0 -6.6326,2.925 -14.1387,6.5 -7.5061,3.575 -13.8453,6.5 -14.086,6.5 -1.2253,0 -77.2394,37.4273 -84.3769,41.5449 -1.375,0.7932 -7,3.8442 -12.5,6.7793 -19.8184,10.5763 -26.0416,13.9954 -28.5,15.6621 -4.2151,2.8576 -18.1886,10.159 -18.6192,9.7286 -0.2228,-0.2231 -0.5942,-21.5132 -0.8242,-47.3106 -0.3017,-33.8434 -0.8706,-51.1258 -2.0429,-62.0683 -0.8936,-8.3409 -1.4862,-17.5624 -1.3184,-20.4903 l 0.3047,-5.3222 12.1367,-10.5118 c 6.6746,-5.781 16.7996,-14.5277 22.5,-19.4375 5.7004,-4.9099 13.5133,-11.8913 17.3633,-15.5136 3.85,-3.6224 9.5357,-8.8295 12.6348,-11.5723 37.6002,-33.2769 122.5566,-116.89369 161.541,-158.99219 43.2599,-46.71552 55.604,-60.65299 86.791,-97.99609 4.134,-4.95 11.1193,-13.275 15.5215,-18.5 4.4023,-5.225 10.4501,-12.65 13.4414,-16.5 2.9913,-3.85 9.735,-12.4 14.9844,-19 38.813,-48.79935 80.9688,-109.30666 106.5976,-153 2.9035,-4.95 6.716,-11.25 8.4727,-14 1.7567,-2.75 4.2597,-7.025 5.5605,-9.5 1.3008,-2.475 3.8966,-7.11414 5.7695,-10.31055 6.8172,-11.63425 32.2665,-61.68067 39.5059,-77.68945 13.2712,-29.34695 29.9729,-72.96606 31.207,-81.5 0.7368,-5.0956 -1.8676,-10.11907 -6.6035,-12.73633 -3.657,-2.02104 -7.884,-1.93673 -20.4238,0.41015 -12.4931,2.33814 -38.9047,9.74658 -48.5,13.60352 -1.375,0.5527 -4.3,1.69283 -6.5,2.5332 -7.0878,2.70745 -26.8498,10.86201 -32,13.20508 -30.1127,13.6997 -75.3915,36.71083 -88.4141,44.93164 -2.225,1.40454 -4.266,2.55274 -4.5351,2.55274 -0.2691,0 -4.5771,2.3625 -9.5723,5.25 -4.9951,2.8875 -10.7451,6.1966 -12.7793,7.35351 -5.6089,3.18998 -20.8089,12.49707 -28.959,17.73242 -3.9932,2.56503 -7.5103,4.66407 -7.8164,4.66407 -0.306,0 -1.9894,1.08171 -3.7402,2.40429 -1.7508,1.32257 -6.0448,4.13507 -9.543,6.25 -8.7884,5.31328 -7.9858,4.79464 -24.1406,15.62305 -15.1221,10.13615 -25.069,16.92327 -36.6465,25.00976 -3.7697,2.63307 -10.2344,7.13307 -14.3672,10 -4.1329,2.86695 -9.7579,6.88683 -12.5,8.93165 -2.7422,2.04482 -6.7863,5.00819 -8.9863,6.58593 -10.4798,7.51565 -36.8048,27.24374 -43.5664,32.64844 -4.1616,3.3264 -16.0139,12.79688 -26.3399,21.04688 -30.6074,24.45393 -55.5954,45.53955 -73.5273,62.04492 -3.6116,3.3243 -9.9414,8.9493 -14.0664,12.5 -25.166,21.66227 -94.5223,91.26463 -117.2578,117.67383 -4.8172,5.5956 -9.2078,10.45231 -9.7559,10.79101 -0.5482,0.3388 -4.3253,4.74944 -8.3945,9.80274 -4.0692,5.0533 -12.8327,15.8833 -19.4746,24.0664 -6.642,8.1831 -13.9993,17.51644 -16.3477,20.74024 -2.3484,3.22382 -4.8866,5.86109 -5.6406,5.87109 -0.754,0.006 -9.079,-5.08776 -18.5,-11.31836 -17.7421,-11.7339 -18.5321,-12.22969 -32.6289,-20.46289 -13.7918,-8.0552 -36.8715,-20.18682 -43,-22.60352 -0.825,-0.3253 -2.175,-1.02674 -3,-1.55664 -1.326,-0.8518 -23.5336,-11.0741 -31.5,-14.5 -1.65,-0.7096 -6.3545,-2.54853 -10.4551,-4.08593 -4.1007,-1.5374 -8.6007,-3.39275 -10,-4.12305 -1.3994,-0.7303 -3.0928,-1.33399 -3.7617,-1.33398 -1.1526,-0.006 -6.6872,-2.18341 -10.5684,-4.15821 -2.5455,-1.2952 -41.4056,-14.05469 -52.7148,-17.30859 -5.225,-1.5033 -11.525,-3.39804 -14,-4.21094 -2.475,-0.8128 -6.3,-1.83724 -8.5,-2.27734 -2.2,-0.4401 -7.6,-1.81735 -12,-3.06055 -4.4,-1.2433 -9.8,-2.60128 -12,-3.01758 -2.2,-0.4163 -8.95,-1.94097 -15,-3.38867 -15.8257,-3.7872 -23.0659,-5.33137 -31,-6.60547 -3.85,-0.6183 -10.15,-1.74155 -14,-2.49805 -3.85,-0.7564 -12.4,-2.08788 -19,-2.95898 -6.6,-0.871 -15.15,-2.07262 -19,-2.66992 -3.85,-0.5973 -11.275,-1.44451 -16.5,-1.88281 -5.225,-0.4383 -14,-1.25992 -19.5,-1.82422 -5.5,-0.5642 -21.7,-1.55342 -36.00001,-2.19922 -38.0789,-1.7198 -91.8808,0.83255 -118,5.59765 -4.4,0.8027 -9.57726,1.45949 -11.50586,1.45899 -1.9286,-4e-4 -5.0786,0.46591 -7,1.03711 -7.444,2.2131 -18.47924,3.73265 -19.74414,2.71875 -0.7613,-0.6103 -1.25,-3.46042 -1.25,-7.29102 0,-3.4593 -0.6751,-9.818 -1.5,-14.1289 -0.8249,-4.3109 -1.50391,-10.53789 -1.50391,-13.83789 -0.002,-3.3 -0.66902,-10.05 -1.48242,-15 -0.8133,-4.95005 -1.47967,-10.8 -1.48047,-13 -8e-4,-2.2 -0.66656,-8.275 -1.48047,-13.5 -0.81398,-5.225 -2.18316,-14.9 -3.04296,-21.5 -0.8598,-6.6 -2.05425,-14.925 -2.65235,-18.5 -0.598,-3.575 -1.48026,-9.65 -1.96093,-13.5 -0.9403,-7.52922 -1.16085,-9.01844 -3.49415,-23.5 -5.1216,-31.78784 -7.76105,-46.78975 -11.87695,-67.5 -0.7652,-3.85 -1.91393,-10.15 -2.55273,-14 -0.6387,-3.85 -1.75577,-9.925 -2.48047,-13.5 -0.7247,-3.575 -2.08872,-10.325 -3.0332,-15 -0.9445,-4.675 -2.3342,-11.04016 -3.0879,-14.14454 -0.7537,-3.10439 -1.37109,-6.66484 -1.37109,-7.9121 0,-1.24729 -0.64585,-4.55713 -1.43555,-7.35547 -0.7897,-2.79834 -2.6174,-10.71289 -4.0625,-17.58789 -3.9914,-18.98896 -5.58872,-26.03445 -7.11132,-31.36524 -0.7642,-2.67566 -1.39063,-5.56111 -1.39063,-6.41211 0,-0.851 -0.70621,-4.06142 -1.57031,-7.13476 -2.9888,-10.63055 -4.2699,-15.63677 -6.9336,-27.08789 -2.5515,-10.96863 -3.92945,-16.30295 -7.09765,-27.5 -0.7781,-2.75 -2.82513,-10.175 -4.54883,-16.5 -8.8498,-32.47374 -19.51681,-68.94973 -21.78711,-74.5 -0.45,-1.1 -2.02876,-6.05 -3.50977,-11 -1.48099,-4.95 -3.30724,-10.575 -4.05664,-12.5 -1.2791,-3.2856 -7.5516,-21.39545 -12.4707,-36 -1.2041,-3.575 -3.00962,-8.525 -4.01172,-11 -1.0021,-2.475 -3.70666,-9.45 -6.00976,-15.5 -2.3031,-6.05 -4.77886,-12.35 -5.50196,-14 -0.7232,-1.65 -3.78453,-8.85 -6.80273,-16 -8.2107,-19.45089 -23.33904,-51.21117 -29.05664,-61 -0.6425,-1.1 -2.94293,-5.15 -5.11133,-9 -6.7765,-12.03175 -22.37618,-35.065376 -26.14648,-38.607426 -1.78287,-1.674904 -4.35458,-2.514177 -7.07032,-2.609375 z"
       id="path4218"
       inkscape:connector-curvature="0" />
    <path
       inkscape:connector-curvature="0"
       id="path4146"
       d="m 1481.2757,2814.3037 c -9.6382,-2.4862 -17.957,-7.4129 -26.0866,-15.4497 -4.1727,-4.125 -8.7611,-9.0608 -10.1964,-10.9685 l -2.6098,-3.4686 -10.8036,1.6931 c -17.0542,2.6727 -32.6618,4.552 -47.8036,5.7562 -7.7,0.6124 -21.425,1.7459 -30.5,2.519 -9.075,0.773 -25.725,1.6821 -37.0001,2.0202 -11.275,0.338 -28.6,0.9858 -38.5,1.4393 -19.4144,0.8895 -213.1195,0.5459 -225.5,-0.4 -4.125,-0.3152 -27.975,-1.0817 -52.99998,-1.7035 -25.025,-0.6217 -47.75,-1.2588 -50.5,-1.4157 -2.75,-0.1568 -17.375,-0.793 -32.5,-1.4137 -41.9563,-1.7218 -63.1473,-2.7968 -90.5,-4.5908 -38.7512,-2.5416 -98.9661,-2.2976 -186,0.7535 -85.2358,2.9882 -193.1201,0.4925 -248,-5.7369 -7.15,-0.8116 -15.025,-1.6365 -17.5,-1.8331 -7.6508,-0.6079 -24.1304,-2.7342 -31.9965,-4.1283 -8.278,-1.4672 -9.8825,-1.047 -12.0279,3.1504 -4.8787,9.5447 -12.6232,17.3928 -21.6898,21.9801 -10.6522,5.3895 -25.1981,2.8312 -39.5088,-6.9488 -6.277,-4.2898 -30.777,-28.222 -30.777,-30.0639 0,-0.5585 -1.9309,-3.5185 -4.291,-6.5778 -4.1112,-5.3291 -7.069,-9.4929 -9.2011,-12.9525 -0.5456,-0.8853 -3.2998,-5.2097 -6.1204,-9.6097 -5.1253,-7.9953 -16.7256,-28.3361 -19.39,-34 -0.7762,-1.65 -1.9353,-3.675 -2.5758,-4.5 -0.6405,-0.825 -3.7396,-6.675 -6.8869,-13 -3.1473,-6.325 -6.133,-12.175 -6.6349,-13 -0.502,-0.825 -1.1738,-2.175 -1.4929,-3 -0.3192,-0.825 -2.2869,-5.1 -4.3728,-9.5 -2.0859,-4.4 -4.591,-9.8 -5.5669,-12 -0.9759,-2.2 -4.229,-9.175 -7.229,-15.5 -3,-6.325 -6.3413,-13.75 -7.4251,-16.5 -1.0838,-2.75 -3.5101,-8.2497 -5.3919,-12.2215 -1.8817,-3.9719 -3.4213,-7.4823 -3.4213,-7.801 0,-0.5503 -6.6137,-16.5819 -9.4792,-22.9775 -0.7392,-1.65 -3.9022,-9.525 -7.0288,-17.5 -3.1266,-7.975 -6.046,-14.95 -6.4877,-15.5 -0.4417,-0.55 -3.5963,-9.325 -7.0103,-19.5 -3.4141,-10.175 -6.6093,-18.9275 -7.1007,-19.45 -0.4913,-0.5225 -0.8933,-1.7533 -0.8933,-2.7351 0,-0.9818 -1.3027,-5.7293 -2.8948,-10.55 -1.5922,-4.8207 -3.6665,-11.6899 -4.6096,-15.2649 -0.9431,-3.575 -2.3404,-7.918 -3.105196,-9.6511 -0.7647,-1.7332 -1.3904,-4.0691 -1.3904,-5.191 0,-1.1219 -0.45,-2.318 -1,-2.6579 -0.55,-0.3399 -1,-1.7226 -1,-3.0726 0,-1.35 -0.4363,-3.2359 -0.9695,-4.191 -1.2484,-2.2362 -6.2504,-21.0909 -8.0213,-30.2364 -0.4793,-2.475 -1.3038,-5.85 -1.8324,-7.5 -0.5286,-1.65 -1.5045,-5.7 -2.1687,-9 -0.6642,-3.3 -1.8138,-8.7 -2.5547,-12 -2.3467,-10.4528 -3.3706,-17.5564 -4.9705,-34.4836 -2.1031,-22.251 -0.7314,-37.2997 4.1756,-45.8086 3.1551,-5.471 9.5908,-10.2078 13.8691,-10.2078 3.7074,0 4.5016,-0.8064 6.894096,-7 2.3517,-6.0882 4.9485,-8.6301 10.8029,-10.5746 4.1082,-1.3645 5.649,-1.4407 9.1738,-0.4538 6.3536,1.7789 15.7642,10.0724 22.5643,19.8858 2.0877,3.0128 2.6899,3.2984 5.8685,2.7826 5.2668,-0.8547 11.1815,1.0313 16.5735,5.2848 4.8929,3.8598 16.5755,17.6993 16.5883,19.6509 0,0.5916 1.132,2.1326 2.507,3.4243 1.375,1.2917 2.5,2.8085 2.5,3.3706 0,0.562 1.125,2.7336 2.5,4.8256 1.375,2.0921 3.6862,5.6038 5.136,7.8038 1.4498,2.2 3.1373,3.9783 3.75,3.9519 0.6127,-0.026 2.9549,-2.4931 5.2049,-5.4815 16.6489,-22.1119 46.7586,-52.4381 70.0349,-70.5383 9.8144,-7.6319 26.4154,-18.5547 34.8642,-22.9392 4.3946,-2.2806 8.4446,-4.494 9,-4.9188 3.8994,-2.9819 29.3588,-12.5052 43.51,-16.2753 15.0648,-4.0135 20.7077,-4.7311 43.9176,-5.5847 l 19.4175,-0.7141 8.3538,-16 c 4.5946,-8.8 8.7451,-16.9 9.2233,-18 2.2407,-5.1536 6.1966,-13.7685 9.9597,-21.689 2.2704,-4.7789 4.1281,-9.3541 4.1281,-10.1671 0,-2.0894 -2.2995,-7.192 -14.3558,-31.855 -5.8373,-11.9411 -13.5891,-27.9161 -17.2263,-35.5 -6.808,-14.1957 -60.8924,-123.6087 -62.4264,-126.2889 -3.3651,-5.8798 -52.9915,-105.7364 -52.9915,-106.6277 0,-0.6201 -0.675,-1.6876 -1.5,-2.3723 -0.825,-0.6847 -1.5,-1.9419 -1.5,-2.7937 0,-0.8519 -0.5978,-2.2593 -1.3284,-3.1276 -0.7307,-0.8683 -5.0781,-9.6787 -9.6609,-19.5787 -4.5829,-9.9 -10.9601,-23.4569 -14.1716,-30.1264 -3.2115,-6.6695 -5.8391,-12.3848 -5.8391,-12.7007 0,-0.3158 -2.7024,-6.4739 -6.0053,-13.6846 -5.4664,-11.9337 -18.1206,-42.8982 -20.0199,-48.9883 -0.4289,-1.375 -2.8902,-8.35 -5.4696,-15.5 -2.5795,-7.15 -5.1196,-14.575 -5.6447,-16.5 -0.5252,-1.925 -1.3529,-4.4 -1.8396,-5.5 -1.8225,-4.1199 -16.5654,-52.5914 -18.0972,-59.5 -0.4268,-1.925 -1.7201,-6.875 -2.874,-11 -4.2477,-15.1853 -5.1777,-18.5746 -6.0365,-22 -0.4826,-1.925 -2.2978,-8.9 -4.0337,-15.5 -1.7359,-6.6 -3.5048,-13.575 -3.9309,-15.5 -2.0999,-9.4874 -6.2737,-25.9957 -7.5849,-30 -0.8105,-2.475 -1.4714,-5.4968 -1.4687,-6.7151 0,-1.2182 -0.6016,-4.1432 -1.3431,-6.5 -0.7414,-2.3567 -1.8832,-7.2099 -2.5373,-10.7849 -0.6541,-3.575 -1.8236,-9.425 -2.5988,-13 -0.7752,-3.575 -2.1623,-10.1 -3.0824,-14.5 -0.9201,-4.4 -2.0342,-9.35 -2.4759,-11 -0.4417,-1.65 -1.7604,-8.175 -2.9305,-14.5 -1.17,-6.325 -2.7592,-14.425 -3.5314,-18 -0.7723,-3.575 -1.916,-9.875 -2.5417,-14 -0.6257,-4.125 -1.7713,-10.5138 -2.5458,-14.1974 -0.7744,-3.6836 -1.4081,-8.2289 -1.4081,-10.1008 0,-1.8718 -0.4496,-4.708 -0.9992,-6.3026 -0.5495,-1.5945 -1.3974,-6.874 -1.8841,-11.732 -0.7799,-7.7843 -1.2367,-9.2088 -3.8484,-12 -4.8414,-5.1741 -14.2829,-17.4907 -16.8523,-21.9841 -5.6078,-9.8071 -1.3094,-19.1247 11.584,-25.1103 3.025,-1.4043 6.175,-2.5677 7,-2.5853 0.825,-0.018 2.5293,-0.8241 3.7874,-1.7923 l 2.2875,-1.7603 -1.623,-9.4045 c -1.9025,-11.0245 -1.3208,-16.8443 2.0884,-20.8959 4.6686,-5.5483 9.3279,-6.1141 25.4597,-3.0918 10.5258,1.9721 10.5309,1.971 10.2892,-2.0427 -1.0439,-17.3329 -0.7659,-22.885 1.2859,-25.6821 5.6362,-7.6836 13.5008,-8.0477 36.4249,-1.6864 3.025,0.8394 7.0661,1.6032 8.9802,1.6974 3.3268,0.1636 3.5082,-0.01 4.1139,-3.8289 1.9816,-12.5104 7.6079,-26.1531 12.5893,-30.5269 2.7928,-2.4521 4.265,-2.9731 8.4011,-2.9731 7.7041,0 14.5351,4.2122 30.4068,18.75 4.9538,4.5375 9.4914,8.25 10.0835,8.25 0.5921,0 2.1675,-1.1662 3.5009,-2.5915 4.065,-4.3454 16.5439,-13.3236 22.1394,-15.9286 3.7145,-1.7293 7.0326,-2.4633 11.1665,-2.4701 5.5968,-0.01 6.0885,0.1972 10.1567,4.2653 6.1318,6.1318 7.8862,12.744 7.2034,27.149 l -0.5216,11.0062 22.0247,22.0349 c 20.8712,20.8808 33.0774,33.8616 44.1632,46.9657 l 4.908,5.8016 1.8198,-2.3662 c 1.0008,-1.3015 1.8297,-3.0638 1.842,-3.9163 0.012,-0.8525 0.3823,-1.9775 0.8224,-2.5 0.44,-0.5225 1.8336,-3.65 3.0968,-6.95 4.377,-11.4346 7.3549,-19.0142 8.6435,-22 4.0244,-9.3252 16.7751,-41.5898 22.9211,-58 1.2359,-3.3 2.7627,-7.2375 3.3928,-8.75 3.954,-9.4913 7.3314,-18.6484 12.2636,-33.25 2.2294,-6.6 4.4018,-12.9 4.8276,-14 0.8277,-2.1382 2.4603,-7.6188 6.5533,-22 1.4089,-4.95 2.9719,-10.35 3.4735,-12 0.5016,-1.65 1.8482,-7.05 2.9925,-12 4.3202,-18.6891 4.9815,-21.2182 10.4593,-40 2.9558,-10.1347 3.5059,-11.7752 7.7121,-23 1.6488,-4.4 3.3839,-9.125 3.8558,-10.5 1.0887,-3.172 3.8114,-10.069 8.4876,-21.5 3.554,-8.688 16.6233,-35.257 21.8894,-44.5 1.4101,-2.475 3.4148,-6.07499 4.4547,-7.99999 4.9002,-9.0703 8.0475,-14.3229 14.6796,-24.5 8.2328,-12.6333 9.5762,-14.6522 13.0534,-19.6172 2.4091,-3.44 2.4632,-3.8075 1.1046,-7.5 -0.7857,-2.1356 -2.1482,-6.5828 -3.0278,-9.8828 -0.8795,-3.3 -2.4857,-9.15002 -3.5692,-13.00002 -3.5196,-12.5063 -14.341,-55.8767 -15.0954,-60.5 -0.7516,-4.606 -1.339,-7.45 -4.9573,-24 -1.9547,-8.9408 -5.679,-28.0501 -8.0882,-41.5 -0.5912,-3.3 -1.4857,-8.025 -1.988,-10.5 -0.5023,-2.475 -1.5906,-9.225 -2.4185,-15 -0.8279,-5.775 -2.1693,-14.775 -2.9811,-20.00005 -4.8449,-31.1873 -8.6921,-61.89838 -10.5689,-84.36901 -0.4993,-5.97796 -1.173,-11.70471 -1.4972,-12.72613 -0.5597,-1.76345 -0.9384,-7.37728 -3.4344,-50.90486 -0.5835,-10.175 -1.3239,-20.75 -1.6455,-23.5 -0.3215,-2.75 -0.8092,-35.15 -1.0838,-72 -0.4054,-54.39198 -0.1979,-71.89266 1.1024,-93 2.8267,-45.88591 5.1503,-73.21496 7.7797,-91.5 0.5932,-4.125 1.4076,-10.425 1.8099,-14 0.4022,-3.575 1.2123,-9.2 1.8001,-12.5 0.5878,-3.3 1.8272,-10.725 2.7541,-16.5 3.119,-19.43124 9.0038,-49.3694 11.0446,-56.1879 0.7717,-2.57834 1.4031,-5.46379 1.4031,-6.41211 0,-0.94831 0.6454,-4.01376 1.4343,-6.8121 0.7889,-2.79834 2.1248,-7.78789 2.9688,-11.08789 1.5005,-5.86724 7.3322,-26.55219 10.0085,-35.5 1.4522,-4.85523 6.124,-18.24319 7.5024,-21.5 1.0097,-2.38542 3.0905,-7.81332 6.1337,-16 3.5192,-9.46742 18.6958,-41.126501 22.4932,-46.922141 3.7177,-5.67386 14.09,-7.15214 18.8443,-2.68573 3.7703,3.54205 19.3693,26.576121 26.1458,38.607871 2.1684,3.85 4.4682,7.9 5.1107,9 5.7176,9.78883 20.8466,41.54911 29.0573,61 3.0182,7.15 6.0792,14.35 6.8024,16 0.7231,1.65 3.1991,7.95 5.5022,14 2.3031,6.05 5.0073,13.025 6.0094,15.5 1.0021,2.475 2.8071,7.425 4.0112,11 4.9191,14.60455 11.1933,32.7144 12.4724,36 0.7494,1.925 2.5742,7.55 4.0552,12.5 1.481,4.95 3.0608,9.9 3.5108,11 2.2703,5.55027 12.9377,42.02626 21.7875,74.5 1.7237,6.325 3.7706,13.75 4.5487,16.5 3.1682,11.19705 4.5446,16.53137 7.0961,27.5 2.6637,11.45112 3.9452,16.45734 6.934,27.08789 0.8641,3.07334 1.5711,6.28417 1.5711,7.13517 0,0.851 0.6253,3.73645 1.3895,6.41211 1.5226,5.33079 3.1199,12.37587 7.1113,31.36483 1.4451,6.875 3.2736,14.78955 4.0633,17.58789 0.7897,2.79834 1.4359,6.10839 1.4359,7.35566 0,1.24727 0.6166,4.80772 1.3703,7.91211 0.7537,3.10438 2.1431,9.46934 3.0876,14.14434 0.9445,4.675 2.3103,11.425 3.035,15 0.7247,3.575 1.8403,9.65 2.479,13.5 0.6388,3.85 1.7874,10.15 2.5526,14 4.1159,20.71025 6.7556,35.71216 11.8772,67.5 2.3333,14.48156 2.5547,15.97078 3.495,23.5 0.4807,3.85 1.3634,9.925 1.9614,13.5 0.5981,3.575 1.7908,11.9 2.6506,18.5 0.8598,6.6 2.2293,16.275 3.0433,21.5 0.8139,5.225 1.4806,11.3 1.4814,13.5 8e-4,2.2 0.6669,8.05 1.4802,13.00005 0.8134,4.95 1.4806,11.7 1.4828,15 0,3.3 0.6789,9.527 1.5038,13.8379 0.8249,4.3109 1.4998,10.6683 1.4998,14.1276 0,3.8306 0.4887,6.6813 1.25,7.2916 1.2649,1.0139 12.2994,-0.5055 19.7434,-2.7186 1.9214,-0.5712 5.0714,-1.0382 7,-1.0378 1.9286,5e-4 7.1066,-0.656 11.5066,-1.4587 26.1192,-4.7651 79.9211,-7.3172 118,-5.5974 14.29998,0.6458 30.49998,1.6359 35.99998,2.2001 5.5,0.5643 14.275,1.3846 19.5,1.8229 5.225,0.4383 12.65,1.2857 16.5,1.883 3.85,0.5973 12.4,1.7987 19,2.6697 6.6,0.8711 15.15,2.2027 19,2.9591 3.85,0.7565 10.15,1.8813 14,2.4996 7.9341,1.2741 15.1743,2.8164 31,6.6036 6.05,1.4477 12.8,2.9729 15,3.3892 2.2,0.4163 7.6,1.774 12,3.0173 4.4,1.2432 9.8,2.6205 12,3.0606 2.2,0.4401 6.025,1.4653 8.5,2.2781 2.475,0.8129 8.775,2.708 14,4.2113 11.3092,3.2539 50.1696,16.0133 52.7151,17.3085 3.8812,1.9748 9.4162,4.1527 10.5688,4.1585 0.6689,0 2.361,0.6037 3.7604,1.334 1.3993,0.7303 5.8993,2.5856 10,4.123 4.1006,1.5374 8.8057,3.3758 10.4557,4.0854 7.9664,3.4259 30.1741,13.6489 31.5001,14.5007 0.825,0.5299 2.175,1.2297 3,1.555 6.1285,2.4167 29.2082,14.5495 43,22.6047 14.0968,8.2332 14.887,8.7288 32.6291,20.4627 9.421,6.2306 17.746,11.32382 18.5,11.31822 0.754,-0.01 3.2924,-2.6478 5.6408,-5.87162 2.3484,-3.2238 9.7042,-12.5567 16.3462,-20.7398 6.6419,-8.1831 15.4057,-19.0129 19.4749,-24.0662 4.0692,-5.0533 7.8471,-9.465 8.3953,-9.8038 0.5481,-0.3387 4.938,-5.1941 9.7552,-10.7897 22.7355,-26.4092 92.0925,-96.0123 117.2585,-117.67457 4.125,-3.5507 10.4549,-9.1757 14.0665,-12.5 17.9319,-16.50537 42.9187,-37.59025 73.5261,-62.04418 10.326,-8.25 22.1794,-17.7216 26.341,-21.048 6.7616,-5.4047 33.0866,-25.13203 43.5664,-32.64768 2.2,-1.57774 6.2435,-4.54165 8.9857,-6.58647 2.7421,-2.04482 8.3671,-6.06353 12.5,-8.93048 4.1328,-2.86694 10.5987,-7.36694 14.3684,-10 11.5775,-8.0865 21.5238,-14.87492 36.6459,-25.01107 16.1548,-10.82841 15.3512,-10.30833 24.1396,-15.62161 3.4982,-2.11493 7.7929,-4.92743 9.5437,-6.25 1.7508,-1.32258 3.4337,-2.40469 3.7397,-2.40469 0.3061,0 3.8236,-2.09866 7.8168,-4.66369 8.1501,-5.23535 23.3498,-14.54285 28.9587,-17.73283 2.0342,-1.15691 7.7855,-4.46598 12.7806,-7.35348 4.9952,-2.8875 9.3023,-5.25 9.5714,-5.25 0.2691,0 2.3096,-1.14917 4.5346,-2.55371 13.0226,-8.22081 58.3022,-31.23106 88.4149,-44.93076 5.1502,-2.34307 24.9122,-10.49868 32,-13.20613 2.2,-0.84037 5.125,-1.98016 6.5,-2.53286 9.5953,-3.85694 36.0069,-11.26456 48.5,-13.6027 12.5398,-2.34688 16.7657,-2.43189 20.4227,-0.41085 4.7359,2.61726 7.3409,7.64141 6.6041,12.73701 -1.2341,8.53394 -17.9365,52.15305 -31.2077,81.5 -7.2394,16.00878 -32.6876,66.0541 -39.5048,77.68835 -1.8729,3.19641 -4.4696,7.83665 -5.7704,10.31165 -1.3008,2.475 -3.8023,6.75 -5.559,9.5 -1.7567,2.75 -5.5696,9.05 -8.4731,14 -25.6288,43.69334 -67.7857,104.2007 -106.5987,153.00005 -5.2494,6.6 -11.9918,15.15 -14.9831,19 -2.9913,3.85 -9.0405,11.275 -13.4428,16.5 -4.4022,5.225 -11.3863,13.55 -15.5203,18.5 -31.187,37.3431 -43.5306,51.2804 -86.7905,97.99592 -38.9844,42.0985 -123.9414,125.71409 -161.5416,158.99099 -3.0991,2.7428 -8.7848,7.9506 -12.6348,11.573 -3.85,3.6223 -11.6639,10.6032 -17.3643,15.5131 -5.7004,4.9098 -15.8254,13.657 -22.5,19.438 l -12.1357,10.511 -0.3052,5.3236 c -0.1678,2.9279 0.4259,12.148 1.3195,20.4889 1.1723,10.9425 1.7412,28.2265 2.0429,62.0699 0.23,25.7974 0.6007,47.0868 0.8237,47.3099 0.4305,0.4304 14.404,-6.8703 18.6191,-9.7279 2.4584,-1.6667 8.6816,-5.0869 28.5,-15.6632 5.5,-2.9351 11.125,-5.9856 12.5,-6.7788 7.1375,-4.1176 83.1519,-41.5444 84.3772,-41.5444 0.2407,0 6.5789,-2.925 14.085,-6.5 7.5061,-3.575 13.8685,-6.5 14.1388,-6.5 0.2703,0 3.8555,-1.575 7.9672,-3.5 4.1116,-1.925 7.6492,-3.5 7.8613,-3.5 0.2121,0 4.7195,-2.025 10.0164,-4.5 5.2968,-2.475 9.8118,-4.5 10.0332,-4.5 0.2214,0 4.2808,-1.8 9.0209,-4 4.7401,-2.2 8.8456,-4 9.1233,-4 0.2777,0 2.8385,-1.063 5.6908,-2.3622 2.8522,-1.2993 6.3109,-2.7109 7.6859,-3.137 1.375,-0.4261 6.2211,-2.5131 10.7692,-4.6378 4.5481,-2.1246 8.5382,-3.863 8.8668,-3.863 0.5851,0 19.9365,-7.82 25.864,-10.4517 7.3373,-3.2577 10.9169,-4.7338 25.5,-10.5151 8.525,-3.3797 16.4,-6.523 17.5,-6.9851 2.4946,-1.0481 19.8153,-7.5685 28.5,-10.7288 3.575,-1.301 7.4,-2.77 8.5,-3.2647 1.1,-0.4946 4.25,-1.6867 7,-2.6491 2.75,-0.9625 5.45,-2.0756 6,-2.4737 0.55,-0.3981 2.575,-1.185 4.5,-1.7486 1.925,-0.5635 5.975,-1.9816 9,-3.1513 3.025,-1.1696 8.425,-3.1727 12,-4.4513 3.575,-1.2786 12.35,-4.4355 19.5,-7.0154 7.15,-2.5799 15.7,-5.5781 19,-6.6625 3.3,-1.0845 6.9,-2.3855 8,-2.8913 2.689,-1.2363 23.2036,-8.2439 38.0048,-12.982 6.6026,-2.1136 14.7026,-4.7233 18,-5.7994 3.2973,-1.0761 10.7202,-3.4241 16.4952,-5.2178 10.8592,-3.3729 13.3673,-4.6089 12.43,-6.1255 -0.3014,-0.4877 -0.098,-0.8867 0.452,-0.8867 0.55,0 1.2791,0.4517 1.6203,1.0037 0.7192,1.1637 2.44,0.8271 15.9977,-3.1293 5.5,-1.605 11.575,-3.3166 13.5,-3.8036 1.925,-0.487 6.0146,-1.6022 9.0879,-2.4781 8.6256,-2.4585 15.129,-2.1225 18.8061,0.9716 4.0385,3.3981 5.1345,7.7658 4.0539,16.1544 -0.4805,3.7297 -1.3588,11.2813 -1.9518,16.7813 -2.2068,20.4663 -4.2325,36.6095 -8.4077,67 -0.8312,6.05 -2.2171,16.4 -3.0798,23 -0.8626,6.6 -2.2379,16.5 -3.0561,22 -0.8181,5.5 -1.9089,12.925 -2.4239,16.5 -4.4068,30.5902 -8.7567,58.5071 -11.0629,71 -0.5584,3.025 -1.4199,8.6524 -1.9145,12.5054 -0.4946,3.8529 -1.3485,9.0279 -1.8976,11.5 -0.549,2.472 -1.5069,7.8696 -2.1285,11.9946 -2.1326,14.1528 -6.9143,41.0397 -8.6369,48.5639 -0.7635,3.3351 -1.3882,7.1306 -1.3882,8.4344 0,1.3038 -0.6417,4.875 -1.4261,7.9361 -0.7843,3.0611 -2.1793,10.0656 -3.0999,15.5656 -0.9207,5.5 -2.2641,12.475 -2.9855,15.5 -0.7213,3.025 -1.8279,8.65 -2.459,12.5 -0.6312,3.85 -1.7724,9.7 -2.5361,13 -0.7637,3.3 -2.0871,9.0175 -2.941,12.7055 -0.8538,3.688 -1.5524,7.6098 -1.5524,8.7151 0,1.1052 -0.614,3.9377 -1.3645,6.2945 -0.7505,2.3567 -2.152,8.1099 -3.1146,12.7849 -0.9626,4.675 -2.3317,10.525 -3.0424,13 -0.7108,2.475 -2.5034,9.9 -3.9835,16.5 -1.4801,6.6 -3.1389,13.35 -3.6863,15 -0.5473,1.65 -2.0638,7.05 -3.37,12 -1.3062,4.95 -3.3171,12.15 -4.4688,16 -1.1517,3.85 -2.4824,8.575 -2.9572,10.5 -3.9006,15.8159 -17.8794,51.8609 -21.8612,56.3703 -1.9165,2.1704 -12.7415,7.6297 -15.1287,7.6297 -0.8925,0 -2.0503,0.389 -2.5728,0.8644 -0.5225,0.4754 -12.875,5.9396 -27.45,12.1426 -14.575,6.2031 -29.7954,12.7891 -33.823,14.6356 -4.0277,1.8466 -7.7833,3.3574 -8.3457,3.3574 -0.5625,0 -2.2171,0.634 -3.677,1.4089 -3.879,2.059 -14.101,6.5911 -14.8659,6.5911 -0.3613,0 -2.4865,0.8596 -4.7227,1.9102 -2.2361,1.0506 -7.4407,3.327 -11.5657,5.0587 -11.4214,4.7949 -12.3844,5.2077 -14.005,6.0032 -0.8278,0.4064 -8.7028,3.7605 -17.5,7.4535 -8.7973,3.6931 -17.795,7.529 -19.995,8.5242 -2.2,0.9952 -8.5,3.7117 -14,6.0366 -5.5,2.325 -12.3758,5.3042 -15.2796,6.6204 -2.9038,1.3163 -5.4907,2.3932 -5.7487,2.3932 -0.4465,0 -15.6156,6.5346 -21.9717,9.4651 -1.65,0.7607 -7.5,3.2772 -13,5.5923 -5.5,2.315 -12.8137,5.4991 -16.2527,7.0758 -3.4389,1.5768 -6.5053,2.8668 -6.814,2.8668 -0.3088,0 -3.1201,1.1732 -6.2474,2.6071 -3.1272,1.4339 -7.8663,3.4693 -10.5312,4.523 -2.665,1.0537 -8.1873,3.4805 -12.272,5.3929 -4.0846,1.9123 -7.6452,3.477 -7.9125,3.477 -0.2672,0 -5.5086,2.2662 -11.6475,5.036 -6.1389,2.7698 -14.1228,6.2054 -17.7421,7.6346 -3.6193,1.4292 -7.0306,2.9496 -7.5806,3.3787 -0.55,0.429 -3.9716,1.8985 -7.6035,3.2654 -3.632,1.367 -7.457,2.9418 -8.5,3.4997 -2.982,1.5948 -13.3892,6.1856 -14.0227,6.1856 -0.6177,0 -3.1667,1.1041 -13.6265,5.9023 -3.7139,1.7038 -7.0215,3.0977 -7.35,3.0977 -0.3286,0 -4.2649,1.738 -8.7474,3.8621 -4.4824,2.1242 -9.2749,4.2109 -10.6499,4.637 -1.375,0.4261 -6.1,2.4516 -10.5,4.5009 -4.4,2.0493 -9.125,4.0732 -10.5,4.4974 -1.375,0.4242 -6.6896,2.7358 -11.8101,5.1369 -5.1206,2.4011 -9.5369,4.3657 -9.8141,4.3657 -1.5512,0 -11.3758,5.1272 -11.3758,5.9368 0,0.5302 5.85,12.6744 13,26.9872 7.15,14.3128 13,26.2273 13,26.4767 0,0.2494 12.8724,26.4702 28.6052,58.2684 15.7329,31.7981 34.0072,68.8435 40.6095,82.3229 6.6023,13.4794 15.7799,32.0325 20.3947,41.229 8.7494,17.436 9.5802,20.5778 6.8421,25.8729 -1.7381,3.361 -6.8784,6.8967 -10.0348,6.9024 -1.1459,0 -2.3576,0.2779 -2.6927,0.613 -0.6139,0.6139 -7.9907,3.3092 -28.224,10.3123 -6.05,2.094 -13.925,4.9438 -17.5,6.333 -3.575,1.3892 -7.4,2.7694 -8.5,3.0672 -1.1,0.2978 -6.95,2.3197 -13,4.4931 -6.05,2.1734 -16.85,6.014 -24,8.5346 -7.15,2.5206 -15.475,5.5086 -18.5,6.6398 -3.025,1.1313 -9.55,3.4451 -14.5,5.1418 -14.6244,5.0128 -33.8474,11.8892 -36,12.8779 -1.1,0.5052 -6.95,2.5579 -13,4.5616 -6.05,2.0036 -11.45,3.993 -12,4.4207 -0.55,0.4278 -2.5602,1.1119 -4.4672,1.5204 -1.9069,0.4084 -4.1569,1.1063 -5,1.5508 -0.843,0.4445 -3.1078,1.3288 -5.0328,1.9651 -11.316,3.7406 -28.4769,10.0493 -29.14,10.7124 -1.341,1.341 0.8971,13.4639 2.8381,15.3726 0.9911,0.9745 9.4519,7.1854 18.8019,13.802 27.2525,19.2854 40.5085,28.7714 51.721,37.0119 9.6038,7.0581 11.9508,12.9993 7.815,19.7823 -1.362,2.2338 -11.8694,9.8012 -34.5786,24.9036 l -32.6221,21.6947 12.4152,12.5964 c 14.5396,14.7519 22.6819,24.6294 32.2285,39.0965 3.8108,5.775 7.6883,11.4 8.6167,12.5 0.9284,1.1 2.8941,4.3343 4.3682,7.1873 3.5908,6.9499 5.3266,8.3649 7.0841,5.775 11.9053,-17.5445 23.6231,-32.4401 29.8634,-37.9623 6.9979,-6.1925 12.2961,-11.4863 22.8617,-22.8424 8.5875,-9.23 10.9544,-10.9189 18.4751,-13.1823 4.1676,-1.2542 4.8826,-1.197 8.6475,0.6916 8.2301,4.1284 12.1845,9.9072 13.3953,19.5752 0.6615,5.2819 0.9677,5.7971 4.5736,7.6957 5.2951,2.7881 9.3227,9.0598 11.7493,18.2957 1.8363,6.9896 1.9754,9.5671 1.3904,25.7665 -0.6601,18.2784 -2.9156,36.9199 -6.6547,55 -1.1375,5.5 -2.4317,12.025 -2.8761,14.5 -0.4444,2.475 -1.5645,7.875 -2.4891,12 -0.9246,4.125 -2.0479,9.3 -2.4962,11.5 -1.033,5.0694 -5.6316,23.43 -7.5138,30 -1.821,6.3564 -3.5304,12.4682 -6.992,25 -1.5193,5.5 -3.9898,13.825 -5.4899,18.5 -1.5002,4.675 -4.6387,14.575 -6.9745,22 -4.3346,13.779 -8.6876,26.5625 -12.0883,35.5 -1.0463,2.75 -3.5146,9.275 -5.4849,14.5 -8.0404,21.3212 -12.2098,31.5649 -22.9742,56.4447 -5.8926,13.6195 -27.425,56.3111 -33.8208,67.0553 -8.6992,14.6138 -20.076,32.0471 -25.9818,39.8133 -11.7552,15.4585 -26.145,26.2028 -39.9456,29.826 -8.3032,2.18 -11.283,2.2293 -18.7224,0.3104 z m 18.6011,-27.0255 c 12.678,-6.6658 28.467,-27.3932 49.4235,-64.8816 8.357,-14.9495 20.808,-39.995 26.3694,-53.0426 2.1098,-4.95 4.87,-11.25 6.1337,-14 3.8116,-8.2945 15.9393,-38.8556 21.0322,-53 5.1536,-14.3128 8.7202,-24.5605 9.397,-27 1.4697,-5.2971 6.0973,-18.9494 6.9637,-20.5439 0.4614,-0.8491 1.8034,-5.3491 2.9824,-10 1.1789,-4.6508 2.5509,-9.3561 3.0488,-10.4561 1.1238,-2.4825 2.5571,-7.3379 8.4128,-28.5 0.8371,-3.025 2.2352,-7.975 3.107,-11 0.8718,-3.025 2.239,-8.425 3.0382,-12 0.7992,-3.575 2.3602,-10.325 3.4689,-15 1.1087,-4.675 2.4782,-11.2 3.0434,-14.5 0.5651,-3.3 1.4291,-7.125 1.9199,-8.5 0.4909,-1.375 1.1461,-4.6375 1.4561,-7.25 0.6576,-5.5414 -0.9188,-6.4433 -2.6219,-1.5 -1.6099,4.6729 -8.5278,17.6286 -11.3215,21.2029 -4.7993,6.1402 -5.3833,6.5471 -9.398,6.5471 -7.1146,0 -8.6606,-5.1973 -5.0567,-17 2.3185,-7.5932 2.2204,-7 1.1583,-7 -0.463,0 -1.4083,1.9125 -2.1008,4.25 -2.5814,8.713 -12.5037,28.9457 -16.065,32.758 -3.8085,4.077 -7.9275,4.0464 -11.4036,-0.085 -1.4239,-1.6922 -2.5889,-3.4115 -2.5889,-3.8206 0,-0.4091 0.948,-4.987 2.1068,-10.1732 1.1587,-5.1862 2.4606,-11.2295 2.8932,-13.4295 0.4326,-2.2 1.7596,-8.275 2.9491,-13.5 1.1894,-5.225 2.6101,-12.1671 3.1571,-15.4269 0.5469,-3.2598 1.1913,-6.2454 1.4319,-6.6347 0.9482,-1.5343 5.5848,-35.1489 4.9374,-35.7962 -0.2615,-0.2615 -0.621,-0.288 -0.7989,-0.059 -19.138,24.6562 -33.5429,49.771 -70.2132,122.4167 -23.6491,46.8498 -22.8098,45.5 -28.2896,45.5 -5.4096,0 -7.1738,-2.2548 -7.1738,-9.1686 0,-3.2222 0.4082,-6.6399 0.9072,-7.595 0.4989,-0.955 2.5895,-7.1364 4.6457,-13.7364 2.0562,-6.6 4.2882,-13.35 4.96,-15 0.6718,-1.65 2.4473,-6.15 3.9456,-10 6.3199,-16.2396 21.834,-48.618 30.7254,-64.1248 7.4069,-12.9177 7.3447,-12.5876 3.7179,-19.7247 -6.9351,-13.6473 -20.3349,-34.3427 -30.7422,-47.4797 -26.1805,-33.0473 -49.179,-49.4678 -77.3167,-55.2026 -15.5426,-3.1677 -27.0485,-2.3613 -47.8429,3.3532 -22.0445,6.0581 -44.6341,16.3953 -70.3984,32.2149 -6.3524,3.9005 -9.9063,5.4637 -12.4213,5.4637 -7.1918,0 -9.3565,-6.2524 -4.5607,-13.1727 3.4429,-4.9681 17.718,-17.064 28.3804,-24.0478 6.8133,-4.4627 20.6484,-11.8891 35.1058,-18.8439 3.5307,-1.6985 22.7295,-7.7484 27.8942,-8.79 23.6836,-4.7766 46.2004,-3.6522 64.8757,3.2396 8.8518,3.2666 8.3906,4.4233 7.6245,-19.1219 -0.3712,-11.4052 -0.9279,-21.1463 -1.2372,-21.6468 -0.3225,-0.5218 -5.7758,-0.6457 -12.7831,-0.2906 -13.6879,0.6937 -29.9527,-0.4739 -38.9799,-2.7983 -16.2846,-4.193 -27.7784,-13.3313 -30.94,-24.599 -4.2075,-14.9955 3.3079,-27.1551 30.94,-50.0594 22.9397,-19.0148 27.1072,-22.7093 34.0657,-30.1994 8.5621,-9.2163 8.376,-8.3404 5.4533,-25.6698 -4.0512,-24.0204 -4.8178,-27.9198 -11.4019,-58 l -1.2039,-5.5 -16.3491,-0.7464 c -31.3396,-1.4307 -47.9252,-8.2204 -54.7182,-22.4003 -2.687,-5.609 -2.4698,-15.5216 0.4705,-21.4742 2.5977,-5.259 20.1913,-23.17 30.1836,-30.7282 3.575,-2.7042 10.7262,-9.2486 15.8915,-14.5433 l 9.3914,-9.6267 -0.7216,-6.2404 c -0.3969,-3.4323 -1.1123,-10.9655 -1.5898,-16.7405 -0.4776,-5.775 -1.1037,-12.975 -1.3915,-16 -0.2878,-3.025 -1.281,-14.5 -2.2071,-25.5 -0.9261,-11 -2.0221,-20.3857 -2.4356,-20.8572 -0.4134,-0.4714 -4.9559,2.8632 -10.0945,7.4102 -15.9346,14.1005 -33.4701,27.4318 -47.9409,36.447 -1.7931,1.1171 -11.3132,6.9325 -14.3976,8.795 -1.0976,0.6627 -3.1268,1.946 -4.5091,2.8516 -8.4757,5.5525 -38.198,19.4152 -52.4953,24.4841 -15.589,5.5269 -38.9123,11.3693 -45.3871,11.3693 -2.8023,0 -8.1129,-5.1362 -8.1129,-7.8464 0,-3.1924 4.52,-7.6932 9.1058,-9.0672 15.4691,-4.6346 56.4798,-24.7467 87.3943,-42.859 11.1638,-6.5407 16.0873,-9.7054 29.8662,-19.1973 21.5869,-14.8707 47.4117,-38.5273 62.2571,-57.0301 6.3867,-7.9601 14.2155,-18.3976 15.8767,-21.1672 0.55,-0.9169 3.0257,-4.7419 5.5016,-8.5 5.113,-7.7609 5.2877,-8.0463 11.3475,-18.5365 4.2458,-7.3499 15.6509,-30.1429 15.6509,-31.2781 0,-0.297 0.8903,-2.4476 1.9784,-4.7791 3.4881,-7.4738 13.592,-36.0884 18.4457,-52.2391 1.4876,-4.95 4.0258,-13.2879 5.6403,-18.5286 1.6146,-5.2408 2.9356,-10.3329 2.9356,-11.3158 0,-0.9829 0.5288,-2.77 1.1751,-3.9713 0.6463,-1.2014 1.4877,-3.7593 1.8697,-5.6843 0.3821,-1.925 2.1291,-8.9 3.8822,-15.5 1.7531,-6.6 3.5957,-13.8 4.0948,-16 0.4991,-2.2 1.844,-7.825 2.9886,-12.5 3.8495,-15.7214 5.1844,-21.4792 5.912,-25.5 0.3982,-2.2 1.229,-5.575 1.8464,-7.5 0.6174,-1.925 1.8306,-7.1 2.6962,-11.5 0.8655,-4.4 2.2637,-11.375 3.107,-15.5 2.3419,-11.4554 3.1406,-15.6822 4.9128,-26 0.8975,-5.225 2.2484,-12.65 3.002,-16.5 1.7114,-8.7435 5.6778,-33.1879 8.9243,-55 1.6673,-11.2016 2.8015,-19.9763 5.0413,-39 3.1414,-26.6819 3.7062,-32.3223 4.5565,-45.5 0.4791,-7.425 1.3479,-18.225 1.9306,-24 3.7355,-37.0203 3.1994,-153.2611 -0.7249,-157.1854 -0.7972,-0.7972 -2.004,-0.6763 -4.4062,0.4412 -10.4729,4.872 -25.1802,9.7442 -29.414,9.7442 -3.7262,0 -7.3944,-3.7636 -7.3944,-7.5867 0,-2.1119 6.2253,-9.4133 8.0259,-9.4133 0.3956,0 3.459,-2.1375 6.8077,-4.75 3.3488,-2.6125 8.8081,-6.775 12.1319,-9.25 7.8169,-5.8207 16.3326,-12.7712 26.3417,-21.5 4.4148,-3.85 10.9892,-9.4344 14.6098,-12.4098 3.6207,-2.9754 9.2946,-7.9254 12.6089,-11 3.3142,-3.0746 13.8639,-12.5652 23.4436,-21.0902 46.032,-40.9637 126.7576,-119.67349 163.5459,-159.46201 6.5915,-7.1291 15.4234,-16.5791 19.6263,-21 4.2029,-4.4209 9.8279,-10.5864 12.5,-13.7011 2.6721,-3.1147 14.1857,-16.1648 25.5858,-29.0001 22.1613,-24.9511 29.0587,-32.907 38.9886,-44.972 3.4561,-4.1993 9.2089,-11.1554 12.7839,-15.4579 7.4908,-9.0152 14.6608,-18.3402 17.3996,-22.6293 2.208,-3.4578 5.2994,-17.3801 6.723,-30.27765 0.5464,-4.95 1.389,-12.6 1.8725,-17 3.0374,-27.64147 -1.2137,-71.49608 -9.5481,-98.5 -8.473,-27.45274 -13.0197,-38.54588 -24.3871,-59.5 -5.0329,-9.27734 -5.9006,-10.50242 -7.4323,-10.49326 -1.0444,0.006 -11.1402,6.11374 -18.1276,10.96639 -1.65,1.14589 -9.975,6.70351 -18.5,12.35025 -15.2197,10.08115 -26.5932,17.8785 -38.5,26.39445 -3.3,2.36023 -9.6,6.83884 -14,9.95247 -13.7429,9.72507 -66.0702,49.21386 -78.5,59.23998 -4.125,3.32731 -10.875,8.75753 -15,12.06715 -4.125,3.30962 -10.2875,8.38114 -13.6943,11.27003 -3.4069,2.8889 -9.7069,8.17203 -14,11.7403 -13.3663,11.10954 -35.8722,30.97125 -57.7474,50.96269 -27.5529,25.1803 -72.0818,69.9109 -95.0583,95.489 -19.1616,21.3313 -18.2338,20.2581 -39.2443,45.3939 -10.8869,13.0245 -24.7308,31.03472 -36.2557,47.16672 -2.1611,3.025 -5.7062,7.975 -7.8781,11 -2.1719,3.025 -7.4753,11.0862 -11.7854,17.9138 -9.5173,15.07629 -12.1941,18.08619 -16.0853,18.08619 -2.9013,0 -6.3668,-2.8299 -7.533,-6.15149 -0.6483,-1.8466 1.9323,-12.8216 3.3621,-14.2985 0.5058,-0.5225 0.9197,-1.6824 0.9197,-2.5776 0,-1.9272 7.426,-19.3148 9.5352,-22.3262 2.7721,-3.9576 1.82,-6.1914 -4.927,-11.5601 -3.5155,-2.7974 -6.637,-5.0861 -6.9368,-5.0861 -0.2997,0 -3.3859,-1.929 -6.8582,-4.2867 -8.9101,-6.05 -22.6208,-14.54732 -34.3127,-21.26552 -9.3362,-5.3648 -46.8344,-24.4478 -48.0398,-24.4478 -0.2993,0 -3.3379,-1.3049 -6.7525,-2.8998 -8.3568,-3.9032 -30.457,-13.1163 -39.7083,-16.5533 -4.125,-1.5325 -8.4,-3.1604 -9.5,-3.6175 -6.0926,-2.5318 -33.3998,-11.6429 -43,-14.347 -3.3,-0.9296 -6.9,-2.056 -8,-2.5031 -1.1,-0.4472 -4.025,-1.3338 -6.5,-1.9702 -2.475,-0.6364 -6.975,-1.854 -10,-2.7059 -8.3855,-2.3613 -30.7594,-7.9521 -37.5,-9.3704 -3.3,-0.6944 -7.35,-1.645 -9,-2.1125 -4.8894,-1.3851 -34.3351,-7.047 -46.5,-8.9411 -3.575,-0.5567 -10.1,-1.4291 -14.5,-1.9388 -4.4,-0.5097 -9.572,-1.4023 -11.4934,-1.9835 -1.9214,-0.5813 -5.498,-1.0569 -7.9481,-1.0569 -2.4501,0 -8.0781,-0.4503 -12.5066,-1.0007 -24.8566,-3.089 -42.7538,-4.0054 -78.05188,-3.9967 -44.6165,0.011 -71.1904,2.0587 -104.5,8.0526 -6.325,1.1381 -13.525,2.4287 -16,2.8679 -4.3471,0.7714 -8.9559,1.8736 -19.5,4.6631 -6.2077,1.6424 -22.1375,5.4181 -25.5,6.0441 -1.375,0.256 -4.8209,1.1979 -7.6575,2.0932 -4.8212,1.5216 -5.3295,1.515 -7.7955,-0.1008 -7.2727,-4.7652 -5.327,-11.5185 4.953,-17.1919 1.1,-0.6071 5.6,-3.0388 10,-5.4039 4.4,-2.365 8.6103,-4.865 9.3563,-5.5555 1.4134,-1.3083 1.3677,-1.9405 -3.3625,-46.4714 -0.7887,-7.425 -1.9103,-18.00005 -2.4924,-23.50005 -0.5822,-5.5 -1.6858,-14.275 -2.4525,-19.5 -0.7667,-5.225 -2.1322,-15.35 -3.0345,-22.5 -0.9022,-7.15 -2.2592,-16.6 -3.0155,-21 -0.7564,-4.4 -2.0845,-12.725 -2.9515,-18.5 -0.867,-5.775 -2.2343,-14.325 -3.0385,-19 -0.8043,-4.675 -2.6228,-15.7 -4.0412,-24.5 -3.1062,-19.27133 -5.064,-29.92925 -7.0106,-38.16413 -0.8014,-3.39028 -1.4571,-7.3478 -1.4571,-8.79449 0,-1.44669 -0.6501,-5.42283 -1.4447,-8.83586 -1.8125,-7.78516 -4.0477,-18.40901 -5.5135,-26.20552 -0.6204,-3.3 -1.7495,-8.7 -2.5091,-12 -0.7596,-3.3 -1.9058,-8.475 -2.5472,-11.5 -0.6414,-3.025 -1.8487,-8.425 -2.6829,-12 -0.8343,-3.575 -1.8581,-8.525 -2.2751,-11 -0.4171,-2.475 -1.8984,-9 -3.2919,-14.5 -1.3935,-5.5 -3.7553,-15.4 -5.2486,-22 -2.4825,-10.97272 -6.5816,-27.34457 -10.0148,-40 -0.746,-2.75 -2.0622,-7.7 -2.9248,-11 -8.6159,-32.96169 -17.1747,-62.1516 -18.4555,-62.94318 -0.9424,-0.58247 -24.5626,7.10852 -31.3335,10.20255 -2.3421,1.07024 -8.5334,3.86268 -13.7584,6.20543 -41.8262,18.7537 -84.8968,53.69646 -111,90.05318 l -2.5,3.48202 -0.32,38 c -0.4268,50.66996 1.3506,101.81343 4.9349,142 0.5887,6.6 1.445,17.4 1.903,24 0.458,6.6 1.2773,15.375 1.8208,19.5 0.5434,4.125 1.5261,12.9 2.1837,19.5 0.6576,6.6 2.311,19.875 3.6741,29.5 1.3631,9.625 2.8579,20.425 3.3216,24 0.4638,3.575 1.3312,9.42505 1.9276,13.00005 0.5964,3.575 1.7779,10.775 2.6255,16 0.8477,5.225 2.2031,12.65 3.012,16.5 0.809,3.85 2.1187,10.825 2.9106,15.5 2.0296,11.9828 3.4755,19.5622 5.0553,26.5 0.7514,3.3 2.095,9.375 2.9857,13.5 2.1995,10.1866 4.3239,19.4039 5.9925,26 8.3572,33.0363 11.8249,46.8627 12.2268,48.75 0.2635,1.2375 0.9576,2.25 1.5425,2.25 0.585,0 7.395,-6.2201 15.1335,-13.8225 16.8066,-16.5111 27.257,-24.9125 42.5993,-34.2471 11.9531,-7.2724 17.2663,-8.2018 20.4994,-3.5859 3.125,4.4616 1.9662,7.3462 -5.7788,14.3858 -12.5959,11.4486 -36.6481,36.283 -48.202,49.76972 -17.2016,20.0792 -22.9301,27.935 -43.7526,60 -7.5977,11.69979 -24.8953,45.13009 -31.8216,61.49999 -1.7453,4.125 -3.8457,8.85 -4.6675,10.5 -1.7086,3.4306 -8.5595,22.0792 -11.3883,31 -1.0465,3.3 -2.386,7.35 -2.9767,9 -2.6463,7.3917 -7.0068,23.9945 -11.4245,43.5 -2.3923,10.5625 -13.2337,47.1458 -15.5583,52.5 -0.4776,1.1 -1.5107,4.266 -2.2958,7.0355 -0.7851,2.7695 -2.5273,7.9445 -3.8715,11.5 -1.3442,3.5555 -2.9195,7.8145 -3.5006,9.4645 -2.3223,6.5936 -10.5614,28.1922 -11.8831,31.1511 -0.7741,1.7332 -1.4075,3.4453 -1.4075,3.8049 0,0.3595 -0.8472,2.5415 -1.8828,4.8489 -1.0355,2.3073 -4.9061,11.8451 -8.6014,21.1951 -3.6953,9.35 -7.2869,18.35 -7.9814,20 -0.6945,1.65 -1.9626,4.8 -2.818,7 -4.1082,10.5665 -7.9043,20.1929 -8.6754,22 -0.4695,1.1 -2.9556,7.4 -5.5247,14 -2.5691,6.6 -5.2508,13.35 -5.9592,15 -0.7084,1.65 -2.52,6.6 -4.0258,11 -1.5058,4.4 -3.2011,8.9821 -3.7674,10.1825 -1.8607,3.9441 -0.4386,5.0513 7.4129,5.7717 12.7316,1.1682 24.4794,5.4199 35.8232,12.9652 5.0612,3.3665 23,20.5225 23,21.9964 0,0.5254 0.8391,1.8843 1.8647,3.0197 1.0256,1.1355 3.5448,5.4395 5.5982,9.5645 2.0533,4.125 4.3048,8.625 5.0032,10 2.0475,4.0313 7.3356,20.9898 8.5751,27.5 3.0591,16.0674 2.8692,49.5911 -0.3655,64.5 -3.0476,14.0469 -9.2871,30.1838 -16.4339,42.5023 -3.1044,5.3509 -12.9791,17.8901 -17.417,22.1166 -5.6163,5.3489 -16.4269,12.6118 -24.5247,16.4765 -3.5337,1.6865 -6.6539,3.6631 -6.9338,4.3924 -0.2799,0.7294 0.6482,3.159 2.0624,5.3993 1.4142,2.2402 2.5713,4.3771 2.5713,4.7486 0,0.3716 1.125,2.1505 2.5,3.9532 1.375,1.8027 2.5,3.5163 2.5,3.8081 0,0.4863 10.6006,16.3222 17.5798,26.2618 37.9074,53.9869 107.2826,123.646 179.0982,179.8314 2.1021,1.6446 7.2452,5.6946 11.4292,9 4.1839,3.3054 9.724,7.5848 12.3113,9.5098 2.5872,1.925 7.264,5.5285 10.3928,8.0077 3.1288,2.4792 7.8639,6.0792 10.5225,8 2.6586,1.9208 7.2065,5.3574 10.1065,7.6369 2.9,2.2795 6.8589,5.2045 8.7977,6.5 15.7393,10.5169 18.762,13.2925 18.762,17.228 0,3.8984 -3.5069,7.6274 -7.173,7.6274 -3.6444,0 -18.5469,-6.6849 -31.5243,-14.1411 -5.6085,-3.2224 -10.4643,-5.8589 -10.7905,-5.8589 -0.3263,0 -1.8125,-0.8264 -3.3027,-1.8365 -1.4902,-1.0101 -6.7595,-4.4786 -11.7095,-7.7079 -12.6037,-8.2224 -26.3208,-18.2865 -41.1661,-30.2032 -41.696,-33.4706 -72.5814,-61.8144 -115.8605,-106.3263 -24.9589,-25.6698 -52.2709,-59.725 -74.125,-92.4261 -14.4507,-21.6231 -31.0299,-52.6461 -39.2798,-73.5 -1.1967,-3.025 -2.5908,-6.4 -3.0982,-7.5 -1.8917,-4.1017 -7.9649,-23.3843 -10.866,-34.5 -5.4545,-20.8988 -7.0727,-32.6352 -8.5487,-62 -1.0217,-20.3267 2.9072,-44.6955 12.8175,-79.5 1.9618,-6.8898 12.0991,-36.3932 13.6364,-39.6871 1.8738,-4.0149 -1.0295,-8.3421 -21.4492,-31.9692 -11.4092,-13.2012 -48.1219,-50.425 -56.3337,-57.1178 -6.1671,-5.0263 -9.2267,-9.2811 -9.2267,-12.8307 0,-0.9887 0.675,-4.3891 1.5,-7.5565 0.825,-3.1674 1.5,-6.3394 1.5,-7.0488 0,-5.3809 -14.8381,7.4916 -29.1459,25.2847 -5.6352,7.0079 -10.1623,11.7156 -11.6174,12.0808 -3.0979,0.7776 -6.7027,-0.9107 -8.8093,-4.1258 -1.4581,-2.2254 -1.5164,-3.1829 -0.4443,-7.2956 0.6787,-2.6037 1.8642,-6.1606 2.6345,-7.9042 3.434,-7.7733 3.2902,-8.1826 -6.0124,-17.1135 -4.7071,-4.519 -9.1928,-8.2163 -9.9682,-8.2163 -0.7755,0 -1.6552,1.2375 -1.9548,2.75 -5.3473,26.9895 -6.6119,30.0503 -13.0943,31.6925 -3.8258,0.9693 -8.2592,0.2851 -19.5879,-3.0228 -7.7826,-2.2725 -16.8551,-4.2313 -17.3422,-3.7442 -0.4053,0.4054 0.3774,3.5758 4.4662,18.0897 2.5388,9.0121 1.9372,13.8439 -2.2195,17.8263 -2.4884,2.3841 -3.7951,2.8338 -8.1829,2.8168 -4.8896,-0.019 -12.2004,-1.7655 -20.9918,-5.0148 -3.8188,-1.4114 -8.9425,-1.8475 -9.9436,-0.8464 -0.3009,0.301 0.2991,3.2661 1.3333,6.5891 3.0822,9.9031 2.2453,16.2682 -2.5523,19.4117 -2.4017,1.5737 -4.5124,2.2502 -14.3852,4.6107 -2.375,0.5678 -4.5545,1.6484 -4.8434,2.4014 -0.6193,1.6139 2.2709,5.9692 8.6796,13.0795 l 4.6324,5.1394 1.7437,12.3606 c 3.3149,23.499 7.384,47.1291 12.1158,70.3605 0.7842,3.85 2.1071,10.6 2.9397,15 0.8327,4.4 2.6241,12.95 3.9809,19 1.3569,6.05 3.2086,14.6 4.115,19 0.9065,4.4 2.2795,10.1096 3.0512,12.6879 0.7717,2.5783 1.4031,5.4638 1.4031,6.4121 0,0.9483 0.6418,4.0138 1.4262,6.8121 0.7844,2.7983 2.6303,10.4879 4.1019,17.0879 1.4717,6.6 3.1187,13.575 3.66,15.5 0.5413,1.925 1.3426,5.075 1.7805,7 0.438,1.925 2.3997,9.575 4.3592,17 1.9596,7.425 4.509,17.1 5.6654,21.5 2.0083,7.6417 5.2835,19.2299 8.4789,30 0.8159,2.75 2.8685,9.725 4.5614,15.5 1.6929,5.775 3.7419,12.525 4.5532,15 10.1464,30.9518 16.0376,48.4358 17.3529,51.5 0.4722,1.1 1.3239,3.35 1.8927,5 2.6127,7.579 8.4828,22.0943 9.2813,22.95 0.4875,0.5225 0.8864,1.5447 0.8864,2.2716 0,0.727 1.8,5.1816 4,9.8993 2.2,4.7177 4,9.118 4,9.7784 0,0.6604 0.4083,1.6282 0.9072,2.1507 0.499,0.5225 2.1208,3.875 3.604,7.45 1.4831,3.575 5.5245,12.35 8.9807,19.5 3.4562,7.15 9.1412,19.075 12.6334,26.5 3.4922,7.425 25.3056,51.525 48.4743,98 49.307,98.9071 81.7233,164.3484 93.8303,189.4225 7.3976,15.3209 8.8534,17.7159 10.0293,16.5 0.7566,-0.7824 3.7023,-7.2725 6.5462,-14.4225 2.8438,-7.15 5.7645,-14.35 6.4905,-16 1.8065,-4.1063 3.9236,-9.5432 7.3984,-19 1.6167,-4.4 3.9105,-10.475 5.0975,-13.5 1.1869,-3.025 2.5406,-6.625 3.0082,-8 0.4676,-1.375 1.8033,-4.975 2.9682,-8 4.2323,-10.99 16.2008,-44.5942 20.6573,-58 1.3713,-4.125 2.8943,-8.4 3.3846,-9.5 1.3859,-3.1098 9.9899,-29.6786 9.9899,-30.8484 0,-0.5732 1.2092,-2.3043 2.6871,-3.8469 3.1783,-3.3174 7.0587,-3.6452 10.4521,-0.883 2.2485,1.8302 2.3493,2.4368 2.1201,12.75 -0.2627,11.817 -1.7474,21.175 -6.3982,40.3283 -3.0672,12.6312 -4.5026,17.8531 -5.9101,21.5 -0.4246,1.1 -1.5319,4.475 -2.4607,7.5 -0.9288,3.025 -3.2191,9.3734 -5.0895,14.1076 -1.8705,4.7342 -3.4008,8.9412 -3.4008,9.3489 0,0.4077 -0.6337,2.1592 -1.4083,3.8924 -0.7745,1.7331 -3.2908,8.3261 -5.5917,14.6511 -2.3009,6.325 -4.8172,12.918 -5.5917,14.6511 -0.7746,1.7332 -1.4083,3.4651 -1.4083,3.8489 0,0.3838 -0.6184,2.1157 -1.3742,3.8489 -0.7558,1.7331 -3.2913,8.1011 -5.6344,14.1511 -2.3432,6.05 -4.8526,12.35 -5.5766,14 -0.7239,1.65 -2.1815,5.25 -3.2391,8 -3.0749,7.9959 -10.7296,26.5983 -12.962,31.5 -5.887,12.9266 -8.2137,18.1785 -8.2137,18.5401 0,1.0207 -10.7459,23.9493 -17.7906,37.9599 -1.9358,3.85 -4.3498,8.6658 -5.3645,10.7017 -1.0147,2.0359 -1.8449,4.3118 -1.8449,5.0575 0,1.4938 4.1081,3.4059 14.0117,6.5218 31.3065,9.8498 67.0715,33.9209 87.7018,59.0265 11.2635,13.7068 12.546,15.5723 17.4169,25.3336 5.8419,11.7073 4.4678,16.8589 -4.4968,16.8589 -3.1724,0 -4.2083,-0.8373 -11.1341,-9.0006 -10.7882,-12.7157 -27.8098,-27.7651 -48.9035,-43.2374 -5.2423,-3.8453 -9.4286,-6.4133 -17.5436,-10.762 -2.5659,-1.375 -5.8746,-3.2961 -7.3527,-4.269 -3.9635,-2.609 -19.444,-9.1503 -25.1997,-10.6482 -2.75,-0.7157 -6.8,-1.887 -9,-2.603 -12.963,-4.2187 -19.6219,-4.979 -42.7181,-4.8775 -13.7584,0.061 -23.2237,0.5016 -24,1.1184 -0.7051,0.5602 -3.0819,1.3296 -5.2819,1.7098 -16.3241,2.8213 -45.7869,14.6167 -61.5922,24.6583 -22.645,14.387 -36.2984,25.271 -54.4361,43.3941 -22.3745,22.3569 -47.4717,52.8517 -47.4717,57.6817 0,1.0177 1.1068,3.9847 2.4596,6.5931 1.3529,2.6085 3.88,7.8927 5.6159,11.7427 1.736,3.85 4.6172,10.15 6.4029,14 1.7856,3.85 3.5844,8.0777 3.9974,9.3948 0.413,1.3171 2.2337,5.2397 4.0461,8.7168 1.8125,3.4771 4.0422,8.5708 4.9551,11.3193 0.9129,2.7484 2.979,7.7205 4.5914,11.0491 1.6124,3.3285 2.9316,6.3264 2.9316,6.6619 0,0.7002 6.9029,18.0972 8.0778,20.3581 1.1365,2.1869 7.5445,19.8252 8.9009,24.5 0.6384,2.2 1.5163,4.9 1.9509,6 4.7037,11.9043 11.0988,45.2716 11.077,57.7955 -0.01,4.868 -3.5608,8.7045 -8.0599,8.7045 -3.4696,0 -8.9467,-4.8532 -8.9467,-7.9276 0,-1.6142 -2.1913,-9.1362 -3.9538,-13.5724 -0.4371,-1.1 -1.8193,-5.375 -3.0716,-9.5 -1.2522,-4.125 -2.5991,-7.95 -2.993,-8.5 -0.3939,-0.55 -1.7048,-3.925 -2.9131,-7.5 -2.5269,-7.4764 -8.453,-23.0893 -10.438,-27.5 -2.5063,-5.5691 -3.4752,-7.9737 -6.6487,-16.5 -2.9771,-7.9991 -4.3196,-11.2938 -7.538,-18.5 -4.3441,-9.727 -6.8666,-15.6801 -8.8981,-21 -1.2602,-3.3 -4.3735,-10.4146 -6.9185,-15.8101 -2.545,-5.3956 -4.6272,-10.087 -4.6272,-10.4254 0,-0.6013 -6.1456,-13.8418 -8.2236,-17.7178 -0.9715,-1.8121 -4.6138,-9.115 -11.2449,-22.5467 -9.2995,-18.8369 -19.0796,-35 -21.1781,-35 -1.1217,0 -1.3647,0.7103 -0.9407,2.75 0.3144,1.5125 1.0323,6.575 1.5954,11.25 0.5631,4.675 1.7079,11.875 2.544,16 0.8361,4.125 2.1447,10.875 2.908,15 0.7633,4.125 2.1401,11.1 3.0596,15.5 0.9194,4.4 2.096,10.4336 2.6146,13.408 0.5187,2.9745 1.1882,5.8049 1.488,6.2899 1.0232,1.6555 4.4544,17.2431 5.05,22.9411 0.542,5.1859 0.3669,5.9127 -1.9936,8.2732 -3.5586,3.5586 -7.1628,3.3516 -10.8774,-0.6249 -5.8596,-6.2727 -15.7519,-29.1993 -21.2665,-49.2873 -0.9059,-3.3 -2.2991,-8.025 -3.0959,-10.5 -0.7968,-2.475 -1.4466,-5.7671 -1.4439,-7.3157 0,-1.5487 -0.4293,-3.6272 -0.9601,-4.619 -1.4896,-2.7834 -4.9338,-26.8746 -5.6278,-39.365 -0.589,-10.6019 -0.8081,-11.4869 -4.1006,-16.5644 -2.0803,-3.208 -3.8428,-4.9996 -4.3851,-4.4573 -0.8173,0.8173 0.3149,9.8085 4.0697,32.3214 0.5963,3.575 1.497,8.975 2.0016,12 3.7731,22.6209 5.4364,31.5671 8.5871,46.186 3.022,14.0221 3.0116,15.5872 -0.1246,18.8607 -3.1779,3.3171 -5.2371,3.6346 -9.4487,1.4567 -3.1682,-1.6384 -3.8299,-2.663 -10.4716,-16.2154 -4.5296,-9.2425 -12.0599,-32.0863 -13.1983,-40.038 -0.3347,-2.3375 -0.9973,-4.25 -1.4725,-4.25 -1.3122,0 -1.0363,4.9188 0.6359,11.3387 0.825,3.1674 1.5,6.914 1.5,8.3259 0,1.4118 0.6502,4.6524 1.4449,7.2012 0.7947,2.5488 2.617,9.8092 4.0496,16.1342 1.4326,6.325 3.0454,12.918 3.5841,14.6511 0.5386,1.7331 1.6465,5.7831 2.462,9 2.8671,11.3095 12.5251,42.6286 16.4515,53.3489 1.5108,4.125 3.6695,10.425 4.7971,14 1.1276,3.575 2.7585,7.85 3.6243,9.5 0.8658,1.65 1.5769,3.4844 1.5803,4.0764 0.01,1.0283 9.9782,26.7536 11.9874,30.9236 0.53,1.1 1.8885,4.475 3.0188,7.5 1.1303,3.025 2.4469,6.4 2.9256,7.5 0.4788,1.1 1.5914,3.643 2.4724,5.6511 0.8811,2.0082 1.602,3.9485 1.602,4.312 0,0.5998 1.7144,4.4818 7.1117,16.1026 1.0386,2.2362 1.8883,4.3614 1.8883,4.7227 0,0.7482 3.5825,8.8472 8.588,19.4151 1.8766,3.9619 3.412,7.5186 3.412,7.9038 0,1.3567 18.2452,38.3159 27.345,55.3927 2.7843,5.225 6.1486,11.7114 7.4761,14.4142 1.3276,2.7027 3.9359,7.2936 5.7963,10.2019 1.8604,2.9083 3.3826,5.549 3.3826,5.8681 0,0.3192 2.0985,3.8283 4.6634,7.7981 2.5648,3.9697 5.9335,9.2427 7.4859,11.7177 3.8374,6.1178 9.8136,14.6593 12.8795,18.408 1.3908,1.7006 3.737,4.892 5.2138,7.092 7.0873,10.5578 25.0992,24.5 31.6517,24.5 3.0763,0 8.8846,-5.9472 13.5044,-13.8272 2.5307,-4.3167 4.6013,-8.2295 4.6013,-8.695 0,-0.4655 0.8391,-2.6759 1.8647,-4.9121 1.0256,-2.2361 2.6356,-6.3157 3.5777,-9.0657 0.9421,-2.75 2.0824,-5.9 2.534,-7 1.5888,-3.87 4.8441,-15.0433 5.4985,-18.8731 0.3641,-2.1302 1.0483,-4.6052 1.5205,-5.5 0.4722,-0.8948 1.1049,-2.4212 1.406,-3.3919 1.2157,-3.9201 9.6935,-4.5303 12.8974,-0.9283 2.1672,2.4365 3.066,18.4262 1.7792,31.6492 -0.5865,6.0257 -0.7016,11.3205 -0.2558,11.7663 1.049,1.049 22.311,4.2956 37.6778,5.7532 6.6,0.6261 15.375,1.5639 19.5,2.0842 4.125,0.5203 14.7,1.3836 23.5,1.9186 8.8,0.5349 23.2,1.5041 32,2.1538 23.4892,1.734 177.9016,1.5853 213.5,-0.2056 35.5733,-1.7896 131.6399,-1.885 157.5,-0.1563 53.4455,3.5726 94.9559,5.6318 147.5,7.3168 17.875,0.5732 36.99998,1.2133 42.49998,1.4224 5.5,0.2091 43.3,0.8 84,1.3132 119.8699,1.5114 203.7915,0.2356 254.5001,-3.8689 6.875,-0.5565 18.2453,-1.439 25.2673,-1.9611 7.0221,-0.5221 15.5721,-1.3891 19,-1.9267 3.428,-0.5376 11.4077,-1.7216 17.7327,-2.6312 6.325,-0.9096 12.0625,-2.1096 12.75,-2.6667 0.8067,-0.6536 1.25,-3.7806 1.25,-8.8178 0,-7.2407 0.1905,-7.9548 2.6349,-9.8775 2.7117,-2.133 4.9685,-2.5458 7.8578,-1.437 1.7294,0.6636 9.2069,11.5779 13.5073,19.7155 5.1209,9.6901 15.2669,21.8656 21.9547,26.3463 5.5006,3.6852 7.1629,4.3026 11.5848,4.3026 3.6127,0 6.6334,-0.7733 10.0616,-2.5758 z m -480.307,-173.0717 c -4.7578,-1.6852 -13.2191,-10.2046 -18.8003,-18.9295 -1.90798,-2.9827 -3.98538,-5.423 -4.61648,-5.423 -0.6311,0 -5.0266,2.8883 -9.7678,6.4184 -9.6805,7.2078 -17.7425,11.5924 -21.2548,11.5596 -7.2114,-0.067 -14.2982,-6.5192 -22.8548,-20.8074 -2.475,-4.1329 -5.2063,-7.946 -6.0696,-8.4735 -1.1926,-0.7289 -3.9125,0.6293 -11.3255,5.6555 -10.1778,6.9008 -18.0392,10.0486 -22.488,9.0046 -8.6538,-2.0308 -12.6636,-8.735 -14.0207,-23.4415 -0.4595,-4.9803 -1.2994,-9.5189 -1.8664,-10.0859 -0.7079,-0.7079 -3.393,0.075 -8.5693,2.4993 -4.146,1.9416 -10.0106,4.3095 -13.0323,5.262 -5.1696,1.6296 -5.7548,1.6323 -9.9105,0.045 -9.7191,-3.7118 -12.1039,-10.0837 -11.5899,-30.9668 0.3568,-14.4998 0.2897,-15.1363 -1.6278,-15.4316 -1.1,-0.1695 -6.4745,-1.2832 -11.9433,-2.475 -9.0283,-1.9675 -10.3503,-2.5569 -14.3662,-6.4049 l -4.423,-4.2379 0.3948,-6.8101 c 0.3478,-6.0009 0.8815,-7.5243 4.4918,-12.822 2.2535,-3.3066 9.2723,-11.4137 15.5974,-18.0157 11.0435,-11.527 11.5466,-12.2414 12.6693,-17.988 3.0453,-15.5879 6.9438,-33.2666 9.8096,-44.4843 1.3348,-5.225 3.9673,-15.575 5.8501,-23 1.8827,-7.425 3.8299,-14.625 4.3272,-16 0.4973,-1.375 2.3326,-7.225 4.0784,-13 2.8281,-9.3553 4.3352,-13.9996 7.9506,-24.5 0.5681,-1.65 2.239,-6.6 3.7132,-11 1.4741,-4.4 3.9544,-11.15 5.5117,-15 1.5573,-3.85 2.8331,-7.382 2.835,-7.8489 0,-0.4668 0.6173,-2.2668 1.3676,-4 0.7503,-1.7331 2.0508,-4.9511 2.89,-7.1511 4.235,-11.1021 8.4609,-21.5865 11.2458,-27.9011 0.825,-1.8707 1.5,-3.6393 1.5,-3.9303 0,-0.291 1.3046,-3.373 2.8991,-6.8488 1.5945,-3.4759 5.2437,-11.4948 8.1094,-17.8198 15.6127,-34.4593 35.7529,-74.3527 47.8568,-94.794 1.7241,-2.9117 3.1347,-5.454 3.1347,-5.6496 0,-0.1956 1.8027,-3.2133 4.006,-6.706 2.2034,-3.4927 4.301,-7.0254 4.6616,-7.8504 0.9371,-2.1445 13.3236,-22.3944 18.0446,-29.5 2.1925,-3.3 7.85298,-11.85 12.57868,-19 10.5067,-15.8964 12.6001,-18.8852 20.2118,-28.8564 18.6473,-24.4278 26.2509,-33.1249 45.6417,-52.2052 23.5643,-23.1869 29.6128,-26.7721 35.4011,-20.9839 4.5201,4.5202 3.496,7.5284 -5.8999,17.3302 -7.8796,8.2201 -19.5261,22.4286 -29.6456,36.1672 -2.475,3.3602 -5.7375,7.6175 -7.25,9.4608 -1.5125,1.8432 -2.75,3.6934 -2.75,4.1115 0,0.4181 -1.936,3.0587 -4.3022,5.868 -7.2947,8.6606 -43.3462,61.1336 -48.6859,70.8623 -0.8316,1.515 -5.3369,9.0502 -10.01188,16.7449 -4.675,7.6947 -9.175,15.197 -10,16.6718 -0.825,1.4747 -3.7016,6.5396 -6.3924,11.2551 -10.613,18.5988 -42.6076,83.4005 -42.6076,86.2973 0,0.6154 -0.5959,1.8294 -1.3243,2.6977 -0.7284,0.8683 -2.8015,5.1787 -4.6069,9.5787 -1.8054,4.4 -4.544,10.925 -6.0858,14.5 -1.5417,3.575 -4.658,11.225 -6.925,17 -2.267,5.775 -4.5412,11.4 -5.0539,12.5 -1.3237,2.8401 -15.3162,41.7124 -17.8181,49.5 -1.1486,3.575 -2.5502,7.85 -3.1149,9.5 -1.1472,3.3526 -5.3965,17.341 -7.5943,25 -0.7892,2.75 -2.0988,7.25 -2.9103,10 -3.5943,12.1801 -10.7912,42.6688 -14.045,59.5 -3.222,16.6664 -3.864,19.5253 -4.8279,21.5 -0.537,1.1 -5.7442,6.8577 -11.5715,12.7948 -11.3714,11.5856 -11.503,12.0097 -4.1221,13.2765 6.3362,1.0875 12.2626,3.8714 16.3033,7.6584 l 3.9795,3.7296 -0.7067,13.921 c -0.4867,9.5882 -0.3713,14.1283 0.3709,14.5869 0.5926,0.3663 3.8845,-0.6505 7.3152,-2.2596 3.4308,-1.6091 8.6265,-3.4902 11.5459,-4.1803 13.0376,-3.0817 20.9274,4.4657 23.147,22.1422 0.4885,3.8906 1.284,7.4696 1.7678,7.9534 0.5062,0.5062 2.5561,-0.3433 4.8284,-2.0007 5.4966,-4.0095 13.7518,-8.1756 18.1781,-9.1739 5.2423,-1.1824 10.7949,1.5115 16.0479,7.7858 2.3225,2.7739 4.2227,5.3499 4.2227,5.7245 0,0.3746 1.35,2.6432 3,5.0414 1.65,2.3982 3,4.7633 3,5.2559 0,0.4925 1.1083,1.9366 2.4628,3.2092 2.3773,2.2334 2.5537,2.2541 5.0824,0.5972 1.4408,-0.944 4.27,-3.165 6.2872,-4.9356 16.7212,-14.6768 23.54698,-17.4722 29.33268,-12.0128 2.6559,2.5062 7.0597,8.7325 13.1812,18.6361 0.9349,1.5125 2.2818,2.75 2.993,2.75 0.7113,0 2.8345,-3.0375 4.7182,-6.75 10.712,-21.1111 9.9031,-20.1912 78.0407,-88.75 34.9838,-35.2 68.2857,-68.9461 74.0043,-74.9913 5.7186,-6.0452 15.591,-16.3952 21.9385,-23 12.245,-12.7412 34.9458,-37.5712 43.7391,-47.8416 2.9041,-3.3919 8.4014,-9.7671 12.2163,-14.1671 12.1041,-13.9606 27.004,-31.9782 33.8173,-40.8934 20.6786,-27.0575 20.8168,-27.2458 31.9689,-43.5372 10.9667,-16.0206 28.2175,-42.0853 28.2175,-42.6347 0,-0.2836 0.8296,-1.735 1.8436,-3.2252 1.0139,-1.4902 3.0717,-4.581 4.5728,-6.8683 3.5785,-5.453 7.2948,-7.059 11.41,-4.931 1.6675,0.8623 3.3332,2.5172 3.7015,3.6776 0.7463,2.3515 -0.2812,10.8588 -1.4991,12.4122 -0.4312,0.55 -1.119,2.125 -1.5283,3.5 -1.2313,4.1354 -16.9227,35.1881 -22.0463,43.6287 -5.1676,8.5131 -13.1232,21.0571 -16.4081,25.8713 -3.8922,5.7044 -24.1912,32.8277 -27.862,37.229 -2.0263,2.4295 -6.3906,7.6469 -9.6984,11.5942 -3.3078,3.9472 -8.5992,10.3268 -11.7586,14.1768 -3.1595,3.85 -9.2281,10.9161 -13.4858,15.7024 -4.2578,4.7862 -11.7914,13.3067 -16.7414,18.9344 -4.95,5.6276 -13.529,14.9865 -19.0645,20.7976 -5.5355,5.8111 -16.5506,17.5406 -24.4781,26.0656 -7.9274,8.525 -43.2779,44.525 -78.5567,80 -35.2787,35.475 -65.4799,66.075 -67.1138,68 -3.4108,4.0186 -9.0895,13.6067 -16.0569,27.111 -8.5236,16.5204 -11.7985,20.6301 -18.1292,22.7505 -4.0058,1.3417 -3.4986,1.371 -8.8066,-0.509 z M 853.27562,1862.1797 c -17.9591,-2.2921 -42.134,-17.6941 -57.8012,-36.8257 -22.1543,-27.053 -35.4007,-54.4556 -53.247,-110.1511 -2.0669,-6.4505 -4.8252,-17.1409 -6.9273,-26.8489 -0.4764,-2.2 -1.3251,-5.8 -1.8861,-8 -1.8095,-7.0968 -4.8241,-22.4288 -8.553,-43.5 -4.6818,-26.456 -9.2455,-82.4373 -9.569,-117.3789 l -0.1377,-14.879 -8.1894,-8.121 c -11.4638,-11.3683 -19.7283,-26.0811 -21.1809,-37.7073 -0.5828,-4.6644 -0.3746,-5.8142 1.4793,-8.171 1.5582,-1.981 3.0564,-2.7428 5.3937,-2.7428 4.171,0 5.2778,0.9672 11.4427,10 9.7737,14.3204 22.2194,25.2332 32.9299,28.8741 7.5946,2.5816 24.1526,2.9211 34.246,0.7021 3.575,-0.7859 10.325,-2.1916 15,-3.1238 4.675,-0.9321 10.3,-2.2687 12.5,-2.9701 2.2,-0.7015 6.025,-1.8204 8.5,-2.4864 2.475,-0.6659 6.075,-1.7882 8,-2.4938 1.925,-0.7056 6.2,-2.0767 9.5,-3.0468 3.3,-0.9701 7.8,-2.3345 10,-3.0319 2.2,-0.6974 7.15,-1.9738 11,-2.8363 3.85,-0.8626 9.9537,-2.2475 13.5639,-3.0777 4.0178,-0.9239 11.5116,-1.5094 19.3195,-1.5094 11.9871,0 13.2028,0.1861 20.1773,3.0897 7.4498,3.1013 18.4969,9.1993 45.4393,25.0826 7.975,4.7015 21.7,12.7304 30.5,17.842 8.8,5.1117 17.35,10.119 19,11.1274 1.65,1.0084 3.9036,2.2365 5.0079,2.7291 1.1044,0.4926 4.47938,2.3625 7.49998,4.1554 7.88,4.6771 24.7109,12.9738 26.3189,12.9738 0.7513,0 2.8976,0.7875 4.7696,1.75 2.8239,1.4519 6.1288,1.75 19.4036,1.75 13.7638,0 17.188,-0.3307 24.5,-2.3662 9.0563,-2.521 20.7854,-7.3327 25.1544,-10.3193 5.6769,-3.8807 12.8749,-0.6525 12.8208,5.75 -0.067,7.9671 -17.5076,22.7703 -32.9752,27.9891 -6.8861,2.3234 -8.7247,3.8318 -9.5067,7.8001 -2.8154,14.2857 -19.9492,64.0258 -28.9855,84.1463 -5.2397,11.6667 -6.3058,14.0767 -9.5109,21.5 -1.7811,4.125 -3.5845,7.95 -4.0075,8.5 -0.4231,0.55 -3.0741,5.5 -5.8912,11 -2.8171,5.5 -6.1324,11.8 -7.3674,14 -1.235,2.2 -4.0088,7.15 -6.164,11 -5.4224,9.6864 -19.27598,31.7034 -24.86378,39.5151 -8.4398,11.7988 -9.6359,13.3877 -19.5615,25.9849 -12.5175,15.8867 -37.2034,40.7221 -49.6669,49.9676 -8.8571,6.5703 -27.8098,18.0324 -29.8168,18.0324 -0.4705,0 -2.2736,0.6257 -4.0067,1.3904 -8.2121,3.6236 -24.8314,6.061 -33.6511,4.9353 z m 16.8461,-25.8917 c 12.003,-3.3247 23.0726,-9.262 37.0458,-19.8699 17.0851,-12.9705 44.4156,-43.0578 58.9654,-64.9135 1.4535,-2.1833 3.3177,-4.9552 4.1427,-6.1598 15.1823,-22.1675 27.5042,-43.4473 39.94868,-68.9908 6.1629,-12.65 11.5982,-23.9 12.0784,-25 3.2062,-7.3449 9.2478,-22.463 12.1886,-30.5 4.8053,-13.1327 5.4758,-15.0634 9.3765,-27 1.8872,-5.775 4.136,-12.6092 4.9973,-15.1871 2.0986,-6.2807 1.6085,-9.2365 -1.5895,-9.5865 -4.0238,-0.4405 -17.1164,-3.3628 -22,-4.9105 -4.3039,-1.364 -27.11818,-12.3803 -29.40368,-14.1981 -0.603,-0.4796 -3.7963,-2.3007 -7.0963,-4.047 -3.3,-1.7462 -6.889,-3.714 -7.9756,-4.3729 -1.0866,-0.6588 -4.2366,-2.5769 -7,-4.2623 -2.7634,-1.6854 -9.5244,-5.6453 -15.0244,-8.7999 -9.6128,-5.5136 -11.3969,-6.5158 -15.25,-8.5675 -0.9625,-0.5125 -8.5,-4.9494 -16.75,-9.8598 -8.25,-4.9104 -15.675,-9.222 -16.5,-9.5813 -0.825,-0.3594 -3.75,-2.0016 -6.5,-3.6494 -15.2444,-9.1344 -22.1132,-10.5944 -37.32,-7.9329 -11.2203,1.9638 -28.1982,6.3738 -43.18,11.216 -12.5988,4.0721 -20.3703,6.3447 -24.7329,7.2326 -2.5415,0.5173 -4.6845,2.5132 -10.02,9.3323 -3.7329,4.7709 -7.6781,9.9678 -8.7671,11.5486 -8.4185,12.2211 -20.7741,33.7292 -24.4868,42.6257 -1.7214,4.125 -3.731,8.85 -4.4657,10.5 -0.7347,1.65 -2.2517,5.9966 -3.371,9.6591 -1.9252,6.2989 -1.9617,7.2723 -0.6754,18 1.7104,14.264 5.0385,35.8979 7.129,46.3409 5.0732,25.3436 15.845,65.845 19.9873,75.1511 0.7714,1.7332 1.4026,3.6304 1.4026,4.2161 0,0.5857 0.6525,2.5427 1.45,4.3489 0.7975,1.8061 3.2446,7.6018 5.4379,12.8792 5.9269,14.2611 10.7543,24.2848 15.1691,31.4978 2.1686,3.5432 3.943,6.6892 3.943,6.9912 0,0.302 1.125,2.0241 2.5,3.8268 1.375,1.8027 2.5,3.6014 2.5,3.997 0,0.9723 16.0398,19.4524 19.6326,22.6195 10.8997,9.6082 25.6762,16.8125 34.7135,16.9247 2.1153,0.026 6.3903,-0.657 9.5,-1.5183 z m -121.6764,-306.3472 c 0.7317,-1.42 3.0241,-5.0291 5.0944,-8.0202 2.0702,-2.9911 3.4162,-5.7863 2.991,-6.2114 -0.4251,-0.4252 -3.919,-0.9041 -7.764,-1.0641 l -6.9911,-0.2911 -0.287,10.4324 c -0.3591,13.0551 0.1156,14.595 3.2837,10.6519 1.2885,-1.6037 2.9414,-4.0776 3.673,-5.4975 z m 563.33028,271.2917 c -17.7874,-2.6881 -27.9002,-5.3468 -38.5,-10.1219 -3.025,-1.3628 -6.4,-2.8769 -7.5,-3.3648 -2.2472,-0.9967 -3.0483,-1.4914 -13.1039,-8.0929 -8.6803,-5.6987 -21.3805,-18.0888 -28.6955,-27.9951 -7.1798,-9.7232 -15.9564,-28.0158 -19.0974,-39.8038 -7.651,-28.7139 -4.5142,-57.99 9.1607,-85.5 16.2418,-32.6736 47.7636,-56.8536 84.2361,-64.6165 8.5396,-1.8176 39.4435,-1.8707 47.0001,-0.081 14.6896,3.4796 27.7819,8.3391 36.5,13.5476 7.6026,4.5422 22.4968,15.985 27.1142,20.8314 16.5536,17.3742 27.8403,39.6198 31.8718,62.8182 1.911,10.9965 1.9153,32.1696 0.01,43.0687 -2.6704,15.2654 -10.1766,33.7145 -19.0202,46.749 -4.4378,6.5407 -20.5726,23.079 -27.8858,28.5831 -11.2363,8.4567 -27.1316,16.3416 -39.5887,19.6381 -11.1706,2.956 -35.331,5.423 -42.5001,4.3396 z m 37.7375,-29.2861 c 17.307,-5.6076 27.2382,-11.6147 39.4733,-23.876 29.3871,-29.4501 36.6438,-71.5522 18.7383,-108.7164 -10.5599,-21.9177 -25.339,-36.6105 -46.6814,-46.4085 -13.5559,-6.2234 -20.7753,-7.5961 -39.7677,-7.5613 -17.9512,0.033 -23.4286,1.136 -37.9706,7.6472 -20.1433,9.0192 -37.2065,25.4707 -47.0079,45.3226 -7.541,15.2736 -9.3662,23.6758 -9.3409,43 0.019,14.4401 0.2834,16.8774 2.7129,25 2.814,9.4081 8.6578,22.1386 12.1494,26.4673 1.1235,1.393 2.8914,3.8827 3.9286,5.5327 7.0879,11.2759 27.1685,26.288 43.0207,32.1618 11.3107,4.191 18.6469,5.2174 35.0078,4.898 14.7666,-0.2883 16.7508,-0.5556 25.7375,-3.4674 z m -108.839,-302.1209 c -5.7992,-1.0371 -19.4702,-5.8972 -25.1144,-8.9282 -18.002,-9.6674 -28.8447,-20.3853 -41.0153,-40.5433 -4.1715,-6.9091 -10.2577,-23.988 -12.1377,-34.0602 -1.6536,-8.8596 -1.4208,-31.5251 0.4153,-40.4398 1.6351,-7.938 6.1391,-21.8532 7.5903,-23.45 0.4748,-0.5225 0.8633,-1.5109 0.8633,-2.1964 0,-0.6856 1.6408,-4.0831 3.6462,-7.55 13.4716,-23.2894 34.6929,-40.5254 58.8538,-47.8013 11.5878,-3.4896 34.6774,-4.0663 45.5,-1.1364 12.6907,3.4356 14.9065,4.1738 15.5229,5.1711 0.3273,0.5297 1.2377,0.963 2.023,0.963 6.2122,0 31.6711,21.4794 39.7063,33.5 8.2576,12.3532 13.8927,25.3573 16.8998,39 1.9569,8.8779 1.665,41.3056 -0.4365,48.5 -0.8837,3.025 -2.1174,7.3 -2.7418,9.5 -3.9136,13.7908 -14.1476,29.8958 -27.3583,43.0531 -11.6319,11.5849 -14.4698,13.453 -34.1154,22.4568 -8.5042,3.8976 -35.8612,6.1507 -48.1015,3.9616 z m 12.2294,-113.5592 c 5.5636,-2.2812 12.1104,-8.9851 15.4684,-15.8395 2.5355,-5.1756 2.9037,-7.0424 2.9037,-14.7215 0,-7.1101 -0.4599,-9.8341 -2.4013,-14.2241 -2.7978,-6.3262 -8.7211,-12.6243 -14.8072,-15.7441 -5.561,-2.8506 -16.7285,-3.0664 -22.4304,-0.4336 -4.4158,2.039 -11.5609,8.5688 -14.4376,13.1941 -4.8551,7.8064 -6.2717,20.1175 -3.2591,28.323 2.9638,8.0726 12.6017,19.0334 16.7361,19.0334 0.8148,0 1.7596,0.45 2.0995,1 1.0055,1.6269 15.7788,1.1955 20.1279,-0.5877 z m -371.34068,68.0435 c -6.2121,-3.0956 -14.1747,-10.742 -17.3024,-16.6154 -2.7607,-5.1841 -3.2666,-13.5812 -0.9848,-16.3461 3.073,-3.7238 11.9998,-6.7231 21.5,-7.2238 25.1386,-1.3249 46.951,13.8904 38.319,26.7295 -5.0496,7.5107 -22.1826,16 -32.2911,16 -2.4255,0 -6.246,-1.0519 -9.2407,-2.5442 z m -238.2872,-78.9368 c -7.6807,-1.3066 -21.5871,-6.2099 -27.9406,-9.8515 -12.3588,-7.0837 -26.4362,-21.2435 -33.9438,-34.1425 -4.0996,-7.0434 -10.0773,-23.1138 -11.786,-31.6854 -3.2272,-16.1882 -1.0249,-42.5155 4.6292,-55.3396 0.485,-1.1 2.0537,-4.666 3.486,-7.9244 7.8435,-17.8433 27.2791,-37.9332 44.1198,-45.605 15.8506,-7.2208 28.5755,-9.2856 45.665,-7.41 12.5994,1.3829 16.2366,2.3638 27.2038,7.3365 9.5417,4.3264 17.2265,9.966 25.7592,18.9034 13.5814,14.2255 19.5864,25.5821 25.2569,47.7651 2.0853,8.1579 2.0998,36.166 0.022,41.9344 -0.7926,2.2 -1.4478,4.9103 -1.4561,6.0228 -0.036,4.7989 -8.6738,23.8467 -14.4439,31.8501 -4.3506,6.0346 -19.2875,20.9572 -24.0712,24.0481 -8.6812,5.6092 -9.8151,6.1951 -18.2968,9.453 -14.9422,5.7396 -29.053,7.2224 -44.2032,4.645 z m 43.7473,-97.7149 c 4.6251,-2.156 10.0792,-7.9139 12.9387,-13.6593 1.3884,-2.7897 1.7981,-5.8735 1.7463,-13.1448 -0.06,-8.4856 -0.3613,-10.0038 -2.8176,-14.218 -7.1488,-12.265 -21.0453,-17.2384 -33.233,-11.8936 -12.6769,5.5593 -20.0237,21.4828 -16.063,34.8149 3.319,11.1723 11.2352,18.6012 21.553,20.2263 5.9997,0.9449 10.614,0.3271 15.8756,-2.1255 z m -49.7473,-113.8041 c 0,-0.55 0.4766,-1 1.059,-1 0.5825,0 0.7809,0.45 0.441,1 -0.3399,0.55 -0.8165,1 -1.059,1 -0.2426,0 -0.441,-0.45 -0.441,-1 z M 1637.6507,2360.729 c 0.9259,-4.6294 0.7576,-13.875 -0.2526,-13.875 -2.4392,0 -3.2349,3.0871 -2.5603,9.9333 0.7435,7.5457 1.7969,9.0218 2.8129,3.9417 z m -1533.37508,-0.875 c 0,-0.55 -0.45,-1 -1,-1 -0.55,0 -1,0.45 -1,1 0,0.55 0.45,1 1,1 0.55,0 1,-0.45 1,-1 z m 1402.43088,-83.3179 c 4.4381,-2.9249 9.1942,-6.072 10.5692,-6.9936 1.375,-0.9216 5.65,-3.7516 9.5,-6.2888 8.0229,-5.2873 11.5,-8.2687 11.5,-9.8606 0,-1.0946 -4.1569,-4.4348 -15,-12.0527 -7.3674,-5.176 -11.4893,-8.0915 -19.3465,-13.6842 -4.349,-3.0955 -6.8382,-4.3123 -7.2985,-3.5675 -0.7644,1.2368 -0.4929,55.7332 0.284,56.9901 0.7877,1.2747 1.3857,0.9973 9.7918,-4.5427 z m -44.657,-59.5789 c 2.9005,-0.4129 5.7104,-1.1874 6.2442,-1.7212 1.4376,-1.4376 -2.7766,-51.5644 -4.5805,-54.4831 -0.3389,-0.5484 -2.5367,0.7057 -4.9152,2.8046 -2.3662,2.0881 -7.3893,6.3484 -11.1623,9.4675 -17.1239,14.1558 -22.341,18.7134 -29.1897,25.4997 -4.5591,4.5175 -7.2048,7.9114 -6.9993,8.9785 0.5096,2.6464 10.4528,7.1081 19.329,8.6732 8.9019,1.5696 23.2213,1.9272 31.2738,0.7808 z m 32.5751,-70.5038 c 1.7331,-0.7703 4.0511,-1.6301 5.1511,-1.9107 2.56,-0.6529 25.3573,-8.4873 28,-9.6223 2.475,-1.0629 14.7603,-5.4496 32.5,-11.6046 7.425,-2.5762 14.4,-5.0373 15.5,-5.4692 1.1,-0.4318 5.825,-2.1319 10.5,-3.778 7.6176,-2.6821 28.2692,-10.0006 47.5,-16.8331 11.6781,-4.1491 17.8369,-6.4498 21.2839,-7.9512 1.8062,-0.7867 4.0686,-1.4303 5.0275,-1.4303 0.959,0 2.6312,-0.6004 3.7161,-1.3343 1.0849,-0.7338 4.2225,-1.9465 6.9725,-2.6949 2.75,-0.7484 6.125,-1.9452 7.5,-2.6596 1.375,-0.7144 3.4225,-1.3017 4.55,-1.305 1.1275,0 2.4775,-0.3834 3,-0.8444 0.5225,-0.461 4.55,-2.0995 8.95,-3.6411 4.4,-1.5415 8.3991,-3.161 8.887,-3.5987 0.7303,-0.6554 -2.8896,-8.7848 -8.2842,-18.6045 -0.5492,-0.9996 -5.6784,-11.4925 -11.3984,-23.3175 -5.7199,-11.825 -15.2354,-31.4 -21.1456,-43.5 -5.9101,-12.1 -14.5905,-29.875 -19.2896,-39.5 -4.6991,-9.625 -9.6792,-19.75 -11.0667,-22.5 -1.3876,-2.75 -4.4976,-9.05 -6.9113,-14 -2.4136,-4.95 -4.7835,-9.675 -5.2664,-10.5 -0.4829,-0.825 -3.2179,-6.225 -6.0777,-12 -2.8598,-5.775 -11.443,-23.1 -19.0739,-38.5 -11.8604,-23.9358 -13.8742,-28.6783 -13.8737,-32.6733 7e-4,-6.5237 3.0492,-9.8322 12.7665,-13.8556 4.2537,-1.7612 10.434,-4.4484 13.734,-5.9715 3.3,-1.5231 12.075,-5.3276 19.5,-8.4545 7.425,-3.1268 16.65,-7.1674 20.5,-8.979 3.85,-1.8116 9.475,-4.2789 12.5,-5.4829 3.025,-1.2041 7.75,-3.2635 10.5,-4.5766 2.75,-1.3132 12.2,-5.4168 21,-9.1193 8.8,-3.7025 19.375,-8.2794 23.5,-10.171 4.125,-1.8915 9.075,-4.0112 11,-4.7104 1.925,-0.6993 6.2,-2.4748 9.5,-3.9456 3.3,-1.4709 6.9,-3.0581 8,-3.5272 1.1,-0.4692 4.025,-1.749 6.5,-2.8441 2.475,-1.0951 6.075,-2.6865 8,-3.5363 1.925,-0.8499 9.9048,-4.2635 17.733,-7.5858 14.5901,-6.1922 16.6255,-7.0721 31.267,-13.5164 4.675,-2.0577 25.375,-10.9498 46,-19.7603 42.5018,-18.1557 45.8128,-19.5889 48.2722,-20.8943 0.9747,-0.5173 4.3497,-1.8904 7.5,-3.0513 3.1503,-1.1608 6.1778,-2.4614 6.7278,-2.8902 0.55,-0.4288 4.375,-2.1459 8.5,-3.8157 16.7997,-6.8007 28.3002,-11.6716 31.2722,-13.2451 0.9747,-0.5161 4.3497,-1.8898 7.5,-3.0529 3.1503,-1.163 9.485,-3.8529 14.0771,-5.9776 4.5921,-2.1247 8.7181,-3.8631 9.169,-3.8631 0.4508,0 2.0936,-0.6468 3.6507,-1.4373 4.0164,-2.039 14.287,-6.5627 14.9,-6.5627 0.2829,0 3.3081,-1.2802 6.7227,-2.8448 3.4146,-1.5646 15.1497,-6.6271 26.078,-11.25 19.4436,-8.225 19.9089,-8.491 21.7007,-12.4052 3.0224,-6.6029 6.9296,-17.2377 6.9296,-18.8615 0,-0.8363 0.4154,-1.7772 0.9231,-2.091 0.5076,-0.3137 1.2279,-2.0278 1.6005,-3.809 0.3726,-1.7812 1.9189,-7.0635 3.4364,-11.7385 1.5174,-4.675 3.5277,-11.2 4.4673,-14.5 0.9397,-3.3 2.2911,-7.8 3.0033,-10 0.7121,-2.2 1.8431,-6.475 2.5133,-9.5 0.6701,-3.025 1.8032,-7.525 2.5179,-10 2.6135,-9.05 6.9344,-26.1574 9.0928,-36 0.9046,-4.125 2.2473,-9.75 2.984,-12.5 0.7366,-2.75 1.8558,-7.7 2.4871,-11 0.6313,-3.3 1.7982,-9.15 2.5931,-13 3.0166,-14.6104 4.3968,-21.2191 5.8477,-28 0.8237,-3.85 2.1543,-10.6 2.9569,-15 0.8025,-4.4 2.5929,-14.075 3.9785,-21.5 4.7845,-25.6385 6.4042,-34.5257 7.5634,-41.5 0.6399,-3.85 1.7905,-10.375 2.557,-14.5 2.5224,-13.576 5.6028,-31.8667 7.4944,-44.5 0.4117,-2.75 1.7204,-11.525 2.9081,-19.5 1.1877,-7.975 2.8155,-17.9966 3.6174,-22.2703 0.8018,-4.2737 1.4578,-8.9884 1.4578,-10.4772 0,-1.4887 0.6517,-6.0921 1.4481,-10.2297 2.3918,-12.4252 4.5845,-27.2986 4.5734,-31.0228 -0.01,-1.925 0.4197,-5.075 0.9454,-7 0.8442,-3.0918 2.0798,-11.9817 5.073,-36.5 2.2275,-18.246 6.0478,-47.3108 6.9456,-52.8425 1.5935,-9.8178 1.3682,-12.6575 -1.0039,-12.6575 -2.4331,0 -11.8653,2.5271 -29.9816,8.0327 -7.425,2.2565 -14.85,4.4718 -16.5,4.9229 -1.65,0.4511 -15.15,4.9249 -30,9.9419 -14.85,5.0169 -29.025,9.7329 -31.5,10.4799 -2.475,0.7471 -8.325,2.7895 -13,4.5388 -4.675,1.7492 -10.975,4.0241 -14,5.0552 -8.7686,2.9888 -14.3468,5.0134 -16.5,5.9885 -1.1,0.4982 -6.05,2.3163 -11,4.0401 -4.95,1.7238 -9.9,3.5532 -11,4.0651 -1.1,0.512 -5.6,2.2405 -10,3.8412 -14.0848,5.124 -46.1701,17.4087 -50,19.1439 -1.1,0.4983 -8.975,3.6335 -17.5,6.9669 -8.525,3.3335 -16.4,6.4682 -17.5,6.966 -1.1,0.4978 -8.75,3.6453 -17,6.9944 -8.25,3.3491 -17.0013,7.0115 -19.4473,8.1387 -2.446,1.1272 -7.171,3.0795 -10.5,4.3384 -3.329,1.2589 -9.2027,3.7328 -13.0527,5.4976 -3.85,1.7648 -7.9,3.5659 -9,4.0024 -1.1,0.4365 -5.028,2.2002 -8.729,3.9195 -3.7009,1.7192 -6.9731,3.1259 -7.2716,3.1259 -0.2985,0 -4.4026,1.8 -9.1203,4 -4.7177,2.2 -9.118,4 -9.7784,4 -0.6604,0 -1.6282,0.395 -2.1507,0.8778 -0.5225,0.4827 -5.225,2.7766 -10.45,5.0975 -12.4722,5.5398 -23.4267,10.6448 -29,13.5142 -2.475,1.2742 -7.3631,3.5124 -10.8624,4.9736 -7.1236,2.9747 -59.7216,28.9413 -73.6376,36.3534 -20.4232,10.8781 -39.9656,21.7165 -45.5,25.2347 -0.825,0.5245 -2.4,1.3923 -3.5,1.9284 -1.1,0.5362 -4.475,2.5385 -7.5,4.4496 -3.025,1.9111 -6.85,4.1727 -8.5,5.0257 -1.65,0.853 -4.2622,2.5621 -5.8048,3.798 -2.7333,2.1898 -2.8289,2.6043 -3.7483,16.2471 -0.5189,7.7 -1.3986,18.275 -1.9548,23.5 -0.5563,5.225 -1.0039,11.525 -0.9947,14 0.01,2.475 -0.6367,9.45 -1.4352,15.5 -0.7985,6.05 -2.1632,16.85 -3.0327,24 -1.8925,15.5608 -4.1251,31.7255 -6.0772,44 -0.7873,4.95 -2.5831,16.425 -3.9907,25.5 -1.4076,9.075 -3.1729,19.65 -3.9229,23.5 -0.7499,3.85 -2.1107,11.275 -3.024,16.5 -0.9132,5.225 -2.0966,10.9347 -2.6299,12.6881 -0.5332,1.7535 -1.3759,5.5785 -1.8727,8.5 -0.4968,2.9216 -1.8408,9.5869 -2.9867,14.8119 -1.1459,5.225 -2.7484,12.875 -3.5612,17 -0.8127,4.125 -2.1152,9.975 -2.8945,13 -3.7934,14.7261 -4.5697,18.1233 -4.5697,19.9985 0,1.1157 -0.4354,2.81 -0.9677,3.7651 -0.9032,1.6208 -3.2603,10.1776 -5.0235,18.2364 -0.4212,1.925 -2.1982,8.675 -3.949,15 -1.7508,6.325 -3.8504,13.975 -4.6659,17 -0.8156,3.025 -1.8943,6.85 -2.3974,8.5 -0.503,1.65 -1.5755,5.25 -2.3834,8 -0.8078,2.75 -3.5666,11.525 -6.1306,19.5 -2.5641,7.975 -5.2273,16.3 -5.9183,18.5 -5.6515,17.9936 -21.8716,53.1594 -33.2096,72 -6.5626,10.9052 -18.2273,27.8657 -25.3441,36.8505 -6.974,8.8044 -7.0104,8.8824 -6.9889,15 0.012,3.3822 0.6026,10.0116 1.3126,14.732 1.38,9.1739 2.1016,10.5684 11.1341,21.5162 2.7674,3.3542 8.6164,10.7792 12.9978,16.5 4.3813,5.7207 12.2563,15.729 17.5,22.2405 5.2436,6.5116 11.1089,13.967 13.0339,16.5675 1.925,2.6005 6.2,8.2079 9.5,12.4609 3.3,4.253 7.8,10.152 10,13.1089 2.2,2.9568 6.925,9.0747 10.5,13.5953 3.575,4.5206 7.6518,9.8413 9.0595,11.8237 1.4077,1.9825 6.4939,8.5545 11.3026,14.6045 16.7498,21.0735 15.6379,19.3312 15.6379,24.5031 0,8.0444 -4.4709,11.8995 -16.7392,14.4335 -3.7184,0.7681 -9.7967,2.1167 -13.5072,2.997 -9.2787,2.2012 -19.4714,4.5689 -24.2536,5.6338 -2.2,0.4899 -7.15,1.618 -11,2.507 -3.85,0.8889 -9.025,1.9847 -11.5,2.4351 -2.475,0.4503 -5.7668,1.3074 -7.3151,1.9046 -1.5483,0.5973 -3.8557,1.0859 -5.1276,1.0859 -1.2718,0 -2.8668,0.668 -3.5444,1.4845 -1.274,1.5351 -1.2748,1.5288 2.5063,20.5155 3.5779,17.966 7.1873,39.4416 10.0002,59.5 2.3164,16.5178 1.8593,15.753 7.8295,13.0994 z m -18.3489,-120.1184 c 4.125,-0.8353 11.1,-2.3683 15.5,-3.4067 4.4,-1.0384 12.05,-2.8448 17,-4.0143 12.9648,-3.0629 20.871,-5.2867 21.873,-6.152 1.0553,-0.9115 -1.2619,-4.3037 -11.8913,-17.408 -4.4612,-5.5 -8.5322,-10.7542 -9.0465,-11.6761 -0.5144,-0.9218 -3.0549,-4.2968 -5.6456,-7.5 -2.5907,-3.2031 -10.2057,-12.7989 -16.9223,-21.3239 -27.577,-35.0023 -32.1123,-40.5157 -33.6046,-40.8522 -1.3399,-0.302 -1.4593,0.4802 -0.8392,5.5 0.3976,3.2187 1.1108,9.4522 1.5848,13.8522 2.08,19.3078 3.1432,28.4597 4.0659,35 0.5432,3.85 1.8547,13.4063 2.9145,21.2363 1.0598,7.83 2.3531,15.93 2.8741,18 0.521,2.07 1.2476,6.6667 1.6146,10.2147 0.5544,5.359 1.865,10.0496 2.8078,10.0488 0.1181,-1e-4 3.5898,-0.6836 7.7148,-1.5188 z m -37.1704,-10.981 c 0.1813,-2.2 -0.3718,-8.05 -1.2292,-13 -0.8574,-4.95 -2.0102,-11.8944 -2.5618,-15.4321 -0.5515,-3.5377 -1.4311,-6.8604 -1.9546,-7.3839 -0.6023,-0.6023 -3.0869,1.0401 -6.7679,4.4738 -3.1988,2.9841 -7.6161,6.7504 -9.8161,8.3695 -6.1958,4.56 -19.5,17.581 -19.5,19.0851 0,2.0889 6.7394,4.9342 15,6.3327 4.125,0.6984 7.95,1.4193 8.5,1.602 0.55,0.1826 4.825,0.2468 9.5,0.1425 l 8.5,-0.1896 z M 469.50052,1604.7405 c 10.6237,-5.3629 17.0394,-10.8884 26.5736,-22.8865 1.5296,-1.925 3.3225,-4.625 3.9841,-6 0.6616,-1.375 1.645,-3.175 2.1853,-4 0.8825,-1.3474 2.7747,-5.6207 5.8012,-13.1012 1.7365,-4.2919 4.9515,-17.8775 6.2141,-26.258 1.1545,-7.6636 1.555,-32.961 0.5476,-34.5909 -0.2778,-0.4495 -0.9738,-4.1321 -1.5468,-8.1836 -1.1074,-7.8302 -1.7835,-10.2903 -5.8715,-21.3663 -7.4738,-20.2497 -19.7855,-34.7446 -35.6704,-41.996 -6.1389,-2.8023 -19.1889,-4.919 -24.9765,-4.0511 -7.0098,1.0512 -7.5041,2.0774 -13.51,28.0471 -7.3658,31.8502 -4.0919,78.2162 8.1555,115.5 1.904,5.7963 13.5965,35.2619 15.3767,38.75 2.1336,4.1806 4.6719,4.2078 12.7371,0.1365 z"
       style="fill:#000000;stroke:#000000" />
    <path
       style="color:#000000;clip-rule:nonzero;display:inline;overflow:visible;visibility:visible;opacity:1;isolation:auto;mix-blend-mode:normal;color-interpolation:sRGB;color-interpolation-filters:linearRGB;solid-color:#000000;solid-opacity:1;fill:#ffffff;fill-opacity:1;fill-rule:nonzero;stroke:#ff0000;stroke-width:0.41441062;stroke-linecap:round;stroke-linejoin:round;stroke-miterlimit:4;stroke-dasharray:none;stroke-dashoffset:0;stroke-opacity:1;color-rendering:auto;image-rendering:auto;shape-rendering:auto;text-rendering:auto;enable-background:accumulate"
       d="M 289.77539,748.00208 A 211.05167,211.05167 0 0 1 500.82605,959.05272 211.05167,211.05167 0 0 1 289.77539,1170.1034 211.05167,211.05167 0 0 1 78.724734,959.05272 211.05167,211.05167 0 0 1 289.77539,748.00208 Z"
       id="path4148"
       inkscape:connector-curvature="0" />
  </g>
</svg>
