<?xml version="1.0" encoding="UTF-8" standalone="no"?>
<svg
   xmlns:dc="http://purl.org/dc/elements/1.1/"
   xmlns:cc="http://creativecommons.org/ns#"
   xmlns:rdf="http://www.w3.org/1999/02/22-rdf-syntax-ns#"
   xmlns:svg="http://www.w3.org/2000/svg"
   xmlns="http://www.w3.org/2000/svg"
   xmlns:sodipodi="http://sodipodi.sourceforge.net/DTD/sodipodi-0.dtd"
   xmlns:inkscape="http://www.inkscape.org/namespaces/inkscape"
   version="1.1"
   id="svg14121"
   width="95.999878"
   height="62.56287"
   viewBox="0 0 95.999876 62.562871"
   sodipodi:docname="logo.svg"
   inkscape:version="1.0beta2 (2b71d25, 2019-12-03)">
  <metadata
     id="metadata14127">
    <rdf:RDF>
      <cc:Work
         rdf:about="">
        <dc:format>image/svg+xml</dc:format>
        <dc:type
           rdf:resource="http://purl.org/dc/dcmitype/StillImage" />
        <dc:title></dc:title>
      </cc:Work>
    </rdf:RDF>
  </metadata>
  <defs
     id="defs14125" />
  <sodipodi:namedview
     fit-margin-bottom="0"
     fit-margin-right="0"
     fit-margin-left="0"
     fit-margin-top="0"
     pagecolor="#ffffff"
     bordercolor="#666666"
     borderopacity="1"
     objecttolerance="10"
     gridtolerance="10"
     guidetolerance="10"
     inkscape:pageopacity="0"
     inkscape:pageshadow="2"
     inkscape:window-width="1280"
     inkscape:window-height="717"
     id="namedview14123"
     showgrid="false"
     inkscape:zoom="1.0834077"
     inkscape:cx="7.3362226"
     inkscape:cy="156.51655"
     inkscape:window-x="0"
     inkscape:window-y="23"
     inkscape:window-maximized="1"
     inkscape:current-layer="g18377"
     inkscape:document-rotation="0" />
  <g
     id="g18377"
     transform="translate(-19.130445,-140.93544)">
    <path
       inkscape:connector-curvature="0"
       inkscape:export-filename="/Users/yorick/projects/jorgeio/delphic/static/images/star.png"
       inkscape:export-xdpi="96"
       inkscape:export-ydpi="96"
       id="path18379"
       style="fill:#161a25;stroke-width:0.249867"
       d="m 67.130214,140.93551 c -26.502234,0 -47.999769,21.49754 -47.999769,47.99977 0,5.07697 0.791303,9.96934 2.253192,14.56303 h 1.310336 c -1.500485,-4.58287 -2.314195,-9.47726 -2.314195,-14.56303 0,-25.82704 20.923392,-46.75043 46.750436,-46.75043 25.827043,0 46.750926,20.92339 46.750926,46.75043 0,4.57192 -0.65835,8.98912 -1.88083,13.16485 -0.57005,-0.31118 -1.16376,-0.61032 -1.79104,-0.90382 -6.43814,-3.01223 -7.85598,-3.74691 -9.29142,-4.81334 -1.659946,-1.23321 -2.72397,-2.67291 -4.053019,-5.48584 l -0.788154,-1.66855 0.8677,-1.43673 c 1.515558,-2.50973 2.232424,-4.72515 2.677773,-8.27684 0.63377,-5.05439 -1.230434,-9.13505 -4.782607,-10.4695 -1.542759,-0.57958 -1.465631,-0.24253 -0.993119,-4.3429 0.16877,-1.46455 0.325835,-3.72825 0.34942,-5.03052 0.03721,-2.05174 -0.02327,-2.44172 -0.455809,-2.92227 -1.051296,-1.16799 -1.679785,-1.29649 -7.475017,-1.52994 -1.264381,-0.051 -2.491127,-0.0809 -3.675773,-0.0898 -8.292497,-0.0621 -14.519165,0.89221 -17.111469,2.66849 -1.354632,0.92821 -2.052345,2.79296 -2.410824,6.44334 -0.04813,0.4901 -0.411347,0.80953 -1.685622,1.48309 -2.300747,1.21616 -4.109914,3.09621 -4.61326,4.79334 -0.390392,1.31629 -0.442144,1.36819 -2.452793,2.4689 -1.571749,0.86044 -2.798219,1.84788 -5.224262,4.20625 l -3.170183,3.08185 -2.701683,0.2323 c -10.689071,0.91764 -18.163589,4.62658 -21.207917,10.52417 -0.982432,1.9032 -0.7217,3.1538 0.491925,2.3586 0.997212,-0.65339 3.417521,-1.22483 5.127633,-1.21029 1.078524,0.009 2.758665,0.32207 4.890944,0.91065 5.21442,1.43937 11.485807,2.63433 13.825141,2.63433 2.343724,0 3.358557,0.33517 4.941697,1.63244 1.403284,1.14988 2.247003,2.99329 2.763662,6.03632 0.0059,0.0349 0.0104,0.0696 0.01609,0.10444 h 1.080965 c -0.08476,-0.97907 -0.254646,-1.64288 -0.608073,-2.71681 -0.575093,-1.74751 -0.908397,-2.31003 -2.166811,-3.65527 -0.817931,-0.87438 -1.487488,-1.72179 -1.487488,-1.88328 0,-0.52716 3.067405,-1.75695 5.010998,-2.00918 3.159263,-0.41 4.935683,-0.31586 6.857667,0.36358 2.112159,0.74666 3.103603,0.7766 5.101769,0.15469 1.562453,-0.48628 3.75112,-1.95397 4.407317,-2.95545 0.515374,-0.78656 2.817992,-2.56748 3.319029,-2.56698 0.228152,2.4e-4 0.731874,0.50181 1.119033,1.11463 0.916538,1.45078 3.169008,3.49719 4.706958,4.27653 3.856592,1.95428 7.237447,1.61423 11.113701,-1.11806 0.943662,-0.66517 1.9299,-1.4488 2.191699,-1.74174 0.642201,-0.71861 0.743813,-0.68266 1.135137,0.40408 0.555812,1.54353 2.173288,3.90451 3.598664,5.25257 1.835941,1.73636 3.548111,2.78552 8.053321,4.93535 1.35635,0.64723 2.87142,1.44594 4.07009,2.12777 -0.002,0.006 -0.004,0.0117 -0.006,0.0175 h 1.31083 c 1.46192,-4.59368 2.25319,-9.48606 2.25319,-14.56302 0,-26.50223 -21.498031,-47.99977 -48.000263,-47.99977 z m 14.793376,15.06471 c 2.250651,2.3e-4 4.653669,0.0704 7.161212,0.21424 3.007667,0.17258 3.108178,0.19735 3.716282,0.90431 0.614595,0.71451 0.622038,0.77481 0.447513,3.60891 -0.157358,2.55536 -0.485265,5.13588 -1.02631,8.07431 l -0.172758,0.93699 0.969698,0.003 c 1.397105,0.003 3.448702,1.2515 4.322887,2.62994 1.108509,1.74794 1.355847,3.01877 1.202972,6.18273 -0.236514,4.89513 -1.579294,8.06072 -4.804563,11.32404 -1.440267,1.45726 -2.474326,2.25467 -3.69432,2.84906 -3.643612,1.77521 -7.379139,1.09076 -10.703758,-1.96086 -3.315373,-3.04314 -4.500938,-7.19376 -3.110154,-10.88872 1.08611,-2.88552 2.351456,-4.51281 5.203765,-6.69467 0.68518,-0.52413 0.926758,-0.92345 1.059488,-1.74907 0.09461,-0.58843 0.49875,-2.73445 0.897959,-4.76845 0.838016,-4.26972 0.910432,-5.70726 0.312827,-6.20323 -0.300399,-0.24931 -1.883414,-0.40515 -5.809399,-0.57196 -8.033891,-0.34136 -9.769202,-0.25135 -9.769202,0.5051 0,0.33606 0.264816,0.3665 1.874,0.21571 1.0307,-0.0966 1.86957,-0.0782 1.863751,0.041 -0.0059,0.11922 -0.154836,1.17242 -0.330877,2.34054 -0.235869,1.56511 -0.413709,2.11319 -0.676399,2.08239 -0.196055,-0.023 -1.024118,-0.17333 -1.839838,-0.3338 -0.815719,-0.16048 -2.277439,-0.25394 -3.248266,-0.2079 l -1.76517,0.0834 0.05563,-1.24933 c 0.152428,-3.44804 0.782597,-4.61644 3.003766,-5.56881 2.725903,-1.16889 8.107306,-1.79904 14.859259,-1.79835 z m 18.73463,4.23749 c -0.35242,0.0637 -0.50811,0.8002 -0.52511,2.25026 -0.0208,1.76991 -1.046452,3.896 -2.271256,4.70745 -0.990812,0.65643 -1.123562,1.13402 -0.346493,1.24494 1.116896,0.15943 3.120219,-2.29911 3.481049,-4.27164 0.39049,-2.1346 1.42376,0.18204 1.42552,3.19653 10e-4,2.09465 -0.40177,3.59458 -1.30644,4.86508 -0.27774,0.39006 -0.5051,0.78355 -0.5051,0.87454 0,0.091 0.30921,0.12986 0.68713,0.0864 0.55935,-0.0643 0.82415,-0.35307 1.42405,-1.55385 1.46027,-2.92297 1.06573,-7.69319 -0.85599,-10.34605 -0.54005,-0.74551 -0.93326,-1.1032 -1.20736,-1.05363 z m -27.658092,0.63101 4.872397,0.0903 c 2.679819,0.0497 4.956733,0.14102 5.059799,0.20253 0.103072,0.0615 0.187617,0.41444 0.187402,0.78425 -5.02e-4,0.71708 -0.865837,5.5444 -1.273733,7.10607 -0.268727,1.02885 -0.154804,1.00241 -2.724134,0.6359 -2.891875,-0.41253 -2.748534,-0.33352 -2.748534,-1.51677 0,-0.58236 0.09929,-1.40471 0.220586,-1.82765 0.30732,-1.07156 -0.05279,-1.60168 -1.088287,-1.60168 -0.549542,0 -1.119841,0.23284 -1.638285,0.66908 -0.613539,0.51626 -0.888965,0.61054 -1.205898,0.41189 -0.576177,-0.36115 -0.621783,-2.17655 -0.09321,-3.70457 z m -6.220799,4.51858 c 1.449856,-0.006 2.913457,0.20925 3.972,0.6315 1.70084,0.67848 1.919816,1.13149 1.149779,2.38057 -0.471014,0.76402 -0.542439,0.78771 -2.815393,0.94871 -3.457472,0.2449 -5.815426,0.60219 -8.329052,1.26154 -1.23684,0.32443 -2.463307,0.67347 -2.725595,0.77595 -0.425907,0.1664 -0.459674,0.10082 -0.316239,-0.61637 0.363177,-1.81588 3.095738,-4.11325 5.903589,-4.96318 0.913835,-0.27661 2.033243,-0.41436 3.160911,-0.41872 z m 8.543293,0.33673 c 0.07418,-0.002 0.137103,0.0195 0.186424,0.0688 0.05357,0.0536 -0.01962,0.85073 -0.163002,1.77151 -0.186307,1.19661 -0.182208,1.91292 0.01512,2.51087 0.477954,1.44822 1.724869,3.17085 2.545029,3.51571 l 0.777414,0.32648 -0.859893,0.97165 c -1.415333,1.5994 -2.37547,3.14287 -2.819784,4.53225 -0.230726,0.72148 -0.495067,1.3049 -0.587093,1.29618 -0.582551,-0.0551 -1.333715,-0.56089 -1.830073,-1.23226 -0.855992,-1.15778 -2.787636,-2.23059 -5.044185,-2.80123 -2.472167,-0.62516 -3.751867,-0.41184 -6.235438,1.03948 -2.499134,1.46041 -3.863336,1.76293 -8.734598,1.93793 l -4.277012,0.15373 0.98336,-1.17759 c 1.355211,-1.62295 3.613996,-3.49081 5.490234,-4.54006 3.550493,-1.98555 8.858265,-3.32704 13.564538,-3.42835 l 2.574798,-0.0557 0.09614,1.33132 c 0.131827,1.82854 0.979823,3.54108 1.753457,3.54108 0.818276,0 1.036601,-0.49037 0.432387,-0.97116 -0.278534,-0.22164 -0.632203,-0.64854 -0.78571,-0.94871 -0.35277,-0.6898 -0.357403,-2.66021 -0.0093,-3.91393 0.452003,-1.62783 2.210005,-3.90662 2.92715,-3.92809 z m 2.3913,5.01442 c 0.775883,0 3.204375,0.46365 3.387352,0.64662 0.07873,0.0787 -0.276749,0.52751 -0.789621,0.99752 -0.512865,0.47001 -1.018333,0.8437 -1.123419,0.83013 -0.348736,-0.045 -2.068522,-1.84417 -2.066769,-2.16194 0.0013,-0.17178 0.267645,-0.31233 0.592457,-0.31233 z m -12.502604,6.24667 c 1.220182,0 3.600738,0.68314 4.960242,1.42307 1.295262,0.70497 2.060889,1.56755 3.094049,3.48739 0.787353,1.46307 0.733471,2.46815 -0.300132,5.60443 -0.816946,2.47891 -2.150652,4.10439 -4.181848,5.09689 -1.374659,0.67169 -3.854795,1.00589 -4.903633,0.66078 -2.160029,-0.71073 -3.787613,-2.10357 -5.125681,-4.38682 -0.563675,-0.96184 -0.707842,-1.56188 -0.811092,-3.37271 -0.11304,-1.98257 -0.06191,-2.34181 0.511934,-3.59525 1.196301,-2.61307 4.362457,-4.91778 6.756161,-4.91778 z m -0.359183,2.04724 c -1.649562,0.0123 -2.82863,0.77132 -4.039349,2.53967 -0.973041,1.4212 -1.050422,1.65539 -1.043875,3.15895 0.01197,2.75417 1.580136,4.79043 4.461973,5.7933 1.526913,0.53136 2.246141,0.42908 4.396578,-0.62467 2.080997,-1.01973 2.913678,-2.16081 3.276572,-4.49174 0.239029,-1.53535 0.213144,-1.78601 -0.290374,-2.82613 -0.611086,-1.26234 -2.325073,-2.68379 -3.735798,-3.09844 -0.480993,-0.14138 -1.510558,-0.32658 -2.288328,-0.41141 -0.256321,-0.028 -0.50175,-0.0412 -0.737399,-0.0396 z m 24.264391,0.0766 c -0.271287,0 -0.395872,0.3363 -0.451905,1.21762 -0.04256,0.66967 -0.01799,1.37242 0.05468,1.56166 0.07262,0.18925 0.309562,0.34406 0.526571,0.34406 0.325352,0 0.381483,-0.27392 0.320145,-1.56167 -0.05663,-1.18851 -0.164227,-1.56167 -0.449468,-1.56167 z m -5.902611,0.82769 c -0.138185,0.003 -0.317936,0.12126 -0.543657,0.34698 -0.37176,0.37177 -0.392321,2.05893 -0.03317,2.72999 0.485637,0.90741 0.854927,0.36691 0.931632,-1.36353 0.052,-1.17297 -0.05077,-1.72046 -0.35479,-1.71344 z m -39.539441,1.29618 c 0.732749,0 0.733391,0.001 0.572447,1.21468 -0.179195,1.35084 0.0051,1.84666 1.267878,3.40785 0.94112,1.16353 3.305723,2.41778 5.446313,2.88909 0.796477,0.17536 1.498188,0.39999 1.559225,0.49875 0.20204,0.32691 -1.927576,0.46375 -9.504204,0.61198 -8.998977,0.17606 -13.155121,0.46982 -16.491198,1.16539 -1.374266,0.28654 -2.751656,0.57611 -3.060866,0.64321 -0.309209,0.0671 -0.5622,0.045 -0.5622,-0.0488 0,-0.36788 0.627486,-1.32069 1.697336,-2.57821 2.308771,-2.71376 5.960339,-4.87727 10.42266,-6.17542 2.335628,-0.67946 7.377522,-1.62852 8.652609,-1.62852 z m 19.834138,0 c 1.606785,0 2.046722,1.73616 0.631988,2.4933 -1.069455,0.57235 -2.00967,0.1345 -2.00967,-0.93554 0,-1.05564 0.444318,-1.55776 1.377682,-1.55776 z m -9.428073,9.13575 c 0.629742,-0.01 0.823618,0.084 0.99898,0.31087 0.691723,0.89506 0.325596,1.20383 -2.14534,1.81007 -0.596994,0.14646 -1.500079,0.64731 -2.028702,1.12489 -0.524068,0.47346 -1.276676,0.91222 -1.672447,0.97457 -1.752218,0.27607 -2.82906,0.30178 -4.383404,0.10493 -2.754754,-0.34889 -11.207282,-2.18367 -13.181439,-2.86127 -0.242825,-0.0833 -0.273489,-0.20233 -0.09712,-0.3787 0.157703,-0.15771 3.774965,-0.34982 9.349501,-0.49632 5.000656,-0.13142 10.160007,-0.3406 11.46556,-0.46508 0.781578,-0.0745 1.316565,-0.11801 1.694408,-0.12396 z" />
  </g>
</svg>
